<svg xmlns="http://www.w3.org/2000/svg" xmlns:xlink="http://www.w3.org/1999/xlink" width="750" zoomAndPan="magnify" viewBox="0 0 562.5 135.000003" height="180" preserveAspectRatio="xMidYMid meet" version="1.2"><defs/><g id="585b1452e5"><g style="fill:#ffde59;fill-opacity:0.5216;"><g transform="translate(4.450036, 87.232769)"><path style="stroke:none" d="M 17.703125 -33.21875 C 16.398438 -33.21875 15.15625 -32.570312 13.96875 -31.28125 C 12.78125 -30 11.910156 -28.726562 11.359375 -27.46875 L 10.53125 -25.5625 L 2.875 -29.265625 C 2.976562 -29.585938 3.140625 -30.007812 3.359375 -30.53125 C 3.585938 -31.050781 4.125 -31.984375 4.96875 -33.328125 C 5.820312 -34.679688 6.757812 -35.867188 7.78125 -36.890625 C 8.800781 -37.921875 10.195312 -38.859375 11.96875 -39.703125 C 13.75 -40.546875 15.660156 -40.96875 17.703125 -40.96875 C 20.335938 -40.96875 22.640625 -40.632812 24.609375 -39.96875 C 26.578125 -39.300781 28.097656 -38.472656 29.171875 -37.484375 C 30.242188 -36.492188 31.113281 -35.320312 31.78125 -33.96875 C 32.445312 -32.625 32.867188 -31.398438 33.046875 -30.296875 C 33.222656 -29.191406 33.3125 -28.035156 33.3125 -26.828125 C 33.3125 -25.078125 32.820312 -23.234375 31.84375 -21.296875 C 30.875 -19.359375 29.695312 -17.632812 28.3125 -16.125 C 26.9375 -14.613281 25.546875 -13.226562 24.140625 -11.96875 C 22.742188 -10.71875 21.554688 -9.753906 20.578125 -9.078125 L 19.125 -8.046875 L 34.046875 -8.046875 L 34.046875 0 L 2.6875 0 L 2.6875 -2.296875 C 3.238281 -2.742188 3.984375 -3.363281 4.921875 -4.15625 C 5.867188 -4.957031 7.53125 -6.476562 9.90625 -8.71875 C 12.28125 -10.96875 14.375 -13.078125 16.1875 -15.046875 C 18.007812 -17.015625 19.671875 -19.117188 21.171875 -21.359375 C 22.671875 -23.609375 23.421875 -25.429688 23.421875 -26.828125 C 23.421875 -27.378906 23.363281 -27.929688 23.25 -28.484375 C 23.132812 -29.035156 22.910156 -29.707031 22.578125 -30.5 C 22.253906 -31.300781 21.671875 -31.953125 20.828125 -32.453125 C 19.984375 -32.960938 18.941406 -33.21875 17.703125 -33.21875 Z M 17.703125 -33.21875 "/></g></g><g style="fill:#ffde59;fill-opacity:0.5216;"><g transform="translate(38.744002, 87.232769)"><path style="stroke:none" d="M 1.359375 -20.09375 C 1.359375 -26.726562 2.9375 -31.863281 6.09375 -35.5 C 9.25 -39.144531 13.132812 -40.96875 17.75 -40.96875 C 22.375 -40.96875 26.253906 -39.144531 29.390625 -35.5 C 32.523438 -31.863281 34.09375 -26.726562 34.09375 -20.09375 C 34.09375 -16.488281 33.65625 -13.316406 32.78125 -10.578125 C 31.90625 -7.847656 30.691406 -5.675781 29.140625 -4.0625 C 27.597656 -2.457031 25.875 -1.253906 23.96875 -0.453125 C 22.070312 0.335938 20 0.734375 17.75 0.734375 C 15.507812 0.734375 13.4375 0.335938 11.53125 -0.453125 C 9.632812 -1.253906 7.90625 -2.457031 6.34375 -4.0625 C 4.78125 -5.675781 3.554688 -7.847656 2.671875 -10.578125 C 1.796875 -13.316406 1.359375 -16.488281 1.359375 -20.09375 Z M 10.640625 -20.09375 C 10.640625 -15.832031 11.253906 -12.632812 12.484375 -10.5 C 13.722656 -8.375 15.476562 -7.3125 17.75 -7.3125 C 20 -7.3125 21.738281 -8.375 22.96875 -10.5 C 24.207031 -12.632812 24.828125 -15.832031 24.828125 -20.09375 C 24.828125 -24.164062 24.203125 -27.320312 22.953125 -29.5625 C 21.703125 -31.800781 19.96875 -32.921875 17.75 -32.921875 C 15.539062 -32.921875 13.800781 -31.789062 12.53125 -29.53125 C 11.269531 -27.269531 10.640625 -24.125 10.640625 -20.09375 Z M 10.640625 -20.09375 "/></g></g><g style="fill:#ffde59;fill-opacity:0.5216;"><g transform="translate(71.76963, 87.232769)"><path style="stroke:none" d="M 1.359375 -20.09375 C 1.359375 -26.726562 2.9375 -31.863281 6.09375 -35.5 C 9.25 -39.144531 13.132812 -40.96875 17.75 -40.96875 C 22.375 -40.96875 26.253906 -39.144531 29.390625 -35.5 C 32.523438 -31.863281 34.09375 -26.726562 34.09375 -20.09375 C 34.09375 -16.488281 33.65625 -13.316406 32.78125 -10.578125 C 31.90625 -7.847656 30.691406 -5.675781 29.140625 -4.0625 C 27.597656 -2.457031 25.875 -1.253906 23.96875 -0.453125 C 22.070312 0.335938 20 0.734375 17.75 0.734375 C 15.507812 0.734375 13.4375 0.335938 11.53125 -0.453125 C 9.632812 -1.253906 7.90625 -2.457031 6.34375 -4.0625 C 4.78125 -5.675781 3.554688 -7.847656 2.671875 -10.578125 C 1.796875 -13.316406 1.359375 -16.488281 1.359375 -20.09375 Z M 10.640625 -20.09375 C 10.640625 -15.832031 11.253906 -12.632812 12.484375 -10.5 C 13.722656 -8.375 15.476562 -7.3125 17.75 -7.3125 C 20 -7.3125 21.738281 -8.375 22.96875 -10.5 C 24.207031 -12.632812 24.828125 -15.832031 24.828125 -20.09375 C 24.828125 -24.164062 24.203125 -27.320312 22.953125 -29.5625 C 21.703125 -31.800781 19.96875 -32.921875 17.75 -32.921875 C 15.539062 -32.921875 13.800781 -31.789062 12.53125 -29.53125 C 11.269531 -27.269531 10.640625 -24.125 10.640625 -20.09375 Z M 10.640625 -20.09375 "/></g></g><g style="fill:#ffde59;fill-opacity:0.5216;"><g transform="translate(104.795257, 87.232769)"><path style="stroke:none" d="M 19.171875 -7.703125 L 11.703125 -7.703125 L 11.703125 -16.484375 L 2.921875 -16.484375 L 2.921875 -23.953125 L 11.703125 -23.953125 L 11.703125 -32.734375 L 19.171875 -32.734375 L 19.171875 -23.953125 L 27.953125 -23.953125 L 27.953125 -16.484375 L 19.171875 -16.484375 Z M 19.171875 -7.703125 "/></g></g><g style="fill:#ffde59;fill-opacity:0.5216;"><g transform="translate(133.235344, 87.232769)"><path style="stroke:none" d=""/></g></g><g style="fill:#ffde59;fill-opacity:0.5216;"><g transform="translate(144.113803, 87.232769)"><path style="stroke:none" d="M 2.921875 -40.25 L 17.609375 -40.25 C 21.703125 -40.25 25.015625 -39.191406 27.546875 -37.078125 C 30.085938 -34.960938 31.359375 -31.890625 31.359375 -27.859375 C 31.359375 -23.828125 30.070312 -20.660156 27.5 -18.359375 C 24.9375 -16.066406 21.640625 -14.921875 17.609375 -14.921875 L 12.09375 -14.921875 L 12.09375 0 L 2.921875 0 Z M 12.09375 -22.25 L 14.6875 -22.25 C 16.726562 -22.25 18.40625 -22.660156 19.71875 -23.484375 C 21.039062 -24.316406 21.703125 -25.675781 21.703125 -27.5625 C 21.703125 -29.476562 21.039062 -30.847656 19.71875 -31.671875 C 18.40625 -32.503906 16.726562 -32.921875 14.6875 -32.921875 L 12.09375 -32.921875 Z M 12.09375 -22.25 "/></g></g><g style="fill:#ffde59;fill-opacity:0.5216;"><g transform="translate(174.163715, 87.232769)"><path style="stroke:none" d="M 2.921875 0 L 2.921875 -25.03125 L 11.5625 -25.03125 L 11.5625 -21.421875 L 11.65625 -21.421875 C 11.71875 -21.546875 11.820312 -21.707031 11.96875 -21.90625 C 12.113281 -22.101562 12.429688 -22.441406 12.921875 -22.921875 C 13.410156 -23.410156 13.929688 -23.847656 14.484375 -24.234375 C 15.035156 -24.628906 15.75 -24.976562 16.625 -25.28125 C 17.507812 -25.59375 18.40625 -25.75 19.3125 -25.75 C 20.257812 -25.75 21.1875 -25.617188 22.09375 -25.359375 C 23.007812 -25.097656 23.675781 -24.835938 24.09375 -24.578125 L 24.78125 -24.203125 L 21.171875 -16.875 C 20.097656 -17.789062 18.601562 -18.25 16.6875 -18.25 C 15.644531 -18.25 14.75 -18.019531 14 -17.5625 C 13.25 -17.101562 12.71875 -16.546875 12.40625 -15.890625 C 12.101562 -15.242188 11.882812 -14.691406 11.75 -14.234375 C 11.625 -13.785156 11.5625 -13.429688 11.5625 -13.171875 L 11.5625 0 Z M 2.921875 0 "/></g></g><g style="fill:#ffde59;fill-opacity:0.5216;"><g transform="translate(196.018196, 87.232769)"><path style="stroke:none" d="M 5.296875 -2.96875 C 2.515625 -5.445312 1.125 -8.617188 1.125 -12.484375 C 1.125 -16.359375 2.570312 -19.535156 5.46875 -22.015625 C 8.363281 -24.503906 11.941406 -25.75 16.203125 -25.75 C 20.390625 -25.75 23.921875 -24.5 26.796875 -22 C 29.679688 -19.5 31.125 -16.328125 31.125 -12.484375 C 31.125 -8.648438 29.71875 -5.488281 26.90625 -3 C 24.09375 -0.507812 20.523438 0.734375 16.203125 0.734375 C 11.710938 0.734375 8.078125 -0.5 5.296875 -2.96875 Z M 11.96875 -16.734375 C 10.851562 -15.628906 10.296875 -14.210938 10.296875 -12.484375 C 10.296875 -10.765625 10.832031 -9.359375 11.90625 -8.265625 C 12.976562 -7.179688 14.390625 -6.640625 16.140625 -6.640625 C 17.835938 -6.640625 19.226562 -7.191406 20.3125 -8.296875 C 21.40625 -9.398438 21.953125 -10.796875 21.953125 -12.484375 C 21.953125 -14.210938 21.390625 -15.628906 20.265625 -16.734375 C 19.140625 -17.835938 17.765625 -18.390625 16.140625 -18.390625 C 14.484375 -18.390625 13.09375 -17.835938 11.96875 -16.734375 Z M 11.96875 -16.734375 "/></g></g><g style="fill:#ffde59;fill-opacity:0.5216;"><g transform="translate(225.824181, 87.232769)"><path style="stroke:none" d="M 3.75 -38.96875 C 4.757812 -39.976562 5.960938 -40.484375 7.359375 -40.484375 C 8.765625 -40.484375 9.96875 -39.976562 10.96875 -38.96875 C 11.976562 -37.96875 12.484375 -36.765625 12.484375 -35.359375 C 12.484375 -33.960938 11.976562 -32.757812 10.96875 -31.75 C 9.96875 -30.75 8.765625 -30.25 7.359375 -30.25 C 5.960938 -30.25 4.757812 -30.75 3.75 -31.75 C 2.75 -32.757812 2.25 -33.960938 2.25 -35.359375 C 2.25 -36.765625 2.75 -37.96875 3.75 -38.96875 Z M 2.921875 -25.03125 L 2.921875 2.1875 C 2.921875 4.46875 2.125 5.609375 0.53125 5.609375 C 0.207031 5.609375 -0.128906 5.550781 -0.484375 5.4375 C -0.847656 5.320312 -1.140625 5.203125 -1.359375 5.078125 L -1.65625 4.875 L -4.34375 11.859375 C -4.28125 11.890625 -4.066406 11.984375 -3.703125 12.140625 C -3.347656 12.304688 -3.082031 12.429688 -2.90625 12.515625 C -2.726562 12.597656 -2.425781 12.703125 -2 12.828125 C -1.570312 12.960938 -1.160156 13.0625 -0.765625 13.125 C -0.378906 13.1875 0.101562 13.25 0.6875 13.3125 C 1.269531 13.382812 1.882812 13.421875 2.53125 13.421875 C 4.15625 13.421875 5.585938 13.132812 6.828125 12.5625 C 8.066406 11.988281 9.007812 11.222656 9.65625 10.265625 C 10.3125 9.304688 10.789062 8.296875 11.09375 7.234375 C 11.40625 6.179688 11.5625 5.054688 11.5625 3.859375 L 11.5625 -25.03125 Z M 2.921875 -25.03125 "/></g></g><g style="fill:#ffde59;fill-opacity:0.5216;"><g transform="translate(237.873409, 87.232769)"><path style="stroke:none" d="M 28.25 -11.3125 L 10.09375 -11.3125 C 10.09375 -9.5625 10.660156 -8.257812 11.796875 -7.40625 C 12.941406 -6.5625 14.179688 -6.140625 15.515625 -6.140625 C 16.910156 -6.140625 18.015625 -6.328125 18.828125 -6.703125 C 19.640625 -7.078125 20.566406 -7.816406 21.609375 -8.921875 L 27.859375 -5.8125 C 25.253906 -1.445312 20.925781 0.734375 14.875 0.734375 C 11.101562 0.734375 7.867188 -0.554688 5.171875 -3.140625 C 2.472656 -5.734375 1.125 -8.847656 1.125 -12.484375 C 1.125 -16.128906 2.472656 -19.25 5.171875 -21.84375 C 7.867188 -24.445312 11.101562 -25.75 14.875 -25.75 C 18.84375 -25.75 22.070312 -24.601562 24.5625 -22.3125 C 27.050781 -20.019531 28.296875 -16.742188 28.296875 -12.484375 C 28.296875 -11.898438 28.28125 -11.507812 28.25 -11.3125 Z M 10.34375 -16.09375 L 19.859375 -16.09375 C 19.660156 -17.394531 19.144531 -18.394531 18.3125 -19.09375 C 17.488281 -19.789062 16.425781 -20.140625 15.125 -20.140625 C 13.6875 -20.140625 12.546875 -19.765625 11.703125 -19.015625 C 10.859375 -18.273438 10.40625 -17.300781 10.34375 -16.09375 Z M 10.34375 -16.09375 "/></g></g><g style="fill:#ffde59;fill-opacity:0.5216;"><g transform="translate(264.850045, 87.232769)"><path style="stroke:none" d="M 16.25 -18.6875 C 14.625 -18.6875 13.222656 -18.082031 12.046875 -16.875 C 10.878906 -15.675781 10.296875 -14.226562 10.296875 -12.53125 C 10.296875 -10.8125 10.878906 -9.347656 12.046875 -8.140625 C 13.222656 -6.941406 14.625 -6.34375 16.25 -6.34375 C 17.03125 -6.34375 17.769531 -6.4375 18.46875 -6.625 C 19.164062 -6.820312 19.675781 -7.019531 20 -7.21875 L 20.4375 -7.515625 L 23.359375 -1.515625 C 23.140625 -1.347656 22.828125 -1.140625 22.421875 -0.890625 C 22.015625 -0.648438 21.085938 -0.320312 19.640625 0.09375 C 18.191406 0.519531 16.632812 0.734375 14.96875 0.734375 C 11.300781 0.734375 8.078125 -0.554688 5.296875 -3.140625 C 2.515625 -5.734375 1.125 -8.832031 1.125 -12.4375 C 1.125 -16.082031 2.515625 -19.210938 5.296875 -21.828125 C 8.078125 -24.441406 11.300781 -25.75 14.96875 -25.75 C 16.632812 -25.75 18.164062 -25.550781 19.5625 -25.15625 C 20.957031 -24.769531 21.945312 -24.382812 22.53125 -24 L 23.359375 -23.421875 L 20.4375 -17.515625 C 19.363281 -18.296875 17.96875 -18.6875 16.25 -18.6875 Z M 16.25 -18.6875 "/></g></g><g style="fill:#ffde59;fill-opacity:0.5216;"><g transform="translate(286.363047, 87.232769)"><path style="stroke:none" d="M 4.390625 -25.03125 L 4.390625 -34.34375 L 13.03125 -34.34375 L 13.03125 -25.03125 L 18.296875 -25.03125 L 18.296875 -18.4375 L 13.03125 -18.4375 L 13.03125 -10.484375 C 13.03125 -8.179688 13.675781 -7.03125 14.96875 -7.03125 C 15.300781 -7.03125 15.644531 -7.09375 16 -7.21875 C 16.351562 -7.351562 16.628906 -7.484375 16.828125 -7.609375 L 17.125 -7.8125 L 19.265625 -0.828125 C 17.410156 0.210938 15.296875 0.734375 12.921875 0.734375 C 11.296875 0.734375 9.894531 0.453125 8.71875 -0.109375 C 7.550781 -0.679688 6.664062 -1.445312 6.0625 -2.40625 C 5.46875 -3.375 5.039062 -4.382812 4.78125 -5.4375 C 4.519531 -6.5 4.390625 -7.628906 4.390625 -8.828125 L 4.390625 -18.4375 L 0.78125 -18.4375 L 0.78125 -25.03125 Z M 4.390625 -25.03125 "/></g></g><g style="fill:#ffde59;fill-opacity:0.5216;"><g transform="translate(303.19295, 87.232769)"><path style="stroke:none" d="M 13.8125 -25.75 C 15.238281 -25.75 16.648438 -25.585938 18.046875 -25.265625 C 19.441406 -24.941406 20.484375 -24.617188 21.171875 -24.296875 L 22.203125 -23.8125 L 19.359375 -18.140625 C 17.410156 -19.179688 15.5625 -19.703125 13.8125 -19.703125 C 12.832031 -19.703125 12.140625 -19.597656 11.734375 -19.390625 C 11.328125 -19.179688 11.125 -18.785156 11.125 -18.203125 C 11.125 -18.066406 11.140625 -17.929688 11.171875 -17.796875 C 11.203125 -17.671875 11.265625 -17.550781 11.359375 -17.4375 C 11.460938 -17.320312 11.550781 -17.222656 11.625 -17.140625 C 11.707031 -17.066406 11.847656 -16.976562 12.046875 -16.875 C 12.242188 -16.78125 12.398438 -16.707031 12.515625 -16.65625 C 12.628906 -16.601562 12.816406 -16.53125 13.078125 -16.4375 C 13.335938 -16.34375 13.53125 -16.269531 13.65625 -16.21875 C 13.789062 -16.164062 14.007812 -16.09375 14.3125 -16 C 14.625 -15.90625 14.863281 -15.84375 15.03125 -15.8125 C 16.03125 -15.507812 16.90625 -15.179688 17.65625 -14.828125 C 18.40625 -14.472656 19.191406 -13.984375 20.015625 -13.359375 C 20.847656 -12.742188 21.492188 -11.960938 21.953125 -11.015625 C 22.410156 -10.078125 22.640625 -9.007812 22.640625 -7.8125 C 22.640625 -2.113281 18.6875 0.734375 10.78125 0.734375 C 8.988281 0.734375 7.285156 0.457031 5.671875 -0.09375 C 4.066406 -0.644531 2.90625 -1.195312 2.1875 -1.75 L 1.125 -2.640625 L 4.640625 -8.53125 C 4.898438 -8.300781 5.238281 -8.03125 5.65625 -7.71875 C 6.082031 -7.414062 6.847656 -6.992188 7.953125 -6.453125 C 9.054688 -5.921875 10.015625 -5.65625 10.828125 -5.65625 C 12.617188 -5.65625 13.515625 -6.257812 13.515625 -7.46875 C 13.515625 -8.019531 13.285156 -8.445312 12.828125 -8.75 C 12.367188 -9.0625 11.59375 -9.410156 10.5 -9.796875 C 9.414062 -10.191406 8.566406 -10.550781 7.953125 -10.875 C 6.390625 -11.6875 5.148438 -12.601562 4.234375 -13.625 C 3.328125 -14.65625 2.875 -16.015625 2.875 -17.703125 C 2.875 -20.242188 3.859375 -22.21875 5.828125 -23.625 C 7.796875 -25.039062 10.457031 -25.75 13.8125 -25.75 Z M 13.8125 -25.75 "/></g></g><g style="fill:#ffde59;fill-opacity:0.5216;"><g transform="translate(324.754718, 87.232769)"><path style="stroke:none" d=""/></g></g><g style="fill:#ffde59;fill-opacity:0.5216;"><g transform="translate(335.633198, 87.232769)"><path style="stroke:none" d="M 2.921875 -40.25 L 14.578125 -40.25 C 20.171875 -40.25 24.953125 -38.335938 28.921875 -34.515625 C 32.890625 -30.691406 34.875 -25.898438 34.875 -20.140625 C 34.875 -14.359375 32.898438 -9.554688 28.953125 -5.734375 C 25.003906 -1.910156 20.210938 0 14.578125 0 L 2.921875 0 Z M 12.09375 -8.1875 L 13.515625 -8.1875 C 16.859375 -8.1875 19.59375 -9.316406 21.71875 -11.578125 C 23.851562 -13.835938 24.9375 -16.675781 24.96875 -20.09375 C 24.96875 -23.507812 23.898438 -26.351562 21.765625 -28.625 C 19.640625 -30.90625 16.890625 -32.046875 13.515625 -32.046875 L 12.09375 -32.046875 Z M 12.09375 -8.1875 "/></g></g><g style="fill:#ffde59;fill-opacity:0.5216;"><g transform="translate(369.195428, 87.232769)"><path style="stroke:none" d="M 28.25 -11.3125 L 10.09375 -11.3125 C 10.09375 -9.5625 10.660156 -8.257812 11.796875 -7.40625 C 12.941406 -6.5625 14.179688 -6.140625 15.515625 -6.140625 C 16.910156 -6.140625 18.015625 -6.328125 18.828125 -6.703125 C 19.640625 -7.078125 20.566406 -7.816406 21.609375 -8.921875 L 27.859375 -5.8125 C 25.253906 -1.445312 20.925781 0.734375 14.875 0.734375 C 11.101562 0.734375 7.867188 -0.554688 5.171875 -3.140625 C 2.472656 -5.734375 1.125 -8.847656 1.125 -12.484375 C 1.125 -16.128906 2.472656 -19.25 5.171875 -21.84375 C 7.867188 -24.445312 11.101562 -25.75 14.875 -25.75 C 18.84375 -25.75 22.070312 -24.601562 24.5625 -22.3125 C 27.050781 -20.019531 28.296875 -16.742188 28.296875 -12.484375 C 28.296875 -11.898438 28.28125 -11.507812 28.25 -11.3125 Z M 10.34375 -16.09375 L 19.859375 -16.09375 C 19.660156 -17.394531 19.144531 -18.394531 18.3125 -19.09375 C 17.488281 -19.789062 16.425781 -20.140625 15.125 -20.140625 C 13.6875 -20.140625 12.546875 -19.765625 11.703125 -19.015625 C 10.859375 -18.273438 10.40625 -17.300781 10.34375 -16.09375 Z M 10.34375 -16.09375 "/></g></g><g style="fill:#ffde59;fill-opacity:0.5216;"><g transform="translate(396.172043, 87.232769)"><path style="stroke:none" d="M 2.921875 0 L 2.921875 -41.953125 L 11.5625 -41.953125 L 11.5625 0 Z M 2.921875 0 "/></g></g><g style="fill:#ffde59;fill-opacity:0.5216;"><g transform="translate(408.221292, 87.232769)"><path style="stroke:none" d="M 3.75 -38.96875 C 4.757812 -39.976562 5.960938 -40.484375 7.359375 -40.484375 C 8.765625 -40.484375 9.96875 -39.976562 10.96875 -38.96875 C 11.976562 -37.96875 12.484375 -36.765625 12.484375 -35.359375 C 12.484375 -33.960938 11.976562 -32.757812 10.96875 -31.75 C 9.96875 -30.75 8.765625 -30.25 7.359375 -30.25 C 5.960938 -30.25 4.757812 -30.75 3.75 -31.75 C 2.75 -32.757812 2.25 -33.960938 2.25 -35.359375 C 2.25 -36.765625 2.75 -37.96875 3.75 -38.96875 Z M 2.921875 -25.03125 L 2.921875 0 L 11.5625 0 L 11.5625 -25.03125 Z M 2.921875 -25.03125 "/></g></g><g style="fill:#ffde59;fill-opacity:0.5216;"><g transform="translate(420.514436, 87.232769)"><path style="stroke:none" d="M 9.265625 -25.03125 L 15.359375 -11.421875 L 21.46875 -25.03125 L 31.703125 -25.03125 L 18.296875 0 L 12.4375 0 L -0.96875 -25.03125 Z M 9.265625 -25.03125 "/></g></g><g style="fill:#ffde59;fill-opacity:0.5216;"><g transform="translate(448.808182, 87.232769)"><path style="stroke:none" d="M 28.25 -11.3125 L 10.09375 -11.3125 C 10.09375 -9.5625 10.660156 -8.257812 11.796875 -7.40625 C 12.941406 -6.5625 14.179688 -6.140625 15.515625 -6.140625 C 16.910156 -6.140625 18.015625 -6.328125 18.828125 -6.703125 C 19.640625 -7.078125 20.566406 -7.816406 21.609375 -8.921875 L 27.859375 -5.8125 C 25.253906 -1.445312 20.925781 0.734375 14.875 0.734375 C 11.101562 0.734375 7.867188 -0.554688 5.171875 -3.140625 C 2.472656 -5.734375 1.125 -8.847656 1.125 -12.484375 C 1.125 -16.128906 2.472656 -19.25 5.171875 -21.84375 C 7.867188 -24.445312 11.101562 -25.75 14.875 -25.75 C 18.84375 -25.75 22.070312 -24.601562 24.5625 -22.3125 C 27.050781 -20.019531 28.296875 -16.742188 28.296875 -12.484375 C 28.296875 -11.898438 28.28125 -11.507812 28.25 -11.3125 Z M 10.34375 -16.09375 L 19.859375 -16.09375 C 19.660156 -17.394531 19.144531 -18.394531 18.3125 -19.09375 C 17.488281 -19.789062 16.425781 -20.140625 15.125 -20.140625 C 13.6875 -20.140625 12.546875 -19.765625 11.703125 -19.015625 C 10.859375 -18.273438 10.40625 -17.300781 10.34375 -16.09375 Z M 10.34375 -16.09375 "/></g></g><g style="fill:#ffde59;fill-opacity:0.5216;"><g transform="translate(475.784797, 87.232769)"><path style="stroke:none" d="M 2.921875 0 L 2.921875 -25.03125 L 11.5625 -25.03125 L 11.5625 -21.421875 L 11.65625 -21.421875 C 11.71875 -21.546875 11.820312 -21.707031 11.96875 -21.90625 C 12.113281 -22.101562 12.429688 -22.441406 12.921875 -22.921875 C 13.410156 -23.410156 13.929688 -23.847656 14.484375 -24.234375 C 15.035156 -24.628906 15.75 -24.976562 16.625 -25.28125 C 17.507812 -25.59375 18.40625 -25.75 19.3125 -25.75 C 20.257812 -25.75 21.1875 -25.617188 22.09375 -25.359375 C 23.007812 -25.097656 23.675781 -24.835938 24.09375 -24.578125 L 24.78125 -24.203125 L 21.171875 -16.875 C 20.097656 -17.789062 18.601562 -18.25 16.6875 -18.25 C 15.644531 -18.25 14.75 -18.019531 14 -17.5625 C 13.25 -17.101562 12.71875 -16.546875 12.40625 -15.890625 C 12.101562 -15.242188 11.882812 -14.691406 11.75 -14.234375 C 11.625 -13.785156 11.5625 -13.429688 11.5625 -13.171875 L 11.5625 0 Z M 2.921875 0 "/></g></g><g style="fill:#ffde59;fill-opacity:0.5216;"><g transform="translate(497.639247, 87.232769)"><path style="stroke:none" d="M 28.25 -11.3125 L 10.09375 -11.3125 C 10.09375 -9.5625 10.660156 -8.257812 11.796875 -7.40625 C 12.941406 -6.5625 14.179688 -6.140625 15.515625 -6.140625 C 16.910156 -6.140625 18.015625 -6.328125 18.828125 -6.703125 C 19.640625 -7.078125 20.566406 -7.816406 21.609375 -8.921875 L 27.859375 -5.8125 C 25.253906 -1.445312 20.925781 0.734375 14.875 0.734375 C 11.101562 0.734375 7.867188 -0.554688 5.171875 -3.140625 C 2.472656 -5.734375 1.125 -8.847656 1.125 -12.484375 C 1.125 -16.128906 2.472656 -19.25 5.171875 -21.84375 C 7.867188 -24.445312 11.101562 -25.75 14.875 -25.75 C 18.84375 -25.75 22.070312 -24.601562 24.5625 -22.3125 C 27.050781 -20.019531 28.296875 -16.742188 28.296875 -12.484375 C 28.296875 -11.898438 28.28125 -11.507812 28.25 -11.3125 Z M 10.34375 -16.09375 L 19.859375 -16.09375 C 19.660156 -17.394531 19.144531 -18.394531 18.3125 -19.09375 C 17.488281 -19.789062 16.425781 -20.140625 15.125 -20.140625 C 13.6875 -20.140625 12.546875 -19.765625 11.703125 -19.015625 C 10.859375 -18.273438 10.40625 -17.300781 10.34375 -16.09375 Z M 10.34375 -16.09375 "/></g></g><g style="fill:#ffde59;fill-opacity:0.5216;"><g transform="translate(524.615904, 87.232769)"><path style="stroke:none" d="M 4.625 -3.09375 C 2.289062 -5.644531 1.125 -8.773438 1.125 -12.484375 C 1.125 -16.191406 2.289062 -19.328125 4.625 -21.890625 C 6.96875 -24.460938 9.945312 -25.75 13.5625 -25.75 C 16.875 -25.75 19.601562 -24.710938 21.75 -22.640625 L 21.75 -41.953125 L 30.390625 -41.953125 L 30.390625 0 L 21.859375 0 L 21.859375 -2.828125 L 21.75 -2.828125 C 19.601562 -0.453125 16.875 0.734375 13.5625 0.734375 C 9.945312 0.734375 6.96875 -0.539062 4.625 -3.09375 Z M 11.96875 -16.734375 C 10.851562 -15.628906 10.296875 -14.210938 10.296875 -12.484375 C 10.296875 -10.765625 10.832031 -9.359375 11.90625 -8.265625 C 12.976562 -7.179688 14.390625 -6.640625 16.140625 -6.640625 C 17.835938 -6.640625 19.226562 -7.191406 20.3125 -8.296875 C 21.40625 -9.398438 21.953125 -10.796875 21.953125 -12.484375 C 21.953125 -14.210938 21.390625 -15.628906 20.265625 -16.734375 C 19.140625 -17.835938 17.765625 -18.390625 16.140625 -18.390625 C 14.484375 -18.390625 13.09375 -17.835938 11.96875 -16.734375 Z M 11.96875 -16.734375 "/></g></g><g style="fill:#ffffff;fill-opacity:1;"><g transform="translate(1.819847, 84.60258)"><path style="stroke:none" d="M 17.703125 -33.21875 C 16.398438 -33.21875 15.15625 -32.570312 13.96875 -31.28125 C 12.78125 -30 11.910156 -28.726562 11.359375 -27.46875 L 10.53125 -25.5625 L 2.875 -29.265625 C 2.976562 -29.585938 3.140625 -30.007812 3.359375 -30.53125 C 3.585938 -31.050781 4.125 -31.984375 4.96875 -33.328125 C 5.820312 -34.679688 6.757812 -35.867188 7.78125 -36.890625 C 8.800781 -37.921875 10.195312 -38.859375 11.96875 -39.703125 C 13.75 -40.546875 15.660156 -40.96875 17.703125 -40.96875 C 20.335938 -40.96875 22.640625 -40.632812 24.609375 -39.96875 C 26.578125 -39.300781 28.097656 -38.472656 29.171875 -37.484375 C 30.242188 -36.492188 31.113281 -35.320312 31.78125 -33.96875 C 32.445312 -32.625 32.867188 -31.398438 33.046875 -30.296875 C 33.222656 -29.191406 33.3125 -28.035156 33.3125 -26.828125 C 33.3125 -25.078125 32.820312 -23.234375 31.84375 -21.296875 C 30.875 -19.359375 29.695312 -17.632812 28.3125 -16.125 C 26.9375 -14.613281 25.546875 -13.226562 24.140625 -11.96875 C 22.742188 -10.71875 21.554688 -9.753906 20.578125 -9.078125 L 19.125 -8.046875 L 34.046875 -8.046875 L 34.046875 0 L 2.6875 0 L 2.6875 -2.296875 C 3.238281 -2.742188 3.984375 -3.363281 4.921875 -4.15625 C 5.867188 -4.957031 7.53125 -6.476562 9.90625 -8.71875 C 12.28125 -10.96875 14.375 -13.078125 16.1875 -15.046875 C 18.007812 -17.015625 19.671875 -19.117188 21.171875 -21.359375 C 22.671875 -23.609375 23.421875 -25.429688 23.421875 -26.828125 C 23.421875 -27.378906 23.363281 -27.929688 23.25 -28.484375 C 23.132812 -29.035156 22.910156 -29.707031 22.578125 -30.5 C 22.253906 -31.300781 21.671875 -31.953125 20.828125 -32.453125 C 19.984375 -32.960938 18.941406 -33.21875 17.703125 -33.21875 Z M 17.703125 -33.21875 "/></g></g><g style="fill:#ffffff;fill-opacity:1;"><g transform="translate(36.113813, 84.60258)"><path style="stroke:none" d="M 1.359375 -20.09375 C 1.359375 -26.726562 2.9375 -31.863281 6.09375 -35.5 C 9.25 -39.144531 13.132812 -40.96875 17.75 -40.96875 C 22.375 -40.96875 26.253906 -39.144531 29.390625 -35.5 C 32.523438 -31.863281 34.09375 -26.726562 34.09375 -20.09375 C 34.09375 -16.488281 33.65625 -13.316406 32.78125 -10.578125 C 31.90625 -7.847656 30.691406 -5.675781 29.140625 -4.0625 C 27.597656 -2.457031 25.875 -1.253906 23.96875 -0.453125 C 22.070312 0.335938 20 0.734375 17.75 0.734375 C 15.507812 0.734375 13.4375 0.335938 11.53125 -0.453125 C 9.632812 -1.253906 7.90625 -2.457031 6.34375 -4.0625 C 4.78125 -5.675781 3.554688 -7.847656 2.671875 -10.578125 C 1.796875 -13.316406 1.359375 -16.488281 1.359375 -20.09375 Z M 10.640625 -20.09375 C 10.640625 -15.832031 11.253906 -12.632812 12.484375 -10.5 C 13.722656 -8.375 15.476562 -7.3125 17.75 -7.3125 C 20 -7.3125 21.738281 -8.375 22.96875 -10.5 C 24.207031 -12.632812 24.828125 -15.832031 24.828125 -20.09375 C 24.828125 -24.164062 24.203125 -27.320312 22.953125 -29.5625 C 21.703125 -31.800781 19.96875 -32.921875 17.75 -32.921875 C 15.539062 -32.921875 13.800781 -31.789062 12.53125 -29.53125 C 11.269531 -27.269531 10.640625 -24.125 10.640625 -20.09375 Z M 10.640625 -20.09375 "/></g></g><g style="fill:#ffffff;fill-opacity:1;"><g transform="translate(69.139441, 84.60258)"><path style="stroke:none" d="M 1.359375 -20.09375 C 1.359375 -26.726562 2.9375 -31.863281 6.09375 -35.5 C 9.25 -39.144531 13.132812 -40.96875 17.75 -40.96875 C 22.375 -40.96875 26.253906 -39.144531 29.390625 -35.5 C 32.523438 -31.863281 34.09375 -26.726562 34.09375 -20.09375 C 34.09375 -16.488281 33.65625 -13.316406 32.78125 -10.578125 C 31.90625 -7.847656 30.691406 -5.675781 29.140625 -4.0625 C 27.597656 -2.457031 25.875 -1.253906 23.96875 -0.453125 C 22.070312 0.335938 20 0.734375 17.75 0.734375 C 15.507812 0.734375 13.4375 0.335938 11.53125 -0.453125 C 9.632812 -1.253906 7.90625 -2.457031 6.34375 -4.0625 C 4.78125 -5.675781 3.554688 -7.847656 2.671875 -10.578125 C 1.796875 -13.316406 1.359375 -16.488281 1.359375 -20.09375 Z M 10.640625 -20.09375 C 10.640625 -15.832031 11.253906 -12.632812 12.484375 -10.5 C 13.722656 -8.375 15.476562 -7.3125 17.75 -7.3125 C 20 -7.3125 21.738281 -8.375 22.96875 -10.5 C 24.207031 -12.632812 24.828125 -15.832031 24.828125 -20.09375 C 24.828125 -24.164062 24.203125 -27.320312 22.953125 -29.5625 C 21.703125 -31.800781 19.96875 -32.921875 17.75 -32.921875 C 15.539062 -32.921875 13.800781 -31.789062 12.53125 -29.53125 C 11.269531 -27.269531 10.640625 -24.125 10.640625 -20.09375 Z M 10.640625 -20.09375 "/></g></g><g style="fill:#ffffff;fill-opacity:1;"><g transform="translate(102.165069, 84.60258)"><path style="stroke:none" d="M 19.171875 -7.703125 L 11.703125 -7.703125 L 11.703125 -16.484375 L 2.921875 -16.484375 L 2.921875 -23.953125 L 11.703125 -23.953125 L 11.703125 -32.734375 L 19.171875 -32.734375 L 19.171875 -23.953125 L 27.953125 -23.953125 L 27.953125 -16.484375 L 19.171875 -16.484375 Z M 19.171875 -7.703125 "/></g></g><g style="fill:#ffffff;fill-opacity:1;"><g transform="translate(130.605156, 84.60258)"><path style="stroke:none" d=""/></g></g><g style="fill:#ffffff;fill-opacity:1;"><g transform="translate(141.483614, 84.60258)"><path style="stroke:none" d="M 2.921875 -40.25 L 17.609375 -40.25 C 21.703125 -40.25 25.015625 -39.191406 27.546875 -37.078125 C 30.085938 -34.960938 31.359375 -31.890625 31.359375 -27.859375 C 31.359375 -23.828125 30.070312 -20.660156 27.5 -18.359375 C 24.9375 -16.066406 21.640625 -14.921875 17.609375 -14.921875 L 12.09375 -14.921875 L 12.09375 0 L 2.921875 0 Z M 12.09375 -22.25 L 14.6875 -22.25 C 16.726562 -22.25 18.40625 -22.660156 19.71875 -23.484375 C 21.039062 -24.316406 21.703125 -25.675781 21.703125 -27.5625 C 21.703125 -29.476562 21.039062 -30.847656 19.71875 -31.671875 C 18.40625 -32.503906 16.726562 -32.921875 14.6875 -32.921875 L 12.09375 -32.921875 Z M 12.09375 -22.25 "/></g></g><g style="fill:#ffffff;fill-opacity:1;"><g transform="translate(171.533526, 84.60258)"><path style="stroke:none" d="M 2.921875 0 L 2.921875 -25.03125 L 11.5625 -25.03125 L 11.5625 -21.421875 L 11.65625 -21.421875 C 11.71875 -21.546875 11.820312 -21.707031 11.96875 -21.90625 C 12.113281 -22.101562 12.429688 -22.441406 12.921875 -22.921875 C 13.410156 -23.410156 13.929688 -23.847656 14.484375 -24.234375 C 15.035156 -24.628906 15.75 -24.976562 16.625 -25.28125 C 17.507812 -25.59375 18.40625 -25.75 19.3125 -25.75 C 20.257812 -25.75 21.1875 -25.617188 22.09375 -25.359375 C 23.007812 -25.097656 23.675781 -24.835938 24.09375 -24.578125 L 24.78125 -24.203125 L 21.171875 -16.875 C 20.097656 -17.789062 18.601562 -18.25 16.6875 -18.25 C 15.644531 -18.25 14.75 -18.019531 14 -17.5625 C 13.25 -17.101562 12.71875 -16.546875 12.40625 -15.890625 C 12.101562 -15.242188 11.882812 -14.691406 11.75 -14.234375 C 11.625 -13.785156 11.5625 -13.429688 11.5625 -13.171875 L 11.5625 0 Z M 2.921875 0 "/></g></g><g style="fill:#ffffff;fill-opacity:1;"><g transform="translate(193.388007, 84.60258)"><path style="stroke:none" d="M 5.296875 -2.96875 C 2.515625 -5.445312 1.125 -8.617188 1.125 -12.484375 C 1.125 -16.359375 2.570312 -19.535156 5.46875 -22.015625 C 8.363281 -24.503906 11.941406 -25.75 16.203125 -25.75 C 20.390625 -25.75 23.921875 -24.5 26.796875 -22 C 29.679688 -19.5 31.125 -16.328125 31.125 -12.484375 C 31.125 -8.648438 29.71875 -5.488281 26.90625 -3 C 24.09375 -0.507812 20.523438 0.734375 16.203125 0.734375 C 11.710938 0.734375 8.078125 -0.5 5.296875 -2.96875 Z M 11.96875 -16.734375 C 10.851562 -15.628906 10.296875 -14.210938 10.296875 -12.484375 C 10.296875 -10.765625 10.832031 -9.359375 11.90625 -8.265625 C 12.976562 -7.179688 14.390625 -6.640625 16.140625 -6.640625 C 17.835938 -6.640625 19.226562 -7.191406 20.3125 -8.296875 C 21.40625 -9.398438 21.953125 -10.796875 21.953125 -12.484375 C 21.953125 -14.210938 21.390625 -15.628906 20.265625 -16.734375 C 19.140625 -17.835938 17.765625 -18.390625 16.140625 -18.390625 C 14.484375 -18.390625 13.09375 -17.835938 11.96875 -16.734375 Z M 11.96875 -16.734375 "/></g></g><g style="fill:#ffffff;fill-opacity:1;"><g transform="translate(223.193992, 84.60258)"><path style="stroke:none" d="M 3.75 -38.96875 C 4.757812 -39.976562 5.960938 -40.484375 7.359375 -40.484375 C 8.765625 -40.484375 9.96875 -39.976562 10.96875 -38.96875 C 11.976562 -37.96875 12.484375 -36.765625 12.484375 -35.359375 C 12.484375 -33.960938 11.976562 -32.757812 10.96875 -31.75 C 9.96875 -30.75 8.765625 -30.25 7.359375 -30.25 C 5.960938 -30.25 4.757812 -30.75 3.75 -31.75 C 2.75 -32.757812 2.25 -33.960938 2.25 -35.359375 C 2.25 -36.765625 2.75 -37.96875 3.75 -38.96875 Z M 2.921875 -25.03125 L 2.921875 2.1875 C 2.921875 4.46875 2.125 5.609375 0.53125 5.609375 C 0.207031 5.609375 -0.128906 5.550781 -0.484375 5.4375 C -0.847656 5.320312 -1.140625 5.203125 -1.359375 5.078125 L -1.65625 4.875 L -4.34375 11.859375 C -4.28125 11.890625 -4.066406 11.984375 -3.703125 12.140625 C -3.347656 12.304688 -3.082031 12.429688 -2.90625 12.515625 C -2.726562 12.597656 -2.425781 12.703125 -2 12.828125 C -1.570312 12.960938 -1.160156 13.0625 -0.765625 13.125 C -0.378906 13.1875 0.101562 13.25 0.6875 13.3125 C 1.269531 13.382812 1.882812 13.421875 2.53125 13.421875 C 4.15625 13.421875 5.585938 13.132812 6.828125 12.5625 C 8.066406 11.988281 9.007812 11.222656 9.65625 10.265625 C 10.3125 9.304688 10.789062 8.296875 11.09375 7.234375 C 11.40625 6.179688 11.5625 5.054688 11.5625 3.859375 L 11.5625 -25.03125 Z M 2.921875 -25.03125 "/></g></g><g style="fill:#ffffff;fill-opacity:1;"><g transform="translate(235.24322, 84.60258)"><path style="stroke:none" d="M 28.25 -11.3125 L 10.09375 -11.3125 C 10.09375 -9.5625 10.660156 -8.257812 11.796875 -7.40625 C 12.941406 -6.5625 14.179688 -6.140625 15.515625 -6.140625 C 16.910156 -6.140625 18.015625 -6.328125 18.828125 -6.703125 C 19.640625 -7.078125 20.566406 -7.816406 21.609375 -8.921875 L 27.859375 -5.8125 C 25.253906 -1.445312 20.925781 0.734375 14.875 0.734375 C 11.101562 0.734375 7.867188 -0.554688 5.171875 -3.140625 C 2.472656 -5.734375 1.125 -8.847656 1.125 -12.484375 C 1.125 -16.128906 2.472656 -19.25 5.171875 -21.84375 C 7.867188 -24.445312 11.101562 -25.75 14.875 -25.75 C 18.84375 -25.75 22.070312 -24.601562 24.5625 -22.3125 C 27.050781 -20.019531 28.296875 -16.742188 28.296875 -12.484375 C 28.296875 -11.898438 28.28125 -11.507812 28.25 -11.3125 Z M 10.34375 -16.09375 L 19.859375 -16.09375 C 19.660156 -17.394531 19.144531 -18.394531 18.3125 -19.09375 C 17.488281 -19.789062 16.425781 -20.140625 15.125 -20.140625 C 13.6875 -20.140625 12.546875 -19.765625 11.703125 -19.015625 C 10.859375 -18.273438 10.40625 -17.300781 10.34375 -16.09375 Z M 10.34375 -16.09375 "/></g></g><g style="fill:#ffffff;fill-opacity:1;"><g transform="translate(262.219856, 84.60258)"><path style="stroke:none" d="M 16.25 -18.6875 C 14.625 -18.6875 13.222656 -18.082031 12.046875 -16.875 C 10.878906 -15.675781 10.296875 -14.226562 10.296875 -12.53125 C 10.296875 -10.8125 10.878906 -9.347656 12.046875 -8.140625 C 13.222656 -6.941406 14.625 -6.34375 16.25 -6.34375 C 17.03125 -6.34375 17.769531 -6.4375 18.46875 -6.625 C 19.164062 -6.820312 19.675781 -7.019531 20 -7.21875 L 20.4375 -7.515625 L 23.359375 -1.515625 C 23.140625 -1.347656 22.828125 -1.140625 22.421875 -0.890625 C 22.015625 -0.648438 21.085938 -0.320312 19.640625 0.09375 C 18.191406 0.519531 16.632812 0.734375 14.96875 0.734375 C 11.300781 0.734375 8.078125 -0.554688 5.296875 -3.140625 C 2.515625 -5.734375 1.125 -8.832031 1.125 -12.4375 C 1.125 -16.082031 2.515625 -19.210938 5.296875 -21.828125 C 8.078125 -24.441406 11.300781 -25.75 14.96875 -25.75 C 16.632812 -25.75 18.164062 -25.550781 19.5625 -25.15625 C 20.957031 -24.769531 21.945312 -24.382812 22.53125 -24 L 23.359375 -23.421875 L 20.4375 -17.515625 C 19.363281 -18.296875 17.96875 -18.6875 16.25 -18.6875 Z M 16.25 -18.6875 "/></g></g><g style="fill:#ffffff;fill-opacity:1;"><g transform="translate(283.732858, 84.60258)"><path style="stroke:none" d="M 4.390625 -25.03125 L 4.390625 -34.34375 L 13.03125 -34.34375 L 13.03125 -25.03125 L 18.296875 -25.03125 L 18.296875 -18.4375 L 13.03125 -18.4375 L 13.03125 -10.484375 C 13.03125 -8.179688 13.675781 -7.03125 14.96875 -7.03125 C 15.300781 -7.03125 15.644531 -7.09375 16 -7.21875 C 16.351562 -7.351562 16.628906 -7.484375 16.828125 -7.609375 L 17.125 -7.8125 L 19.265625 -0.828125 C 17.410156 0.210938 15.296875 0.734375 12.921875 0.734375 C 11.296875 0.734375 9.894531 0.453125 8.71875 -0.109375 C 7.550781 -0.679688 6.664062 -1.445312 6.0625 -2.40625 C 5.46875 -3.375 5.039062 -4.382812 4.78125 -5.4375 C 4.519531 -6.5 4.390625 -7.628906 4.390625 -8.828125 L 4.390625 -18.4375 L 0.78125 -18.4375 L 0.78125 -25.03125 Z M 4.390625 -25.03125 "/></g></g><g style="fill:#ffffff;fill-opacity:1;"><g transform="translate(300.562761, 84.60258)"><path style="stroke:none" d="M 13.8125 -25.75 C 15.238281 -25.75 16.648438 -25.585938 18.046875 -25.265625 C 19.441406 -24.941406 20.484375 -24.617188 21.171875 -24.296875 L 22.203125 -23.8125 L 19.359375 -18.140625 C 17.410156 -19.179688 15.5625 -19.703125 13.8125 -19.703125 C 12.832031 -19.703125 12.140625 -19.597656 11.734375 -19.390625 C 11.328125 -19.179688 11.125 -18.785156 11.125 -18.203125 C 11.125 -18.066406 11.140625 -17.929688 11.171875 -17.796875 C 11.203125 -17.671875 11.265625 -17.550781 11.359375 -17.4375 C 11.460938 -17.320312 11.550781 -17.222656 11.625 -17.140625 C 11.707031 -17.066406 11.847656 -16.976562 12.046875 -16.875 C 12.242188 -16.78125 12.398438 -16.707031 12.515625 -16.65625 C 12.628906 -16.601562 12.816406 -16.53125 13.078125 -16.4375 C 13.335938 -16.34375 13.53125 -16.269531 13.65625 -16.21875 C 13.789062 -16.164062 14.007812 -16.09375 14.3125 -16 C 14.625 -15.90625 14.863281 -15.84375 15.03125 -15.8125 C 16.03125 -15.507812 16.90625 -15.179688 17.65625 -14.828125 C 18.40625 -14.472656 19.191406 -13.984375 20.015625 -13.359375 C 20.847656 -12.742188 21.492188 -11.960938 21.953125 -11.015625 C 22.410156 -10.078125 22.640625 -9.007812 22.640625 -7.8125 C 22.640625 -2.113281 18.6875 0.734375 10.78125 0.734375 C 8.988281 0.734375 7.285156 0.457031 5.671875 -0.09375 C 4.066406 -0.644531 2.90625 -1.195312 2.1875 -1.75 L 1.125 -2.640625 L 4.640625 -8.53125 C 4.898438 -8.300781 5.238281 -8.03125 5.65625 -7.71875 C 6.082031 -7.414062 6.847656 -6.992188 7.953125 -6.453125 C 9.054688 -5.921875 10.015625 -5.65625 10.828125 -5.65625 C 12.617188 -5.65625 13.515625 -6.257812 13.515625 -7.46875 C 13.515625 -8.019531 13.285156 -8.445312 12.828125 -8.75 C 12.367188 -9.0625 11.59375 -9.410156 10.5 -9.796875 C 9.414062 -10.191406 8.566406 -10.550781 7.953125 -10.875 C 6.390625 -11.6875 5.148438 -12.601562 4.234375 -13.625 C 3.328125 -14.65625 2.875 -16.015625 2.875 -17.703125 C 2.875 -20.242188 3.859375 -22.21875 5.828125 -23.625 C 7.796875 -25.039062 10.457031 -25.75 13.8125 -25.75 Z M 13.8125 -25.75 "/></g></g><g style="fill:#ffffff;fill-opacity:1;"><g transform="translate(322.124529, 84.60258)"><path style="stroke:none" d=""/></g></g><g style="fill:#ffffff;fill-opacity:1;"><g transform="translate(333.003009, 84.60258)"><path style="stroke:none" d="M 2.921875 -40.25 L 14.578125 -40.25 C 20.171875 -40.25 24.953125 -38.335938 28.921875 -34.515625 C 32.890625 -30.691406 34.875 -25.898438 34.875 -20.140625 C 34.875 -14.359375 32.898438 -9.554688 28.953125 -5.734375 C 25.003906 -1.910156 20.210938 0 14.578125 0 L 2.921875 0 Z M 12.09375 -8.1875 L 13.515625 -8.1875 C 16.859375 -8.1875 19.59375 -9.316406 21.71875 -11.578125 C 23.851562 -13.835938 24.9375 -16.675781 24.96875 -20.09375 C 24.96875 -23.507812 23.898438 -26.351562 21.765625 -28.625 C 19.640625 -30.90625 16.890625 -32.046875 13.515625 -32.046875 L 12.09375 -32.046875 Z M 12.09375 -8.1875 "/></g></g><g style="fill:#ffffff;fill-opacity:1;"><g transform="translate(366.565239, 84.60258)"><path style="stroke:none" d="M 28.25 -11.3125 L 10.09375 -11.3125 C 10.09375 -9.5625 10.660156 -8.257812 11.796875 -7.40625 C 12.941406 -6.5625 14.179688 -6.140625 15.515625 -6.140625 C 16.910156 -6.140625 18.015625 -6.328125 18.828125 -6.703125 C 19.640625 -7.078125 20.566406 -7.816406 21.609375 -8.921875 L 27.859375 -5.8125 C 25.253906 -1.445312 20.925781 0.734375 14.875 0.734375 C 11.101562 0.734375 7.867188 -0.554688 5.171875 -3.140625 C 2.472656 -5.734375 1.125 -8.847656 1.125 -12.484375 C 1.125 -16.128906 2.472656 -19.25 5.171875 -21.84375 C 7.867188 -24.445312 11.101562 -25.75 14.875 -25.75 C 18.84375 -25.75 22.070312 -24.601562 24.5625 -22.3125 C 27.050781 -20.019531 28.296875 -16.742188 28.296875 -12.484375 C 28.296875 -11.898438 28.28125 -11.507812 28.25 -11.3125 Z M 10.34375 -16.09375 L 19.859375 -16.09375 C 19.660156 -17.394531 19.144531 -18.394531 18.3125 -19.09375 C 17.488281 -19.789062 16.425781 -20.140625 15.125 -20.140625 C 13.6875 -20.140625 12.546875 -19.765625 11.703125 -19.015625 C 10.859375 -18.273438 10.40625 -17.300781 10.34375 -16.09375 Z M 10.34375 -16.09375 "/></g></g><g style="fill:#ffffff;fill-opacity:1;"><g transform="translate(393.541854, 84.60258)"><path style="stroke:none" d="M 2.921875 0 L 2.921875 -41.953125 L 11.5625 -41.953125 L 11.5625 0 Z M 2.921875 0 "/></g></g><g style="fill:#ffffff;fill-opacity:1;"><g transform="translate(405.591103, 84.60258)"><path style="stroke:none" d="M 3.75 -38.96875 C 4.757812 -39.976562 5.960938 -40.484375 7.359375 -40.484375 C 8.765625 -40.484375 9.96875 -39.976562 10.96875 -38.96875 C 11.976562 -37.96875 12.484375 -36.765625 12.484375 -35.359375 C 12.484375 -33.960938 11.976562 -32.757812 10.96875 -31.75 C 9.96875 -30.75 8.765625 -30.25 7.359375 -30.25 C 5.960938 -30.25 4.757812 -30.75 3.75 -31.75 C 2.75 -32.757812 2.25 -33.960938 2.25 -35.359375 C 2.25 -36.765625 2.75 -37.96875 3.75 -38.96875 Z M 2.921875 -25.03125 L 2.921875 0 L 11.5625 0 L 11.5625 -25.03125 Z M 2.921875 -25.03125 "/></g></g><g style="fill:#ffffff;fill-opacity:1;"><g transform="translate(417.884247, 84.60258)"><path style="stroke:none" d="M 9.265625 -25.03125 L 15.359375 -11.421875 L 21.46875 -25.03125 L 31.703125 -25.03125 L 18.296875 0 L 12.4375 0 L -0.96875 -25.03125 Z M 9.265625 -25.03125 "/></g></g><g style="fill:#ffffff;fill-opacity:1;"><g transform="translate(446.177993, 84.60258)"><path style="stroke:none" d="M 28.25 -11.3125 L 10.09375 -11.3125 C 10.09375 -9.5625 10.660156 -8.257812 11.796875 -7.40625 C 12.941406 -6.5625 14.179688 -6.140625 15.515625 -6.140625 C 16.910156 -6.140625 18.015625 -6.328125 18.828125 -6.703125 C 19.640625 -7.078125 20.566406 -7.816406 21.609375 -8.921875 L 27.859375 -5.8125 C 25.253906 -1.445312 20.925781 0.734375 14.875 0.734375 C 11.101562 0.734375 7.867188 -0.554688 5.171875 -3.140625 C 2.472656 -5.734375 1.125 -8.847656 1.125 -12.484375 C 1.125 -16.128906 2.472656 -19.25 5.171875 -21.84375 C 7.867188 -24.445312 11.101562 -25.75 14.875 -25.75 C 18.84375 -25.75 22.070312 -24.601562 24.5625 -22.3125 C 27.050781 -20.019531 28.296875 -16.742188 28.296875 -12.484375 C 28.296875 -11.898438 28.28125 -11.507812 28.25 -11.3125 Z M 10.34375 -16.09375 L 19.859375 -16.09375 C 19.660156 -17.394531 19.144531 -18.394531 18.3125 -19.09375 C 17.488281 -19.789062 16.425781 -20.140625 15.125 -20.140625 C 13.6875 -20.140625 12.546875 -19.765625 11.703125 -19.015625 C 10.859375 -18.273438 10.40625 -17.300781 10.34375 -16.09375 Z M 10.34375 -16.09375 "/></g></g><g style="fill:#ffffff;fill-opacity:1;"><g transform="translate(473.154608, 84.60258)"><path style="stroke:none" d="M 2.921875 0 L 2.921875 -25.03125 L 11.5625 -25.03125 L 11.5625 -21.421875 L 11.65625 -21.421875 C 11.71875 -21.546875 11.820312 -21.707031 11.96875 -21.90625 C 12.113281 -22.101562 12.429688 -22.441406 12.921875 -22.921875 C 13.410156 -23.410156 13.929688 -23.847656 14.484375 -24.234375 C 15.035156 -24.628906 15.75 -24.976562 16.625 -25.28125 C 17.507812 -25.59375 18.40625 -25.75 19.3125 -25.75 C 20.257812 -25.75 21.1875 -25.617188 22.09375 -25.359375 C 23.007812 -25.097656 23.675781 -24.835938 24.09375 -24.578125 L 24.78125 -24.203125 L 21.171875 -16.875 C 20.097656 -17.789062 18.601562 -18.25 16.6875 -18.25 C 15.644531 -18.25 14.75 -18.019531 14 -17.5625 C 13.25 -17.101562 12.71875 -16.546875 12.40625 -15.890625 C 12.101562 -15.242188 11.882812 -14.691406 11.75 -14.234375 C 11.625 -13.785156 11.5625 -13.429688 11.5625 -13.171875 L 11.5625 0 Z M 2.921875 0 "/></g></g><g style="fill:#ffffff;fill-opacity:1;"><g transform="translate(495.009058, 84.60258)"><path style="stroke:none" d="M 28.25 -11.3125 L 10.09375 -11.3125 C 10.09375 -9.5625 10.660156 -8.257812 11.796875 -7.40625 C 12.941406 -6.5625 14.179688 -6.140625 15.515625 -6.140625 C 16.910156 -6.140625 18.015625 -6.328125 18.828125 -6.703125 C 19.640625 -7.078125 20.566406 -7.816406 21.609375 -8.921875 L 27.859375 -5.8125 C 25.253906 -1.445312 20.925781 0.734375 14.875 0.734375 C 11.101562 0.734375 7.867188 -0.554688 5.171875 -3.140625 C 2.472656 -5.734375 1.125 -8.847656 1.125 -12.484375 C 1.125 -16.128906 2.472656 -19.25 5.171875 -21.84375 C 7.867188 -24.445312 11.101562 -25.75 14.875 -25.75 C 18.84375 -25.75 22.070312 -24.601562 24.5625 -22.3125 C 27.050781 -20.019531 28.296875 -16.742188 28.296875 -12.484375 C 28.296875 -11.898438 28.28125 -11.507812 28.25 -11.3125 Z M 10.34375 -16.09375 L 19.859375 -16.09375 C 19.660156 -17.394531 19.144531 -18.394531 18.3125 -19.09375 C 17.488281 -19.789062 16.425781 -20.140625 15.125 -20.140625 C 13.6875 -20.140625 12.546875 -19.765625 11.703125 -19.015625 C 10.859375 -18.273438 10.40625 -17.300781 10.34375 -16.09375 Z M 10.34375 -16.09375 "/></g></g><g style="fill:#ffffff;fill-opacity:1;"><g transform="translate(521.985715, 84.60258)"><path style="stroke:none" d="M 4.625 -3.09375 C 2.289062 -5.644531 1.125 -8.773438 1.125 -12.484375 C 1.125 -16.191406 2.289062 -19.328125 4.625 -21.890625 C 6.96875 -24.460938 9.945312 -25.75 13.5625 -25.75 C 16.875 -25.75 19.601562 -24.710938 21.75 -22.640625 L 21.75 -41.953125 L 30.390625 -41.953125 L 30.390625 0 L 21.859375 0 L 21.859375 -2.828125 L 21.75 -2.828125 C 19.601562 -0.453125 16.875 0.734375 13.5625 0.734375 C 9.945312 0.734375 6.96875 -0.539062 4.625 -3.09375 Z M 11.96875 -16.734375 C 10.851562 -15.628906 10.296875 -14.210938 10.296875 -12.484375 C 10.296875 -10.765625 10.832031 -9.359375 11.90625 -8.265625 C 12.976562 -7.179688 14.390625 -6.640625 16.140625 -6.640625 C 17.835938 -6.640625 19.226562 -7.191406 20.3125 -8.296875 C 21.40625 -9.398438 21.953125 -10.796875 21.953125 -12.484375 C 21.953125 -14.210938 21.390625 -15.628906 20.265625 -16.734375 C 19.140625 -17.835938 17.765625 -18.390625 16.140625 -18.390625 C 14.484375 -18.390625 13.09375 -17.835938 11.96875 -16.734375 Z M 11.96875 -16.734375 "/></g></g></g></svg>