<svg xmlns="http://www.w3.org/2000/svg" xmlns:xlink="http://www.w3.org/1999/xlink" width="750" zoomAndPan="magnify" viewBox="0 0 562.5 135.000003" height="180" preserveAspectRatio="xMidYMid meet" version="1.2"><defs/><g id="3d728c8942"><g style="fill:#ffde59;fill-opacity:0.5216;"><g transform="translate(11.802165, 86.792685)"><path style="stroke:none" d="M 21.84375 -40.984375 C 20.238281 -40.984375 18.703125 -40.1875 17.234375 -38.59375 C 15.773438 -37.007812 14.703125 -35.4375 14.015625 -33.875 L 13 -31.53125 L 3.546875 -36.109375 C 3.671875 -36.503906 3.875 -37.019531 4.15625 -37.65625 C 4.4375 -38.300781 5.097656 -39.457031 6.140625 -41.125 C 7.179688 -42.789062 8.332031 -44.253906 9.59375 -45.515625 C 10.863281 -46.785156 12.585938 -47.941406 14.765625 -48.984375 C 16.953125 -50.023438 19.3125 -50.546875 21.84375 -50.546875 C 25.09375 -50.546875 27.929688 -50.132812 30.359375 -49.3125 C 32.785156 -48.488281 34.660156 -47.460938 35.984375 -46.234375 C 37.304688 -45.015625 38.378906 -43.570312 39.203125 -41.90625 C 40.023438 -40.238281 40.546875 -38.722656 40.765625 -37.359375 C 40.984375 -36.003906 41.09375 -34.582031 41.09375 -33.09375 C 41.09375 -30.925781 40.488281 -28.648438 39.28125 -26.265625 C 38.082031 -23.878906 36.628906 -21.753906 34.921875 -19.890625 C 33.222656 -18.023438 31.507812 -16.316406 29.78125 -14.765625 C 28.0625 -13.222656 26.597656 -12.03125 25.390625 -11.1875 L 23.59375 -9.921875 L 42 -9.921875 L 42 0 L 3.3125 0 L 3.3125 -2.828125 C 3.988281 -3.390625 4.910156 -4.160156 6.078125 -5.140625 C 7.242188 -6.128906 9.289062 -8.003906 12.21875 -10.765625 C 15.144531 -13.535156 17.726562 -16.132812 19.96875 -18.5625 C 22.21875 -20.988281 24.265625 -23.582031 26.109375 -26.34375 C 27.953125 -29.113281 28.875 -31.363281 28.875 -33.09375 C 28.875 -33.78125 28.804688 -34.460938 28.671875 -35.140625 C 28.535156 -35.816406 28.265625 -36.644531 27.859375 -37.625 C 27.460938 -38.613281 26.738281 -39.421875 25.6875 -40.046875 C 24.644531 -40.671875 23.363281 -40.984375 21.84375 -40.984375 Z M 21.84375 -40.984375 "/></g></g><g style="fill:#ffde59;fill-opacity:0.5216;"><g transform="translate(54.097579, 86.792685)"><path style="stroke:none" d="M 1.6875 -24.796875 C 1.6875 -32.972656 3.628906 -39.304688 7.515625 -43.796875 C 11.410156 -48.296875 16.207031 -50.546875 21.90625 -50.546875 C 27.601562 -50.546875 32.382812 -48.296875 36.25 -43.796875 C 40.125 -39.304688 42.0625 -32.972656 42.0625 -24.796875 C 42.0625 -20.335938 41.519531 -16.421875 40.4375 -13.046875 C 39.351562 -9.679688 37.859375 -7.003906 35.953125 -5.015625 C 34.046875 -3.035156 31.914062 -1.550781 29.5625 -0.5625 C 27.21875 0.414062 24.660156 0.90625 21.890625 0.90625 C 19.128906 0.90625 16.570312 0.414062 14.21875 -0.5625 C 11.875 -1.550781 9.738281 -3.035156 7.8125 -5.015625 C 5.894531 -7.003906 4.394531 -9.679688 3.3125 -13.046875 C 2.226562 -16.421875 1.6875 -20.335938 1.6875 -24.796875 Z M 13.125 -24.796875 C 13.125 -19.535156 13.882812 -15.59375 15.40625 -12.96875 C 16.925781 -10.34375 19.09375 -9.03125 21.90625 -9.03125 C 24.664062 -9.03125 26.804688 -10.34375 28.328125 -12.96875 C 29.859375 -15.59375 30.625 -19.535156 30.625 -24.796875 C 30.625 -29.804688 29.851562 -33.691406 28.3125 -36.453125 C 26.769531 -39.222656 24.632812 -40.609375 21.90625 -40.609375 C 19.175781 -40.609375 17.03125 -39.210938 15.46875 -36.421875 C 13.90625 -33.640625 13.125 -29.765625 13.125 -24.796875 Z M 13.125 -24.796875 "/></g></g><g style="fill:#ffde59;fill-opacity:0.5216;"><g transform="translate(94.828726, 86.792685)"><path style="stroke:none" d="M 23.640625 -9.5 L 14.4375 -9.5 L 14.4375 -20.34375 L 3.609375 -20.34375 L 3.609375 -29.546875 L 14.4375 -29.546875 L 14.4375 -40.375 L 23.640625 -40.375 L 23.640625 -29.546875 L 34.484375 -29.546875 L 34.484375 -20.34375 L 23.640625 -20.34375 Z M 23.640625 -9.5 "/></g></g><g style="fill:#ffde59;fill-opacity:0.5216;"><g transform="translate(129.904444, 86.792685)"><path style="stroke:none" d=""/></g></g><g style="fill:#ffde59;fill-opacity:0.5216;"><g transform="translate(143.321058, 86.792685)"><path style="stroke:none" d="M 44.640625 0 L 42.296875 -29.421875 L 42 -29.421875 L 31.828125 -0.296875 L 25.09375 -0.296875 L 14.921875 -29.421875 L 14.625 -29.421875 L 12.28125 0 L 0.96875 0 L 5.421875 -49.640625 L 17.453125 -49.640625 L 28.46875 -21 L 39.46875 -49.640625 L 51.5 -49.640625 L 55.953125 0 Z M 44.640625 0 "/></g></g><g style="fill:#ffde59;fill-opacity:0.5216;"><g transform="translate(197.228158, 86.792685)"><path style="stroke:none" d="M 19.140625 0 L -1.6875 -49.640625 L 11.078125 -49.640625 L 23.59375 -17.03125 L 36.109375 -49.640625 L 48.859375 -49.640625 L 28.046875 0 Z M 19.140625 0 "/></g></g><g style="fill:#ffde59;fill-opacity:0.5216;"><g transform="translate(241.388659, 86.792685)"><path style="stroke:none" d="M 3.609375 -49.640625 L 21.71875 -49.640625 C 26.769531 -49.640625 30.859375 -48.332031 33.984375 -45.71875 C 37.117188 -43.113281 38.6875 -39.320312 38.6875 -34.34375 C 38.6875 -29.375 37.101562 -25.472656 33.9375 -22.640625 C 30.769531 -19.816406 26.695312 -18.40625 21.71875 -18.40625 L 14.921875 -18.40625 L 14.921875 0 L 3.609375 0 Z M 14.921875 -27.4375 L 18.109375 -27.4375 C 20.640625 -27.4375 22.71875 -27.945312 24.34375 -28.96875 C 25.96875 -29.988281 26.78125 -31.664062 26.78125 -34 C 26.78125 -36.363281 25.96875 -38.054688 24.34375 -39.078125 C 22.71875 -40.097656 20.640625 -40.609375 18.109375 -40.609375 L 14.921875 -40.609375 Z M 14.921875 -27.4375 "/></g></g><g style="fill:#ffde59;fill-opacity:0.5216;"><g transform="translate(278.449784, 86.792685)"><path style="stroke:none" d="M 17.03125 -31.765625 C 18.789062 -31.765625 20.53125 -31.5625 22.25 -31.15625 C 23.976562 -30.757812 25.265625 -30.363281 26.109375 -29.96875 L 27.375 -29.359375 L 23.890625 -22.390625 C 21.484375 -23.671875 19.195312 -24.3125 17.03125 -24.3125 C 15.820312 -24.3125 14.96875 -24.179688 14.46875 -23.921875 C 13.96875 -23.660156 13.71875 -23.164062 13.71875 -22.4375 C 13.71875 -22.28125 13.738281 -22.117188 13.78125 -21.953125 C 13.820312 -21.796875 13.898438 -21.644531 14.015625 -21.5 C 14.140625 -21.363281 14.25 -21.242188 14.34375 -21.140625 C 14.445312 -21.046875 14.617188 -20.9375 14.859375 -20.8125 C 15.097656 -20.695312 15.285156 -20.609375 15.421875 -20.546875 C 15.566406 -20.484375 15.800781 -20.390625 16.125 -20.265625 C 16.445312 -20.148438 16.6875 -20.0625 16.84375 -20 C 17.007812 -19.945312 17.28125 -19.859375 17.65625 -19.734375 C 18.039062 -19.617188 18.332031 -19.539062 18.53125 -19.5 C 19.769531 -19.132812 20.851562 -18.726562 21.78125 -18.28125 C 22.707031 -17.84375 23.679688 -17.242188 24.703125 -16.484375 C 25.722656 -15.722656 26.515625 -14.757812 27.078125 -13.59375 C 27.640625 -12.4375 27.921875 -11.113281 27.921875 -9.625 C 27.921875 -2.601562 23.046875 0.90625 13.296875 0.90625 C 11.085938 0.90625 8.988281 0.566406 7 -0.109375 C 5.019531 -0.796875 3.585938 -1.484375 2.703125 -2.171875 L 1.390625 -3.25 L 5.71875 -10.53125 C 6.039062 -10.25 6.460938 -9.914062 6.984375 -9.53125 C 7.503906 -9.15625 8.445312 -8.632812 9.8125 -7.96875 C 11.175781 -7.3125 12.359375 -6.984375 13.359375 -6.984375 C 15.566406 -6.984375 16.671875 -7.722656 16.671875 -9.203125 C 16.671875 -9.890625 16.390625 -10.421875 15.828125 -10.796875 C 15.265625 -11.179688 14.3125 -11.613281 12.96875 -12.09375 C 11.625 -12.570312 10.570312 -13.015625 9.8125 -13.421875 C 7.882812 -14.421875 6.359375 -15.550781 5.234375 -16.8125 C 4.109375 -18.082031 3.546875 -19.757812 3.546875 -21.84375 C 3.546875 -24.96875 4.757812 -27.398438 7.1875 -29.140625 C 9.613281 -30.890625 12.894531 -31.765625 17.03125 -31.765625 Z M 17.03125 -31.765625 "/></g></g><g style="fill:#ffde59;fill-opacity:0.5216;"><g transform="translate(305.042358, 86.792685)"><path style="stroke:none" d=""/></g></g><g style="fill:#ffde59;fill-opacity:0.5216;"><g transform="translate(318.458972, 86.792685)"><path style="stroke:none" d="M 21.90625 -50.546875 C 24.59375 -50.546875 27.21875 -50.15625 29.78125 -49.375 C 32.351562 -48.59375 34.257812 -47.816406 35.5 -47.046875 L 37.3125 -45.84375 L 32.734375 -36.828125 C 32.367188 -37.066406 31.863281 -37.375 31.21875 -37.75 C 30.582031 -38.132812 29.378906 -38.644531 27.609375 -39.28125 C 25.847656 -39.925781 24.207031 -40.25 22.6875 -40.25 C 20.800781 -40.25 19.34375 -39.847656 18.3125 -39.046875 C 17.289062 -38.242188 16.78125 -37.160156 16.78125 -35.796875 C 16.78125 -35.117188 17.019531 -34.488281 17.5 -33.90625 C 17.988281 -33.320312 18.8125 -32.695312 19.96875 -32.03125 C 21.132812 -31.375 22.160156 -30.84375 23.046875 -30.4375 C 23.929688 -30.039062 25.296875 -29.441406 27.140625 -28.640625 C 30.347656 -27.273438 33.082031 -25.421875 35.34375 -23.078125 C 37.613281 -20.734375 38.75 -18.078125 38.75 -15.109375 C 38.75 -12.253906 38.238281 -9.765625 37.21875 -7.640625 C 36.195312 -5.515625 34.789062 -3.847656 33 -2.640625 C 31.21875 -1.441406 29.242188 -0.550781 27.078125 0.03125 C 24.910156 0.613281 22.5625 0.90625 20.03125 0.90625 C 17.863281 0.90625 15.738281 0.679688 13.65625 0.234375 C 11.570312 -0.203125 9.828125 -0.75 8.421875 -1.40625 C 7.015625 -2.070312 5.75 -2.722656 4.625 -3.359375 C 3.507812 -4.003906 2.691406 -4.550781 2.171875 -5 L 1.390625 -5.65625 L 7.046875 -15.15625 C 7.523438 -14.757812 8.1875 -14.25 9.03125 -13.625 C 9.875 -13.007812 11.367188 -12.175781 13.515625 -11.125 C 15.660156 -10.082031 17.550781 -9.5625 19.1875 -9.5625 C 23.96875 -9.5625 26.359375 -11.1875 26.359375 -14.4375 C 26.359375 -15.125 26.1875 -15.753906 25.84375 -16.328125 C 25.5 -16.910156 24.894531 -17.492188 24.03125 -18.078125 C 23.175781 -18.660156 22.414062 -19.125 21.75 -19.46875 C 21.09375 -19.8125 20.007812 -20.332031 18.5 -21.03125 C 17 -21.726562 15.882812 -22.257812 15.15625 -22.625 C 12.15625 -24.101562 9.832031 -25.957031 8.1875 -28.1875 C 6.539062 -30.414062 5.71875 -32.8125 5.71875 -35.375 C 5.71875 -39.832031 7.359375 -43.472656 10.640625 -46.296875 C 13.929688 -49.128906 17.6875 -50.546875 21.90625 -50.546875 Z M 21.90625 -50.546875 "/></g></g><g style="fill:#ffde59;fill-opacity:0.5216;"><g transform="translate(355.881094, 86.792685)"><path style="stroke:none" d="M 3.609375 0 L 3.609375 -51.75 L 14.265625 -51.75 L 14.265625 -27.625 L 14.375 -27.625 C 17.144531 -30.382812 20.09375 -31.765625 23.21875 -31.765625 C 24.75 -31.765625 26.265625 -31.5625 27.765625 -31.15625 C 29.273438 -30.757812 30.71875 -30.140625 32.09375 -29.296875 C 33.476562 -28.460938 34.601562 -27.269531 35.46875 -25.71875 C 36.332031 -24.175781 36.765625 -22.382812 36.765625 -20.34375 L 36.765625 0 L 26.109375 0 L 26.109375 -17.453125 C 26.109375 -19.054688 25.597656 -20.457031 24.578125 -21.65625 C 23.554688 -22.863281 22.222656 -23.46875 20.578125 -23.46875 C 18.972656 -23.46875 17.519531 -22.84375 16.21875 -21.59375 C 14.914062 -20.351562 14.265625 -18.972656 14.265625 -17.453125 L 14.265625 0 Z M 3.609375 0 "/></g></g><g style="fill:#ffde59;fill-opacity:0.5216;"><g transform="translate(392.641419, 86.792685)"><path style="stroke:none" d="M 4.625 -48.078125 C 5.875 -49.316406 7.359375 -49.9375 9.078125 -49.9375 C 10.804688 -49.9375 12.289062 -49.316406 13.53125 -48.078125 C 14.78125 -46.835938 15.40625 -45.351562 15.40625 -43.625 C 15.40625 -41.894531 14.78125 -40.410156 13.53125 -39.171875 C 12.289062 -37.929688 10.804688 -37.3125 9.078125 -37.3125 C 7.359375 -37.3125 5.875 -37.929688 4.625 -39.171875 C 3.382812 -40.410156 2.765625 -41.894531 2.765625 -43.625 C 2.765625 -45.351562 3.382812 -46.835938 4.625 -48.078125 Z M 3.609375 -30.875 L 3.609375 0 L 14.265625 0 L 14.265625 -30.875 Z M 3.609375 -30.875 "/></g></g><g style="fill:#ffde59;fill-opacity:0.5216;"><g transform="translate(407.802792, 86.792685)"><path style="stroke:none" d="M 35.375 -27.046875 C 38.269531 -23.898438 39.71875 -20.039062 39.71875 -15.46875 C 39.71875 -10.894531 38.269531 -7.019531 35.375 -3.84375 C 32.488281 -0.675781 28.820312 0.90625 24.375 0.90625 C 20.28125 0.90625 16.910156 -0.378906 14.265625 -2.953125 L 14.265625 15.640625 L 3.609375 15.640625 L 3.609375 -30.875 L 14.140625 -30.875 L 14.140625 -27.375 L 14.265625 -27.375 C 16.910156 -30.300781 20.28125 -31.765625 24.375 -31.765625 C 28.820312 -31.765625 32.488281 -30.191406 35.375 -27.046875 Z M 26.328125 -10.234375 C 27.710938 -11.597656 28.40625 -13.34375 28.40625 -15.46875 C 28.40625 -17.59375 27.742188 -19.328125 26.421875 -20.671875 C 25.097656 -22.015625 23.351562 -22.6875 21.1875 -22.6875 C 19.09375 -22.6875 17.375 -22.003906 16.03125 -20.640625 C 14.6875 -19.273438 14.015625 -17.550781 14.015625 -15.46875 C 14.015625 -13.34375 14.707031 -11.597656 16.09375 -10.234375 C 17.476562 -8.867188 19.175781 -8.1875 21.1875 -8.1875 C 23.226562 -8.1875 24.941406 -8.867188 26.328125 -10.234375 Z M 26.328125 -10.234375 "/></g></g><g style="fill:#ffde59;fill-opacity:0.5216;"><g transform="translate(445.88671, 86.792685)"><path style="stroke:none" d="M 35.375 -27.046875 C 38.269531 -23.898438 39.71875 -20.039062 39.71875 -15.46875 C 39.71875 -10.894531 38.269531 -7.019531 35.375 -3.84375 C 32.488281 -0.675781 28.820312 0.90625 24.375 0.90625 C 20.28125 0.90625 16.910156 -0.378906 14.265625 -2.953125 L 14.265625 15.640625 L 3.609375 15.640625 L 3.609375 -30.875 L 14.140625 -30.875 L 14.140625 -27.375 L 14.265625 -27.375 C 16.910156 -30.300781 20.28125 -31.765625 24.375 -31.765625 C 28.820312 -31.765625 32.488281 -30.191406 35.375 -27.046875 Z M 26.328125 -10.234375 C 27.710938 -11.597656 28.40625 -13.34375 28.40625 -15.46875 C 28.40625 -17.59375 27.742188 -19.328125 26.421875 -20.671875 C 25.097656 -22.015625 23.351562 -22.6875 21.1875 -22.6875 C 19.09375 -22.6875 17.375 -22.003906 16.03125 -20.640625 C 14.6875 -19.273438 14.015625 -17.550781 14.015625 -15.46875 C 14.015625 -13.34375 14.707031 -11.597656 16.09375 -10.234375 C 17.476562 -8.867188 19.175781 -8.1875 21.1875 -8.1875 C 23.226562 -8.1875 24.941406 -8.867188 26.328125 -10.234375 Z M 26.328125 -10.234375 "/></g></g><g style="fill:#ffde59;fill-opacity:0.5216;"><g transform="translate(483.970653, 86.792685)"><path style="stroke:none" d="M 34.84375 -13.953125 L 12.453125 -13.953125 C 12.453125 -11.785156 13.15625 -10.179688 14.5625 -9.140625 C 15.96875 -8.097656 17.492188 -7.578125 19.140625 -7.578125 C 20.859375 -7.578125 22.21875 -7.804688 23.21875 -8.265625 C 24.226562 -8.734375 25.375 -9.648438 26.65625 -11.015625 L 34.359375 -7.15625 C 31.148438 -1.78125 25.816406 0.90625 18.359375 0.90625 C 13.703125 0.90625 9.707031 -0.6875 6.375 -3.875 C 3.050781 -7.070312 1.390625 -10.914062 1.390625 -15.40625 C 1.390625 -19.894531 3.050781 -23.742188 6.375 -26.953125 C 9.707031 -30.160156 13.703125 -31.765625 18.359375 -31.765625 C 23.242188 -31.765625 27.222656 -30.347656 30.296875 -27.515625 C 33.367188 -24.691406 34.90625 -20.65625 34.90625 -15.40625 C 34.90625 -14.6875 34.882812 -14.203125 34.84375 -13.953125 Z M 12.75 -19.859375 L 24.484375 -19.859375 C 24.242188 -21.460938 23.613281 -22.691406 22.59375 -23.546875 C 21.570312 -24.410156 20.257812 -24.84375 18.65625 -24.84375 C 16.882812 -24.84375 15.476562 -24.378906 14.4375 -23.453125 C 13.394531 -22.535156 12.832031 -21.335938 12.75 -19.859375 Z M 12.75 -19.859375 "/></g></g><g style="fill:#ffde59;fill-opacity:0.5216;"><g transform="translate(517.241435, 86.792685)"><path style="stroke:none" d="M 5.71875 -3.8125 C 2.832031 -6.96875 1.390625 -10.832031 1.390625 -15.40625 C 1.390625 -19.976562 2.832031 -23.847656 5.71875 -27.015625 C 8.601562 -30.179688 12.273438 -31.765625 16.734375 -31.765625 C 20.816406 -31.765625 24.1875 -30.484375 26.84375 -27.921875 L 26.84375 -51.75 L 37.484375 -51.75 L 37.484375 0 L 26.953125 0 L 26.953125 -3.484375 L 26.84375 -3.484375 C 24.1875 -0.554688 20.816406 0.90625 16.734375 0.90625 C 12.273438 0.90625 8.601562 -0.664062 5.71875 -3.8125 Z M 14.765625 -20.640625 C 13.390625 -19.273438 12.703125 -17.53125 12.703125 -15.40625 C 12.703125 -13.28125 13.363281 -11.546875 14.6875 -10.203125 C 16.007812 -8.859375 17.753906 -8.1875 19.921875 -8.1875 C 22.003906 -8.1875 23.71875 -8.867188 25.0625 -10.234375 C 26.40625 -11.597656 27.078125 -13.320312 27.078125 -15.40625 C 27.078125 -17.53125 26.382812 -19.273438 25 -20.640625 C 23.613281 -22.003906 21.921875 -22.6875 19.921875 -22.6875 C 17.867188 -22.6875 16.148438 -22.003906 14.765625 -20.640625 Z M 14.765625 -20.640625 "/></g></g><g style="fill:#ffffff;fill-opacity:1;"><g transform="translate(8.558302, 83.548824)"><path style="stroke:none" d="M 21.84375 -40.984375 C 20.238281 -40.984375 18.703125 -40.1875 17.234375 -38.59375 C 15.773438 -37.007812 14.703125 -35.4375 14.015625 -33.875 L 13 -31.53125 L 3.546875 -36.109375 C 3.671875 -36.503906 3.875 -37.019531 4.15625 -37.65625 C 4.4375 -38.300781 5.097656 -39.457031 6.140625 -41.125 C 7.179688 -42.789062 8.332031 -44.253906 9.59375 -45.515625 C 10.863281 -46.785156 12.585938 -47.941406 14.765625 -48.984375 C 16.953125 -50.023438 19.3125 -50.546875 21.84375 -50.546875 C 25.09375 -50.546875 27.929688 -50.132812 30.359375 -49.3125 C 32.785156 -48.488281 34.660156 -47.460938 35.984375 -46.234375 C 37.304688 -45.015625 38.378906 -43.570312 39.203125 -41.90625 C 40.023438 -40.238281 40.546875 -38.722656 40.765625 -37.359375 C 40.984375 -36.003906 41.09375 -34.582031 41.09375 -33.09375 C 41.09375 -30.925781 40.488281 -28.648438 39.28125 -26.265625 C 38.082031 -23.878906 36.628906 -21.753906 34.921875 -19.890625 C 33.222656 -18.023438 31.507812 -16.316406 29.78125 -14.765625 C 28.0625 -13.222656 26.597656 -12.03125 25.390625 -11.1875 L 23.59375 -9.921875 L 42 -9.921875 L 42 0 L 3.3125 0 L 3.3125 -2.828125 C 3.988281 -3.390625 4.910156 -4.160156 6.078125 -5.140625 C 7.242188 -6.128906 9.289062 -8.003906 12.21875 -10.765625 C 15.144531 -13.535156 17.726562 -16.132812 19.96875 -18.5625 C 22.21875 -20.988281 24.265625 -23.582031 26.109375 -26.34375 C 27.953125 -29.113281 28.875 -31.363281 28.875 -33.09375 C 28.875 -33.78125 28.804688 -34.460938 28.671875 -35.140625 C 28.535156 -35.816406 28.265625 -36.644531 27.859375 -37.625 C 27.460938 -38.613281 26.738281 -39.421875 25.6875 -40.046875 C 24.644531 -40.671875 23.363281 -40.984375 21.84375 -40.984375 Z M 21.84375 -40.984375 "/></g></g><g style="fill:#ffffff;fill-opacity:1;"><g transform="translate(50.853716, 83.548824)"><path style="stroke:none" d="M 1.6875 -24.796875 C 1.6875 -32.972656 3.628906 -39.304688 7.515625 -43.796875 C 11.410156 -48.296875 16.207031 -50.546875 21.90625 -50.546875 C 27.601562 -50.546875 32.382812 -48.296875 36.25 -43.796875 C 40.125 -39.304688 42.0625 -32.972656 42.0625 -24.796875 C 42.0625 -20.335938 41.519531 -16.421875 40.4375 -13.046875 C 39.351562 -9.679688 37.859375 -7.003906 35.953125 -5.015625 C 34.046875 -3.035156 31.914062 -1.550781 29.5625 -0.5625 C 27.21875 0.414062 24.660156 0.90625 21.890625 0.90625 C 19.128906 0.90625 16.570312 0.414062 14.21875 -0.5625 C 11.875 -1.550781 9.738281 -3.035156 7.8125 -5.015625 C 5.894531 -7.003906 4.394531 -9.679688 3.3125 -13.046875 C 2.226562 -16.421875 1.6875 -20.335938 1.6875 -24.796875 Z M 13.125 -24.796875 C 13.125 -19.535156 13.882812 -15.59375 15.40625 -12.96875 C 16.925781 -10.34375 19.09375 -9.03125 21.90625 -9.03125 C 24.664062 -9.03125 26.804688 -10.34375 28.328125 -12.96875 C 29.859375 -15.59375 30.625 -19.535156 30.625 -24.796875 C 30.625 -29.804688 29.851562 -33.691406 28.3125 -36.453125 C 26.769531 -39.222656 24.632812 -40.609375 21.90625 -40.609375 C 19.175781 -40.609375 17.03125 -39.210938 15.46875 -36.421875 C 13.90625 -33.640625 13.125 -29.765625 13.125 -24.796875 Z M 13.125 -24.796875 "/></g></g><g style="fill:#ffffff;fill-opacity:1;"><g transform="translate(91.584863, 83.548824)"><path style="stroke:none" d="M 23.640625 -9.5 L 14.4375 -9.5 L 14.4375 -20.34375 L 3.609375 -20.34375 L 3.609375 -29.546875 L 14.4375 -29.546875 L 14.4375 -40.375 L 23.640625 -40.375 L 23.640625 -29.546875 L 34.484375 -29.546875 L 34.484375 -20.34375 L 23.640625 -20.34375 Z M 23.640625 -9.5 "/></g></g><g style="fill:#ffffff;fill-opacity:1;"><g transform="translate(126.660581, 83.548824)"><path style="stroke:none" d=""/></g></g><g style="fill:#ffffff;fill-opacity:1;"><g transform="translate(140.077195, 83.548824)"><path style="stroke:none" d="M 44.640625 0 L 42.296875 -29.421875 L 42 -29.421875 L 31.828125 -0.296875 L 25.09375 -0.296875 L 14.921875 -29.421875 L 14.625 -29.421875 L 12.28125 0 L 0.96875 0 L 5.421875 -49.640625 L 17.453125 -49.640625 L 28.46875 -21 L 39.46875 -49.640625 L 51.5 -49.640625 L 55.953125 0 Z M 44.640625 0 "/></g></g><g style="fill:#ffffff;fill-opacity:1;"><g transform="translate(193.984295, 83.548824)"><path style="stroke:none" d="M 19.140625 0 L -1.6875 -49.640625 L 11.078125 -49.640625 L 23.59375 -17.03125 L 36.109375 -49.640625 L 48.859375 -49.640625 L 28.046875 0 Z M 19.140625 0 "/></g></g><g style="fill:#ffffff;fill-opacity:1;"><g transform="translate(238.144796, 83.548824)"><path style="stroke:none" d="M 3.609375 -49.640625 L 21.71875 -49.640625 C 26.769531 -49.640625 30.859375 -48.332031 33.984375 -45.71875 C 37.117188 -43.113281 38.6875 -39.320312 38.6875 -34.34375 C 38.6875 -29.375 37.101562 -25.472656 33.9375 -22.640625 C 30.769531 -19.816406 26.695312 -18.40625 21.71875 -18.40625 L 14.921875 -18.40625 L 14.921875 0 L 3.609375 0 Z M 14.921875 -27.4375 L 18.109375 -27.4375 C 20.640625 -27.4375 22.71875 -27.945312 24.34375 -28.96875 C 25.96875 -29.988281 26.78125 -31.664062 26.78125 -34 C 26.78125 -36.363281 25.96875 -38.054688 24.34375 -39.078125 C 22.71875 -40.097656 20.640625 -40.609375 18.109375 -40.609375 L 14.921875 -40.609375 Z M 14.921875 -27.4375 "/></g></g><g style="fill:#ffffff;fill-opacity:1;"><g transform="translate(275.205921, 83.548824)"><path style="stroke:none" d="M 17.03125 -31.765625 C 18.789062 -31.765625 20.53125 -31.5625 22.25 -31.15625 C 23.976562 -30.757812 25.265625 -30.363281 26.109375 -29.96875 L 27.375 -29.359375 L 23.890625 -22.390625 C 21.484375 -23.671875 19.195312 -24.3125 17.03125 -24.3125 C 15.820312 -24.3125 14.96875 -24.179688 14.46875 -23.921875 C 13.96875 -23.660156 13.71875 -23.164062 13.71875 -22.4375 C 13.71875 -22.28125 13.738281 -22.117188 13.78125 -21.953125 C 13.820312 -21.796875 13.898438 -21.644531 14.015625 -21.5 C 14.140625 -21.363281 14.25 -21.242188 14.34375 -21.140625 C 14.445312 -21.046875 14.617188 -20.9375 14.859375 -20.8125 C 15.097656 -20.695312 15.285156 -20.609375 15.421875 -20.546875 C 15.566406 -20.484375 15.800781 -20.390625 16.125 -20.265625 C 16.445312 -20.148438 16.6875 -20.0625 16.84375 -20 C 17.007812 -19.945312 17.28125 -19.859375 17.65625 -19.734375 C 18.039062 -19.617188 18.332031 -19.539062 18.53125 -19.5 C 19.769531 -19.132812 20.851562 -18.726562 21.78125 -18.28125 C 22.707031 -17.84375 23.679688 -17.242188 24.703125 -16.484375 C 25.722656 -15.722656 26.515625 -14.757812 27.078125 -13.59375 C 27.640625 -12.4375 27.921875 -11.113281 27.921875 -9.625 C 27.921875 -2.601562 23.046875 0.90625 13.296875 0.90625 C 11.085938 0.90625 8.988281 0.566406 7 -0.109375 C 5.019531 -0.796875 3.585938 -1.484375 2.703125 -2.171875 L 1.390625 -3.25 L 5.71875 -10.53125 C 6.039062 -10.25 6.460938 -9.914062 6.984375 -9.53125 C 7.503906 -9.15625 8.445312 -8.632812 9.8125 -7.96875 C 11.175781 -7.3125 12.359375 -6.984375 13.359375 -6.984375 C 15.566406 -6.984375 16.671875 -7.722656 16.671875 -9.203125 C 16.671875 -9.890625 16.390625 -10.421875 15.828125 -10.796875 C 15.265625 -11.179688 14.3125 -11.613281 12.96875 -12.09375 C 11.625 -12.570312 10.570312 -13.015625 9.8125 -13.421875 C 7.882812 -14.421875 6.359375 -15.550781 5.234375 -16.8125 C 4.109375 -18.082031 3.546875 -19.757812 3.546875 -21.84375 C 3.546875 -24.96875 4.757812 -27.398438 7.1875 -29.140625 C 9.613281 -30.890625 12.894531 -31.765625 17.03125 -31.765625 Z M 17.03125 -31.765625 "/></g></g><g style="fill:#ffffff;fill-opacity:1;"><g transform="translate(301.798495, 83.548824)"><path style="stroke:none" d=""/></g></g><g style="fill:#ffffff;fill-opacity:1;"><g transform="translate(315.215109, 83.548824)"><path style="stroke:none" d="M 21.90625 -50.546875 C 24.59375 -50.546875 27.21875 -50.15625 29.78125 -49.375 C 32.351562 -48.59375 34.257812 -47.816406 35.5 -47.046875 L 37.3125 -45.84375 L 32.734375 -36.828125 C 32.367188 -37.066406 31.863281 -37.375 31.21875 -37.75 C 30.582031 -38.132812 29.378906 -38.644531 27.609375 -39.28125 C 25.847656 -39.925781 24.207031 -40.25 22.6875 -40.25 C 20.800781 -40.25 19.34375 -39.847656 18.3125 -39.046875 C 17.289062 -38.242188 16.78125 -37.160156 16.78125 -35.796875 C 16.78125 -35.117188 17.019531 -34.488281 17.5 -33.90625 C 17.988281 -33.320312 18.8125 -32.695312 19.96875 -32.03125 C 21.132812 -31.375 22.160156 -30.84375 23.046875 -30.4375 C 23.929688 -30.039062 25.296875 -29.441406 27.140625 -28.640625 C 30.347656 -27.273438 33.082031 -25.421875 35.34375 -23.078125 C 37.613281 -20.734375 38.75 -18.078125 38.75 -15.109375 C 38.75 -12.253906 38.238281 -9.765625 37.21875 -7.640625 C 36.195312 -5.515625 34.789062 -3.847656 33 -2.640625 C 31.21875 -1.441406 29.242188 -0.550781 27.078125 0.03125 C 24.910156 0.613281 22.5625 0.90625 20.03125 0.90625 C 17.863281 0.90625 15.738281 0.679688 13.65625 0.234375 C 11.570312 -0.203125 9.828125 -0.75 8.421875 -1.40625 C 7.015625 -2.070312 5.75 -2.722656 4.625 -3.359375 C 3.507812 -4.003906 2.691406 -4.550781 2.171875 -5 L 1.390625 -5.65625 L 7.046875 -15.15625 C 7.523438 -14.757812 8.1875 -14.25 9.03125 -13.625 C 9.875 -13.007812 11.367188 -12.175781 13.515625 -11.125 C 15.660156 -10.082031 17.550781 -9.5625 19.1875 -9.5625 C 23.96875 -9.5625 26.359375 -11.1875 26.359375 -14.4375 C 26.359375 -15.125 26.1875 -15.753906 25.84375 -16.328125 C 25.5 -16.910156 24.894531 -17.492188 24.03125 -18.078125 C 23.175781 -18.660156 22.414062 -19.125 21.75 -19.46875 C 21.09375 -19.8125 20.007812 -20.332031 18.5 -21.03125 C 17 -21.726562 15.882812 -22.257812 15.15625 -22.625 C 12.15625 -24.101562 9.832031 -25.957031 8.1875 -28.1875 C 6.539062 -30.414062 5.71875 -32.8125 5.71875 -35.375 C 5.71875 -39.832031 7.359375 -43.472656 10.640625 -46.296875 C 13.929688 -49.128906 17.6875 -50.546875 21.90625 -50.546875 Z M 21.90625 -50.546875 "/></g></g><g style="fill:#ffffff;fill-opacity:1;"><g transform="translate(352.637231, 83.548824)"><path style="stroke:none" d="M 3.609375 0 L 3.609375 -51.75 L 14.265625 -51.75 L 14.265625 -27.625 L 14.375 -27.625 C 17.144531 -30.382812 20.09375 -31.765625 23.21875 -31.765625 C 24.75 -31.765625 26.265625 -31.5625 27.765625 -31.15625 C 29.273438 -30.757812 30.71875 -30.140625 32.09375 -29.296875 C 33.476562 -28.460938 34.601562 -27.269531 35.46875 -25.71875 C 36.332031 -24.175781 36.765625 -22.382812 36.765625 -20.34375 L 36.765625 0 L 26.109375 0 L 26.109375 -17.453125 C 26.109375 -19.054688 25.597656 -20.457031 24.578125 -21.65625 C 23.554688 -22.863281 22.222656 -23.46875 20.578125 -23.46875 C 18.972656 -23.46875 17.519531 -22.84375 16.21875 -21.59375 C 14.914062 -20.351562 14.265625 -18.972656 14.265625 -17.453125 L 14.265625 0 Z M 3.609375 0 "/></g></g><g style="fill:#ffffff;fill-opacity:1;"><g transform="translate(389.397556, 83.548824)"><path style="stroke:none" d="M 4.625 -48.078125 C 5.875 -49.316406 7.359375 -49.9375 9.078125 -49.9375 C 10.804688 -49.9375 12.289062 -49.316406 13.53125 -48.078125 C 14.78125 -46.835938 15.40625 -45.351562 15.40625 -43.625 C 15.40625 -41.894531 14.78125 -40.410156 13.53125 -39.171875 C 12.289062 -37.929688 10.804688 -37.3125 9.078125 -37.3125 C 7.359375 -37.3125 5.875 -37.929688 4.625 -39.171875 C 3.382812 -40.410156 2.765625 -41.894531 2.765625 -43.625 C 2.765625 -45.351562 3.382812 -46.835938 4.625 -48.078125 Z M 3.609375 -30.875 L 3.609375 0 L 14.265625 0 L 14.265625 -30.875 Z M 3.609375 -30.875 "/></g></g><g style="fill:#ffffff;fill-opacity:1;"><g transform="translate(404.558929, 83.548824)"><path style="stroke:none" d="M 35.375 -27.046875 C 38.269531 -23.898438 39.71875 -20.039062 39.71875 -15.46875 C 39.71875 -10.894531 38.269531 -7.019531 35.375 -3.84375 C 32.488281 -0.675781 28.820312 0.90625 24.375 0.90625 C 20.28125 0.90625 16.910156 -0.378906 14.265625 -2.953125 L 14.265625 15.640625 L 3.609375 15.640625 L 3.609375 -30.875 L 14.140625 -30.875 L 14.140625 -27.375 L 14.265625 -27.375 C 16.910156 -30.300781 20.28125 -31.765625 24.375 -31.765625 C 28.820312 -31.765625 32.488281 -30.191406 35.375 -27.046875 Z M 26.328125 -10.234375 C 27.710938 -11.597656 28.40625 -13.34375 28.40625 -15.46875 C 28.40625 -17.59375 27.742188 -19.328125 26.421875 -20.671875 C 25.097656 -22.015625 23.351562 -22.6875 21.1875 -22.6875 C 19.09375 -22.6875 17.375 -22.003906 16.03125 -20.640625 C 14.6875 -19.273438 14.015625 -17.550781 14.015625 -15.46875 C 14.015625 -13.34375 14.707031 -11.597656 16.09375 -10.234375 C 17.476562 -8.867188 19.175781 -8.1875 21.1875 -8.1875 C 23.226562 -8.1875 24.941406 -8.867188 26.328125 -10.234375 Z M 26.328125 -10.234375 "/></g></g><g style="fill:#ffffff;fill-opacity:1;"><g transform="translate(442.642847, 83.548824)"><path style="stroke:none" d="M 35.375 -27.046875 C 38.269531 -23.898438 39.71875 -20.039062 39.71875 -15.46875 C 39.71875 -10.894531 38.269531 -7.019531 35.375 -3.84375 C 32.488281 -0.675781 28.820312 0.90625 24.375 0.90625 C 20.28125 0.90625 16.910156 -0.378906 14.265625 -2.953125 L 14.265625 15.640625 L 3.609375 15.640625 L 3.609375 -30.875 L 14.140625 -30.875 L 14.140625 -27.375 L 14.265625 -27.375 C 16.910156 -30.300781 20.28125 -31.765625 24.375 -31.765625 C 28.820312 -31.765625 32.488281 -30.191406 35.375 -27.046875 Z M 26.328125 -10.234375 C 27.710938 -11.597656 28.40625 -13.34375 28.40625 -15.46875 C 28.40625 -17.59375 27.742188 -19.328125 26.421875 -20.671875 C 25.097656 -22.015625 23.351562 -22.6875 21.1875 -22.6875 C 19.09375 -22.6875 17.375 -22.003906 16.03125 -20.640625 C 14.6875 -19.273438 14.015625 -17.550781 14.015625 -15.46875 C 14.015625 -13.34375 14.707031 -11.597656 16.09375 -10.234375 C 17.476562 -8.867188 19.175781 -8.1875 21.1875 -8.1875 C 23.226562 -8.1875 24.941406 -8.867188 26.328125 -10.234375 Z M 26.328125 -10.234375 "/></g></g><g style="fill:#ffffff;fill-opacity:1;"><g transform="translate(480.72679, 83.548824)"><path style="stroke:none" d="M 34.84375 -13.953125 L 12.453125 -13.953125 C 12.453125 -11.785156 13.15625 -10.179688 14.5625 -9.140625 C 15.96875 -8.097656 17.492188 -7.578125 19.140625 -7.578125 C 20.859375 -7.578125 22.21875 -7.804688 23.21875 -8.265625 C 24.226562 -8.734375 25.375 -9.648438 26.65625 -11.015625 L 34.359375 -7.15625 C 31.148438 -1.78125 25.816406 0.90625 18.359375 0.90625 C 13.703125 0.90625 9.707031 -0.6875 6.375 -3.875 C 3.050781 -7.070312 1.390625 -10.914062 1.390625 -15.40625 C 1.390625 -19.894531 3.050781 -23.742188 6.375 -26.953125 C 9.707031 -30.160156 13.703125 -31.765625 18.359375 -31.765625 C 23.242188 -31.765625 27.222656 -30.347656 30.296875 -27.515625 C 33.367188 -24.691406 34.90625 -20.65625 34.90625 -15.40625 C 34.90625 -14.6875 34.882812 -14.203125 34.84375 -13.953125 Z M 12.75 -19.859375 L 24.484375 -19.859375 C 24.242188 -21.460938 23.613281 -22.691406 22.59375 -23.546875 C 21.570312 -24.410156 20.257812 -24.84375 18.65625 -24.84375 C 16.882812 -24.84375 15.476562 -24.378906 14.4375 -23.453125 C 13.394531 -22.535156 12.832031 -21.335938 12.75 -19.859375 Z M 12.75 -19.859375 "/></g></g><g style="fill:#ffffff;fill-opacity:1;"><g transform="translate(513.997572, 83.548824)"><path style="stroke:none" d="M 5.71875 -3.8125 C 2.832031 -6.96875 1.390625 -10.832031 1.390625 -15.40625 C 1.390625 -19.976562 2.832031 -23.847656 5.71875 -27.015625 C 8.601562 -30.179688 12.273438 -31.765625 16.734375 -31.765625 C 20.816406 -31.765625 24.1875 -30.484375 26.84375 -27.921875 L 26.84375 -51.75 L 37.484375 -51.75 L 37.484375 0 L 26.953125 0 L 26.953125 -3.484375 L 26.84375 -3.484375 C 24.1875 -0.554688 20.816406 0.90625 16.734375 0.90625 C 12.273438 0.90625 8.601562 -0.664062 5.71875 -3.8125 Z M 14.765625 -20.640625 C 13.390625 -19.273438 12.703125 -17.53125 12.703125 -15.40625 C 12.703125 -13.28125 13.363281 -11.546875 14.6875 -10.203125 C 16.007812 -8.859375 17.753906 -8.1875 19.921875 -8.1875 C 22.003906 -8.1875 23.71875 -8.867188 25.0625 -10.234375 C 26.40625 -11.597656 27.078125 -13.320312 27.078125 -15.40625 C 27.078125 -17.53125 26.382812 -19.273438 25 -20.640625 C 23.613281 -22.003906 21.921875 -22.6875 19.921875 -22.6875 C 17.867188 -22.6875 16.148438 -22.003906 14.765625 -20.640625 Z M 14.765625 -20.640625 "/></g></g></g></svg>