<svg xmlns="http://www.w3.org/2000/svg" xmlns:xlink="http://www.w3.org/1999/xlink" width="750" zoomAndPan="magnify" viewBox="0 0 562.5 135.000003" height="180" preserveAspectRatio="xMidYMid meet" version="1.2"><defs/><g id="1aeb7281ab"><g style="fill:#ffde59;fill-opacity:0.5216;"><g transform="translate(18.62541, 89.103861)"><path style="stroke:none" d="M 35.171875 -21.40625 L 41.234375 -21.40625 L 41.234375 -10.984375 L 35.171875 -10.984375 L 35.171875 0 L 24.0625 0 L 24.0625 -10.984375 L -1.578125 -10.984375 L -1.578125 -14.53125 L 23.4375 -52.109375 L 35.171875 -52.109375 Z M 24.0625 -36.25 L 23.9375 -36.25 L 14.65625 -21.40625 L 24.0625 -21.40625 Z M 24.0625 -36.25 "/></g></g><g style="fill:#ffde59;fill-opacity:0.5216;"><g transform="translate(57.525563, 89.103861)"><path style="stroke:none" d="M 10.984375 -13.515625 C 13.003906 -13.515625 14.71875 -12.804688 16.125 -11.390625 C 17.539062 -9.984375 18.25 -8.269531 18.25 -6.25 C 18.25 -4.269531 17.539062 -2.570312 16.125 -1.15625 C 14.71875 0.25 13.003906 0.953125 10.984375 0.953125 C 9.003906 0.953125 7.3125 0.25 5.90625 -1.15625 C 4.5 -2.570312 3.796875 -4.269531 3.796875 -6.25 C 3.796875 -8.269531 4.5 -9.984375 5.90625 -11.390625 C 7.3125 -12.804688 9.003906 -13.515625 10.984375 -13.515625 Z M 10.984375 -13.515625 "/></g></g><g style="fill:#ffde59;fill-opacity:0.5216;"><g transform="translate(76.407292, 89.103861)"><path style="stroke:none" d="M 6.890625 0 L 22.234375 -17.875 C 21.347656 -17.363281 20.101562 -17.109375 18.5 -17.109375 C 16.644531 -17.109375 14.769531 -17.5 12.875 -18.28125 C 10.988281 -19.0625 9.210938 -20.175781 7.546875 -21.625 C 5.878906 -23.082031 4.519531 -25.007812 3.46875 -27.40625 C 2.414062 -29.8125 1.890625 -32.46875 1.890625 -35.375 C 1.890625 -38.3125 2.445312 -40.945312 3.5625 -43.28125 C 4.675781 -45.625 6.171875 -47.476562 8.046875 -48.84375 C 9.921875 -50.21875 11.972656 -51.257812 14.203125 -51.96875 C 16.441406 -52.6875 18.78125 -53.046875 21.21875 -53.046875 C 27.070312 -53.046875 32 -51.335938 36 -47.921875 C 40 -44.515625 42 -40.332031 42 -35.375 C 42 -31.15625 41.410156 -27.6875 40.234375 -24.96875 C 39.054688 -22.257812 36.90625 -18.800781 33.78125 -14.59375 L 21.53125 0 Z M 29.6875 -35.375 C 29.6875 -37.644531 28.945312 -39.523438 27.46875 -41.015625 C 26 -42.515625 24.101562 -43.265625 21.78125 -43.265625 C 19.46875 -43.265625 17.550781 -42.515625 16.03125 -41.015625 C 14.519531 -39.523438 13.765625 -37.644531 13.765625 -35.375 C 13.765625 -33.050781 14.53125 -31.117188 16.0625 -29.578125 C 17.601562 -28.046875 19.507812 -27.28125 21.78125 -27.28125 C 23.976562 -27.28125 25.84375 -28.046875 27.375 -29.578125 C 28.914062 -31.117188 29.6875 -33.050781 29.6875 -35.375 Z M 29.6875 -35.375 "/></g></g><g style="fill:#ffde59;fill-opacity:0.5216;"><g transform="translate(116.759888, 89.103861)"><path style="stroke:none" d="M 38.648438 -30.628906 L 31.699219 -51.847656 L 31.449219 -51.847656 L 24.503906 -30.628906 L 2.398438 -30.628906 L 2.398438 -30.375 L 20.269531 -17.429688 L 13.261719 3.914062 L 13.449219 3.976562 L 31.574219 -9.15625 L 49.699219 3.976562 L 49.886719 3.914062 L 42.878906 -17.429688 L 60.75 -30.375 L 60.75 -30.628906 Z M 38.648438 -30.628906 "/></g></g><g style="fill:#ffde59;fill-opacity:0.5216;"><g transform="translate(176.752006, 89.103861)"><path style="stroke:none" d=""/></g></g><g style="fill:#ffde59;fill-opacity:0.5216;"><g transform="translate(190.83437, 89.103861)"><path style="stroke:none" d="M 30.25 -52.109375 L 51.28125 0 L 38.53125 0 L 34.671875 -10.421875 L 14.84375 -10.421875 L 10.984375 0 L -1.765625 0 L 19.265625 -52.109375 Z M 30.625 -20.84375 L 24.828125 -36 L 24.6875 -36 L 18.890625 -20.84375 Z M 30.625 -20.84375 "/></g></g><g style="fill:#ffde59;fill-opacity:0.5216;"><g transform="translate(237.186185, 89.103861)"><path style="stroke:none" d="M 12 -32.40625 L 19.890625 -14.78125 L 27.78125 -32.40625 L 41.046875 -32.40625 L 23.6875 0 L 16.109375 0 L -1.265625 -32.40625 Z M 12 -32.40625 "/></g></g><g style="fill:#ffde59;fill-opacity:0.5216;"><g transform="translate(273.812957, 89.103861)"><path style="stroke:none" d="M 2.34375 7.953125 L 11.5 3.46875 C 13.175781 6.25 16.097656 7.640625 20.265625 7.640625 C 22.203125 7.640625 24.003906 7.019531 25.671875 5.78125 C 27.335938 4.539062 28.171875 2.632812 28.171875 0.0625 L 28.171875 -2.34375 C 26.191406 -0.144531 22.65625 0.953125 17.5625 0.953125 C 12.882812 0.953125 9.03125 -0.695312 6 -4 C 2.96875 -7.3125 1.453125 -11.367188 1.453125 -16.171875 C 1.453125 -20.972656 2.96875 -25.035156 6 -28.359375 C 9.03125 -31.679688 12.882812 -33.34375 17.5625 -33.34375 C 21.726562 -33.34375 25.203125 -32.0625 27.984375 -29.5 L 28.171875 -29.5 L 28.171875 -32.40625 L 39.34375 -32.40625 L 39.34375 0.890625 C 39.34375 6.148438 37.59375 10.210938 34.09375 13.078125 C 30.601562 15.941406 25.992188 17.375 20.265625 17.375 C 11.003906 17.375 5.03125 14.234375 2.34375 7.953125 Z M 15.5 -21.65625 C 14.050781 -20.226562 13.328125 -18.398438 13.328125 -16.171875 C 13.328125 -13.941406 14.019531 -12.117188 15.40625 -10.703125 C 16.800781 -9.296875 18.632812 -8.59375 20.90625 -8.59375 C 23.09375 -8.59375 24.890625 -9.304688 26.296875 -10.734375 C 27.710938 -12.171875 28.421875 -13.984375 28.421875 -16.171875 C 28.421875 -18.398438 27.691406 -20.226562 26.234375 -21.65625 C 24.785156 -23.09375 23.007812 -23.8125 20.90625 -23.8125 C 18.757812 -23.8125 16.957031 -23.09375 15.5 -21.65625 Z M 15.5 -21.65625 "/></g></g><g style="fill:#ffde59;fill-opacity:0.5216;"><g transform="translate(313.786648, 89.103861)"><path style="stroke:none" d="M 10.984375 -13.515625 C 13.003906 -13.515625 14.71875 -12.804688 16.125 -11.390625 C 17.539062 -9.984375 18.25 -8.269531 18.25 -6.25 C 18.25 -4.269531 17.539062 -2.570312 16.125 -1.15625 C 14.71875 0.25 13.003906 0.953125 10.984375 0.953125 C 9.003906 0.953125 7.3125 0.25 5.90625 -1.15625 C 4.5 -2.570312 3.796875 -4.269531 3.796875 -6.25 C 3.796875 -8.269531 4.5 -9.984375 5.90625 -11.390625 C 7.3125 -12.804688 9.003906 -13.515625 10.984375 -13.515625 Z M 10.984375 -13.515625 "/></g></g><g style="fill:#ffde59;fill-opacity:0.5216;"><g transform="translate(332.668384, 89.103861)"><path style="stroke:none" d=""/></g></g><g style="fill:#ffde59;fill-opacity:0.5216;"><g transform="translate(346.750749, 89.103861)"><path style="stroke:none" d="M 3.796875 -52.109375 L 22.421875 -52.109375 C 27.429688 -52.109375 31.515625 -50.769531 34.671875 -48.09375 C 37.828125 -45.414062 39.40625 -41.59375 39.40625 -36.625 C 39.40625 -32.800781 38.445312 -29.59375 36.53125 -27 C 34.613281 -24.40625 32.015625 -22.582031 28.734375 -21.53125 L 46.671875 0 L 31.578125 0 L 15.65625 -20.59375 L 15.65625 0 L 3.796875 0 Z M 15.65625 -28.984375 L 17.046875 -28.984375 C 18.140625 -28.984375 19.066406 -29.003906 19.828125 -29.046875 C 20.585938 -29.085938 21.453125 -29.234375 22.421875 -29.484375 C 23.390625 -29.742188 24.164062 -30.101562 24.75 -30.5625 C 25.34375 -31.03125 25.847656 -31.707031 26.265625 -32.59375 C 26.691406 -33.476562 26.90625 -34.550781 26.90625 -35.8125 C 26.90625 -37.070312 26.691406 -38.144531 26.265625 -39.03125 C 25.847656 -39.914062 25.34375 -40.585938 24.75 -41.046875 C 24.164062 -41.515625 23.390625 -41.875 22.421875 -42.125 C 21.453125 -42.375 20.585938 -42.519531 19.828125 -42.5625 C 19.066406 -42.601562 18.140625 -42.625 17.046875 -42.625 L 15.65625 -42.625 Z M 15.65625 -28.984375 "/></g></g><g style="fill:#ffde59;fill-opacity:0.5216;"><g transform="translate(388.808372, 89.103861)"><path style="stroke:none" d="M 6 -4 C 2.96875 -7.3125 1.453125 -11.367188 1.453125 -16.171875 C 1.453125 -20.972656 2.96875 -25.035156 6 -28.359375 C 9.03125 -31.679688 12.882812 -33.34375 17.5625 -33.34375 C 21.851562 -33.34375 25.390625 -31.992188 28.171875 -29.296875 L 28.171875 -32.40625 L 39.34375 -32.40625 L 39.34375 0 L 28.296875 0 L 28.296875 -3.65625 L 28.171875 -3.65625 C 25.390625 -0.582031 21.851562 0.953125 17.5625 0.953125 C 12.882812 0.953125 9.03125 -0.695312 6 -4 Z M 15.5 -21.65625 C 14.050781 -20.226562 13.328125 -18.398438 13.328125 -16.171875 C 13.328125 -13.941406 14.019531 -12.117188 15.40625 -10.703125 C 16.800781 -9.296875 18.632812 -8.59375 20.90625 -8.59375 C 23.09375 -8.59375 24.890625 -9.304688 26.296875 -10.734375 C 27.710938 -12.171875 28.421875 -13.984375 28.421875 -16.171875 C 28.421875 -18.398438 27.691406 -20.226562 26.234375 -21.65625 C 24.785156 -23.09375 23.007812 -23.8125 20.90625 -23.8125 C 18.757812 -23.8125 16.957031 -23.09375 15.5 -21.65625 Z M 15.5 -21.65625 "/></g></g><g style="fill:#ffde59;fill-opacity:0.5216;"><g transform="translate(428.78209, 89.103861)"><path style="stroke:none" d="M 5.6875 -32.40625 L 5.6875 -44.46875 L 16.859375 -44.46875 L 16.859375 -32.40625 L 23.6875 -32.40625 L 23.6875 -23.875 L 16.859375 -23.875 L 16.859375 -13.578125 C 16.859375 -10.585938 17.703125 -9.09375 19.390625 -9.09375 C 19.804688 -9.09375 20.242188 -9.175781 20.703125 -9.34375 C 21.171875 -9.507812 21.53125 -9.679688 21.78125 -9.859375 L 22.171875 -10.109375 L 24.953125 -1.078125 C 22.546875 0.273438 19.804688 0.953125 16.734375 0.953125 C 14.628906 0.953125 12.816406 0.582031 11.296875 -0.15625 C 9.785156 -0.894531 8.640625 -1.882812 7.859375 -3.125 C 7.078125 -4.363281 6.519531 -5.664062 6.1875 -7.03125 C 5.851562 -8.40625 5.6875 -9.875 5.6875 -11.4375 L 5.6875 -23.875 L 1.015625 -23.875 L 1.015625 -32.40625 Z M 5.6875 -32.40625 "/></g></g><g style="fill:#ffde59;fill-opacity:0.5216;"><g transform="translate(450.568707, 89.103861)"><path style="stroke:none" d="M 4.859375 -50.453125 C 6.171875 -51.765625 7.726562 -52.421875 9.53125 -52.421875 C 11.34375 -52.421875 12.898438 -51.765625 14.203125 -50.453125 C 15.515625 -49.148438 16.171875 -47.59375 16.171875 -45.78125 C 16.171875 -43.976562 15.515625 -42.421875 14.203125 -41.109375 C 12.898438 -39.804688 11.34375 -39.15625 9.53125 -39.15625 C 7.726562 -39.15625 6.171875 -39.804688 4.859375 -41.109375 C 3.554688 -42.421875 2.90625 -43.976562 2.90625 -45.78125 C 2.90625 -47.59375 3.554688 -49.148438 4.859375 -50.453125 Z M 3.796875 -32.40625 L 3.796875 0 L 14.96875 0 L 14.96875 -32.40625 Z M 3.796875 -32.40625 "/></g></g><g style="fill:#ffde59;fill-opacity:0.5216;"><g transform="translate(466.482407, 89.103861)"><path style="stroke:none" d="M 3.796875 0 L 3.796875 -32.40625 L 14.96875 -32.40625 L 14.96875 -28.984375 L 15.09375 -28.984375 C 18 -31.890625 21.09375 -33.34375 24.375 -33.34375 C 25.976562 -33.34375 27.566406 -33.128906 29.140625 -32.703125 C 30.722656 -32.285156 32.238281 -31.632812 33.6875 -30.75 C 35.144531 -29.875 36.328125 -28.625 37.234375 -27 C 38.140625 -25.375 38.59375 -23.488281 38.59375 -21.34375 L 38.59375 0 L 27.40625 0 L 27.40625 -18.3125 C 27.40625 -20 26.867188 -21.472656 25.796875 -22.734375 C 24.722656 -23.992188 23.320312 -24.625 21.59375 -24.625 C 19.914062 -24.625 18.390625 -23.972656 17.015625 -22.671875 C 15.648438 -21.367188 14.96875 -19.914062 14.96875 -18.3125 L 14.96875 0 Z M 3.796875 0 "/></g></g><g style="fill:#ffde59;fill-opacity:0.5216;"><g transform="translate(505.0668, 89.103861)"><path style="stroke:none" d="M 2.34375 7.953125 L 11.5 3.46875 C 13.175781 6.25 16.097656 7.640625 20.265625 7.640625 C 22.203125 7.640625 24.003906 7.019531 25.671875 5.78125 C 27.335938 4.539062 28.171875 2.632812 28.171875 0.0625 L 28.171875 -2.34375 C 26.191406 -0.144531 22.65625 0.953125 17.5625 0.953125 C 12.882812 0.953125 9.03125 -0.695312 6 -4 C 2.96875 -7.3125 1.453125 -11.367188 1.453125 -16.171875 C 1.453125 -20.972656 2.96875 -25.035156 6 -28.359375 C 9.03125 -31.679688 12.882812 -33.34375 17.5625 -33.34375 C 21.726562 -33.34375 25.203125 -32.0625 27.984375 -29.5 L 28.171875 -29.5 L 28.171875 -32.40625 L 39.34375 -32.40625 L 39.34375 0.890625 C 39.34375 6.148438 37.59375 10.210938 34.09375 13.078125 C 30.601562 15.941406 25.992188 17.375 20.265625 17.375 C 11.003906 17.375 5.03125 14.234375 2.34375 7.953125 Z M 15.5 -21.65625 C 14.050781 -20.226562 13.328125 -18.398438 13.328125 -16.171875 C 13.328125 -13.941406 14.019531 -12.117188 15.40625 -10.703125 C 16.800781 -9.296875 18.632812 -8.59375 20.90625 -8.59375 C 23.09375 -8.59375 24.890625 -9.304688 26.296875 -10.734375 C 27.710938 -12.171875 28.421875 -13.984375 28.421875 -16.171875 C 28.421875 -18.398438 27.691406 -20.226562 26.234375 -21.65625 C 24.785156 -23.09375 23.007812 -23.8125 20.90625 -23.8125 C 18.757812 -23.8125 16.957031 -23.09375 15.5 -21.65625 Z M 15.5 -21.65625 "/></g></g><g style="fill:#ffffff;fill-opacity:1;"><g transform="translate(15.220582, 85.699032)"><path style="stroke:none" d="M 35.171875 -21.40625 L 41.234375 -21.40625 L 41.234375 -10.984375 L 35.171875 -10.984375 L 35.171875 0 L 24.0625 0 L 24.0625 -10.984375 L -1.578125 -10.984375 L -1.578125 -14.53125 L 23.4375 -52.109375 L 35.171875 -52.109375 Z M 24.0625 -36.25 L 23.9375 -36.25 L 14.65625 -21.40625 L 24.0625 -21.40625 Z M 24.0625 -36.25 "/></g></g><g style="fill:#ffffff;fill-opacity:1;"><g transform="translate(54.120735, 85.699032)"><path style="stroke:none" d="M 10.984375 -13.515625 C 13.003906 -13.515625 14.71875 -12.804688 16.125 -11.390625 C 17.539062 -9.984375 18.25 -8.269531 18.25 -6.25 C 18.25 -4.269531 17.539062 -2.570312 16.125 -1.15625 C 14.71875 0.25 13.003906 0.953125 10.984375 0.953125 C 9.003906 0.953125 7.3125 0.25 5.90625 -1.15625 C 4.5 -2.570312 3.796875 -4.269531 3.796875 -6.25 C 3.796875 -8.269531 4.5 -9.984375 5.90625 -11.390625 C 7.3125 -12.804688 9.003906 -13.515625 10.984375 -13.515625 Z M 10.984375 -13.515625 "/></g></g><g style="fill:#ffffff;fill-opacity:1;"><g transform="translate(73.002465, 85.699032)"><path style="stroke:none" d="M 6.890625 0 L 22.234375 -17.875 C 21.347656 -17.363281 20.101562 -17.109375 18.5 -17.109375 C 16.644531 -17.109375 14.769531 -17.5 12.875 -18.28125 C 10.988281 -19.0625 9.210938 -20.175781 7.546875 -21.625 C 5.878906 -23.082031 4.519531 -25.007812 3.46875 -27.40625 C 2.414062 -29.8125 1.890625 -32.46875 1.890625 -35.375 C 1.890625 -38.3125 2.445312 -40.945312 3.5625 -43.28125 C 4.675781 -45.625 6.171875 -47.476562 8.046875 -48.84375 C 9.921875 -50.21875 11.972656 -51.257812 14.203125 -51.96875 C 16.441406 -52.6875 18.78125 -53.046875 21.21875 -53.046875 C 27.070312 -53.046875 32 -51.335938 36 -47.921875 C 40 -44.515625 42 -40.332031 42 -35.375 C 42 -31.15625 41.410156 -27.6875 40.234375 -24.96875 C 39.054688 -22.257812 36.90625 -18.800781 33.78125 -14.59375 L 21.53125 0 Z M 29.6875 -35.375 C 29.6875 -37.644531 28.945312 -39.523438 27.46875 -41.015625 C 26 -42.515625 24.101562 -43.265625 21.78125 -43.265625 C 19.46875 -43.265625 17.550781 -42.515625 16.03125 -41.015625 C 14.519531 -39.523438 13.765625 -37.644531 13.765625 -35.375 C 13.765625 -33.050781 14.53125 -31.117188 16.0625 -29.578125 C 17.601562 -28.046875 19.507812 -27.28125 21.78125 -27.28125 C 23.976562 -27.28125 25.84375 -28.046875 27.375 -29.578125 C 28.914062 -31.117188 29.6875 -33.050781 29.6875 -35.375 Z M 29.6875 -35.375 "/></g></g><g style="fill:#ffffff;fill-opacity:1;"><g transform="translate(113.35506, 85.699032)"><path style="stroke:none" d="M 38.648438 -30.628906 L 31.699219 -51.847656 L 31.449219 -51.847656 L 24.503906 -30.628906 L 2.398438 -30.628906 L 2.398438 -30.375 L 20.269531 -17.429688 L 13.261719 3.914062 L 13.449219 3.976562 L 31.574219 -9.15625 L 49.699219 3.976562 L 49.886719 3.914062 L 42.878906 -17.429688 L 60.75 -30.375 L 60.75 -30.628906 Z M 38.648438 -30.628906 "/></g></g><g style="fill:#ffffff;fill-opacity:1;"><g transform="translate(173.347178, 85.699032)"><path style="stroke:none" d=""/></g></g><g style="fill:#ffffff;fill-opacity:1;"><g transform="translate(187.429542, 85.699032)"><path style="stroke:none" d="M 30.25 -52.109375 L 51.28125 0 L 38.53125 0 L 34.671875 -10.421875 L 14.84375 -10.421875 L 10.984375 0 L -1.765625 0 L 19.265625 -52.109375 Z M 30.625 -20.84375 L 24.828125 -36 L 24.6875 -36 L 18.890625 -20.84375 Z M 30.625 -20.84375 "/></g></g><g style="fill:#ffffff;fill-opacity:1;"><g transform="translate(233.781357, 85.699032)"><path style="stroke:none" d="M 12 -32.40625 L 19.890625 -14.78125 L 27.78125 -32.40625 L 41.046875 -32.40625 L 23.6875 0 L 16.109375 0 L -1.265625 -32.40625 Z M 12 -32.40625 "/></g></g><g style="fill:#ffffff;fill-opacity:1;"><g transform="translate(270.40813, 85.699032)"><path style="stroke:none" d="M 2.34375 7.953125 L 11.5 3.46875 C 13.175781 6.25 16.097656 7.640625 20.265625 7.640625 C 22.203125 7.640625 24.003906 7.019531 25.671875 5.78125 C 27.335938 4.539062 28.171875 2.632812 28.171875 0.0625 L 28.171875 -2.34375 C 26.191406 -0.144531 22.65625 0.953125 17.5625 0.953125 C 12.882812 0.953125 9.03125 -0.695312 6 -4 C 2.96875 -7.3125 1.453125 -11.367188 1.453125 -16.171875 C 1.453125 -20.972656 2.96875 -25.035156 6 -28.359375 C 9.03125 -31.679688 12.882812 -33.34375 17.5625 -33.34375 C 21.726562 -33.34375 25.203125 -32.0625 27.984375 -29.5 L 28.171875 -29.5 L 28.171875 -32.40625 L 39.34375 -32.40625 L 39.34375 0.890625 C 39.34375 6.148438 37.59375 10.210938 34.09375 13.078125 C 30.601562 15.941406 25.992188 17.375 20.265625 17.375 C 11.003906 17.375 5.03125 14.234375 2.34375 7.953125 Z M 15.5 -21.65625 C 14.050781 -20.226562 13.328125 -18.398438 13.328125 -16.171875 C 13.328125 -13.941406 14.019531 -12.117188 15.40625 -10.703125 C 16.800781 -9.296875 18.632812 -8.59375 20.90625 -8.59375 C 23.09375 -8.59375 24.890625 -9.304688 26.296875 -10.734375 C 27.710938 -12.171875 28.421875 -13.984375 28.421875 -16.171875 C 28.421875 -18.398438 27.691406 -20.226562 26.234375 -21.65625 C 24.785156 -23.09375 23.007812 -23.8125 20.90625 -23.8125 C 18.757812 -23.8125 16.957031 -23.09375 15.5 -21.65625 Z M 15.5 -21.65625 "/></g></g><g style="fill:#ffffff;fill-opacity:1;"><g transform="translate(310.38182, 85.699032)"><path style="stroke:none" d="M 10.984375 -13.515625 C 13.003906 -13.515625 14.71875 -12.804688 16.125 -11.390625 C 17.539062 -9.984375 18.25 -8.269531 18.25 -6.25 C 18.25 -4.269531 17.539062 -2.570312 16.125 -1.15625 C 14.71875 0.25 13.003906 0.953125 10.984375 0.953125 C 9.003906 0.953125 7.3125 0.25 5.90625 -1.15625 C 4.5 -2.570312 3.796875 -4.269531 3.796875 -6.25 C 3.796875 -8.269531 4.5 -9.984375 5.90625 -11.390625 C 7.3125 -12.804688 9.003906 -13.515625 10.984375 -13.515625 Z M 10.984375 -13.515625 "/></g></g><g style="fill:#ffffff;fill-opacity:1;"><g transform="translate(329.263557, 85.699032)"><path style="stroke:none" d=""/></g></g><g style="fill:#ffffff;fill-opacity:1;"><g transform="translate(343.345921, 85.699032)"><path style="stroke:none" d="M 3.796875 -52.109375 L 22.421875 -52.109375 C 27.429688 -52.109375 31.515625 -50.769531 34.671875 -48.09375 C 37.828125 -45.414062 39.40625 -41.59375 39.40625 -36.625 C 39.40625 -32.800781 38.445312 -29.59375 36.53125 -27 C 34.613281 -24.40625 32.015625 -22.582031 28.734375 -21.53125 L 46.671875 0 L 31.578125 0 L 15.65625 -20.59375 L 15.65625 0 L 3.796875 0 Z M 15.65625 -28.984375 L 17.046875 -28.984375 C 18.140625 -28.984375 19.066406 -29.003906 19.828125 -29.046875 C 20.585938 -29.085938 21.453125 -29.234375 22.421875 -29.484375 C 23.390625 -29.742188 24.164062 -30.101562 24.75 -30.5625 C 25.34375 -31.03125 25.847656 -31.707031 26.265625 -32.59375 C 26.691406 -33.476562 26.90625 -34.550781 26.90625 -35.8125 C 26.90625 -37.070312 26.691406 -38.144531 26.265625 -39.03125 C 25.847656 -39.914062 25.34375 -40.585938 24.75 -41.046875 C 24.164062 -41.515625 23.390625 -41.875 22.421875 -42.125 C 21.453125 -42.375 20.585938 -42.519531 19.828125 -42.5625 C 19.066406 -42.601562 18.140625 -42.625 17.046875 -42.625 L 15.65625 -42.625 Z M 15.65625 -28.984375 "/></g></g><g style="fill:#ffffff;fill-opacity:1;"><g transform="translate(385.403544, 85.699032)"><path style="stroke:none" d="M 6 -4 C 2.96875 -7.3125 1.453125 -11.367188 1.453125 -16.171875 C 1.453125 -20.972656 2.96875 -25.035156 6 -28.359375 C 9.03125 -31.679688 12.882812 -33.34375 17.5625 -33.34375 C 21.851562 -33.34375 25.390625 -31.992188 28.171875 -29.296875 L 28.171875 -32.40625 L 39.34375 -32.40625 L 39.34375 0 L 28.296875 0 L 28.296875 -3.65625 L 28.171875 -3.65625 C 25.390625 -0.582031 21.851562 0.953125 17.5625 0.953125 C 12.882812 0.953125 9.03125 -0.695312 6 -4 Z M 15.5 -21.65625 C 14.050781 -20.226562 13.328125 -18.398438 13.328125 -16.171875 C 13.328125 -13.941406 14.019531 -12.117188 15.40625 -10.703125 C 16.800781 -9.296875 18.632812 -8.59375 20.90625 -8.59375 C 23.09375 -8.59375 24.890625 -9.304688 26.296875 -10.734375 C 27.710938 -12.171875 28.421875 -13.984375 28.421875 -16.171875 C 28.421875 -18.398438 27.691406 -20.226562 26.234375 -21.65625 C 24.785156 -23.09375 23.007812 -23.8125 20.90625 -23.8125 C 18.757812 -23.8125 16.957031 -23.09375 15.5 -21.65625 Z M 15.5 -21.65625 "/></g></g><g style="fill:#ffffff;fill-opacity:1;"><g transform="translate(425.377263, 85.699032)"><path style="stroke:none" d="M 5.6875 -32.40625 L 5.6875 -44.46875 L 16.859375 -44.46875 L 16.859375 -32.40625 L 23.6875 -32.40625 L 23.6875 -23.875 L 16.859375 -23.875 L 16.859375 -13.578125 C 16.859375 -10.585938 17.703125 -9.09375 19.390625 -9.09375 C 19.804688 -9.09375 20.242188 -9.175781 20.703125 -9.34375 C 21.171875 -9.507812 21.53125 -9.679688 21.78125 -9.859375 L 22.171875 -10.109375 L 24.953125 -1.078125 C 22.546875 0.273438 19.804688 0.953125 16.734375 0.953125 C 14.628906 0.953125 12.816406 0.582031 11.296875 -0.15625 C 9.785156 -0.894531 8.640625 -1.882812 7.859375 -3.125 C 7.078125 -4.363281 6.519531 -5.664062 6.1875 -7.03125 C 5.851562 -8.40625 5.6875 -9.875 5.6875 -11.4375 L 5.6875 -23.875 L 1.015625 -23.875 L 1.015625 -32.40625 Z M 5.6875 -32.40625 "/></g></g><g style="fill:#ffffff;fill-opacity:1;"><g transform="translate(447.16388, 85.699032)"><path style="stroke:none" d="M 4.859375 -50.453125 C 6.171875 -51.765625 7.726562 -52.421875 9.53125 -52.421875 C 11.34375 -52.421875 12.898438 -51.765625 14.203125 -50.453125 C 15.515625 -49.148438 16.171875 -47.59375 16.171875 -45.78125 C 16.171875 -43.976562 15.515625 -42.421875 14.203125 -41.109375 C 12.898438 -39.804688 11.34375 -39.15625 9.53125 -39.15625 C 7.726562 -39.15625 6.171875 -39.804688 4.859375 -41.109375 C 3.554688 -42.421875 2.90625 -43.976562 2.90625 -45.78125 C 2.90625 -47.59375 3.554688 -49.148438 4.859375 -50.453125 Z M 3.796875 -32.40625 L 3.796875 0 L 14.96875 0 L 14.96875 -32.40625 Z M 3.796875 -32.40625 "/></g></g><g style="fill:#ffffff;fill-opacity:1;"><g transform="translate(463.077579, 85.699032)"><path style="stroke:none" d="M 3.796875 0 L 3.796875 -32.40625 L 14.96875 -32.40625 L 14.96875 -28.984375 L 15.09375 -28.984375 C 18 -31.890625 21.09375 -33.34375 24.375 -33.34375 C 25.976562 -33.34375 27.566406 -33.128906 29.140625 -32.703125 C 30.722656 -32.285156 32.238281 -31.632812 33.6875 -30.75 C 35.144531 -29.875 36.328125 -28.625 37.234375 -27 C 38.140625 -25.375 38.59375 -23.488281 38.59375 -21.34375 L 38.59375 0 L 27.40625 0 L 27.40625 -18.3125 C 27.40625 -20 26.867188 -21.472656 25.796875 -22.734375 C 24.722656 -23.992188 23.320312 -24.625 21.59375 -24.625 C 19.914062 -24.625 18.390625 -23.972656 17.015625 -22.671875 C 15.648438 -21.367188 14.96875 -19.914062 14.96875 -18.3125 L 14.96875 0 Z M 3.796875 0 "/></g></g><g style="fill:#ffffff;fill-opacity:1;"><g transform="translate(501.661972, 85.699032)"><path style="stroke:none" d="M 2.34375 7.953125 L 11.5 3.46875 C 13.175781 6.25 16.097656 7.640625 20.265625 7.640625 C 22.203125 7.640625 24.003906 7.019531 25.671875 5.78125 C 27.335938 4.539062 28.171875 2.632812 28.171875 0.0625 L 28.171875 -2.34375 C 26.191406 -0.144531 22.65625 0.953125 17.5625 0.953125 C 12.882812 0.953125 9.03125 -0.695312 6 -4 C 2.96875 -7.3125 1.453125 -11.367188 1.453125 -16.171875 C 1.453125 -20.972656 2.96875 -25.035156 6 -28.359375 C 9.03125 -31.679688 12.882812 -33.34375 17.5625 -33.34375 C 21.726562 -33.34375 25.203125 -32.0625 27.984375 -29.5 L 28.171875 -29.5 L 28.171875 -32.40625 L 39.34375 -32.40625 L 39.34375 0.890625 C 39.34375 6.148438 37.59375 10.210938 34.09375 13.078125 C 30.601562 15.941406 25.992188 17.375 20.265625 17.375 C 11.003906 17.375 5.03125 14.234375 2.34375 7.953125 Z M 15.5 -21.65625 C 14.050781 -20.226562 13.328125 -18.398438 13.328125 -16.171875 C 13.328125 -13.941406 14.019531 -12.117188 15.40625 -10.703125 C 16.800781 -9.296875 18.632812 -8.59375 20.90625 -8.59375 C 23.09375 -8.59375 24.890625 -9.304688 26.296875 -10.734375 C 27.710938 -12.171875 28.421875 -13.984375 28.421875 -16.171875 C 28.421875 -18.398438 27.691406 -20.226562 26.234375 -21.65625 C 24.785156 -23.09375 23.007812 -23.8125 20.90625 -23.8125 C 18.757812 -23.8125 16.957031 -23.09375 15.5 -21.65625 Z M 15.5 -21.65625 "/></g></g></g></svg>