<svg xmlns="http://www.w3.org/2000/svg" xmlns:xlink="http://www.w3.org/1999/xlink" width="750" zoomAndPan="magnify" viewBox="0 0 562.5 135.000003" height="180" preserveAspectRatio="xMidYMid meet" version="1.2"><defs/><g id="0cdc5f68ac"><g style="fill:#ffde59;fill-opacity:0.5216;"><g transform="translate(4.763045, 86.703162)"><path style="stroke:none" d="M 19.8125 -37.171875 C 18.363281 -37.171875 16.972656 -36.453125 15.640625 -35.015625 C 14.316406 -33.578125 13.34375 -32.148438 12.71875 -30.734375 L 11.796875 -28.609375 L 3.21875 -32.75 C 3.332031 -33.113281 3.515625 -33.585938 3.765625 -34.171875 C 4.023438 -34.753906 4.625 -35.800781 5.5625 -37.3125 C 6.507812 -38.820312 7.554688 -40.148438 8.703125 -41.296875 C 9.847656 -42.441406 11.410156 -43.488281 13.390625 -44.4375 C 15.378906 -45.382812 17.519531 -45.859375 19.8125 -45.859375 C 22.757812 -45.859375 25.332031 -45.484375 27.53125 -44.734375 C 29.738281 -43.992188 31.441406 -43.066406 32.640625 -41.953125 C 33.847656 -40.847656 34.820312 -39.539062 35.5625 -38.03125 C 36.3125 -36.519531 36.785156 -35.144531 36.984375 -33.90625 C 37.179688 -32.664062 37.28125 -31.375 37.28125 -30.03125 C 37.28125 -28.0625 36.734375 -25.992188 35.640625 -23.828125 C 34.554688 -21.660156 33.238281 -19.726562 31.6875 -18.03125 C 30.144531 -16.34375 28.585938 -14.796875 27.015625 -13.390625 C 25.453125 -11.992188 24.125 -10.914062 23.03125 -10.15625 L 21.40625 -9.015625 L 38.109375 -9.015625 L 38.109375 0 L 3 0 L 3 -2.5625 C 3.625 -3.070312 4.460938 -3.769531 5.515625 -4.65625 C 6.566406 -5.550781 8.421875 -7.253906 11.078125 -9.765625 C 13.734375 -12.285156 16.082031 -14.644531 18.125 -16.84375 C 20.164062 -19.039062 22.019531 -21.394531 23.6875 -23.90625 C 25.363281 -26.414062 26.203125 -28.457031 26.203125 -30.03125 C 26.203125 -30.644531 26.140625 -31.257812 26.015625 -31.875 C 25.890625 -32.5 25.644531 -33.253906 25.28125 -34.140625 C 24.914062 -35.035156 24.257812 -35.765625 23.3125 -36.328125 C 22.363281 -36.890625 21.195312 -37.171875 19.8125 -37.171875 Z M 19.8125 -37.171875 "/></g></g><g style="fill:#ffde59;fill-opacity:0.5216;"><g transform="translate(43.13822, 86.703162)"><path style="stroke:none" d="M 30.40625 -18.5 L 35.65625 -18.5 L 35.65625 -9.5 L 30.40625 -9.5 L 30.40625 0 L 20.796875 0 L 20.796875 -9.5 L -1.359375 -9.5 L -1.359375 -12.5625 L 20.25 -45.046875 L 30.40625 -45.046875 Z M 20.796875 -31.34375 L 20.6875 -31.34375 L 12.671875 -18.5 L 20.796875 -18.5 Z M 20.796875 -31.34375 "/></g></g><g style="fill:#ffde59;fill-opacity:0.5216;"><g transform="translate(76.764263, 86.703162)"><path style="stroke:none" d="M 31.5 -14.296875 L 25.65625 -8.40625 L 17.3125 -16.765625 L 8.953125 -8.40625 L 3.0625 -14.359375 L 11.359375 -22.65625 L 3.0625 -31.015625 L 8.953125 -36.84375 L 17.25 -28.546875 L 25.609375 -36.84375 L 31.5 -30.953125 L 23.140625 -22.609375 Z M 31.5 -14.296875 "/></g></g><g style="fill:#ffde59;fill-opacity:0.5216;"><g transform="translate(108.588913, 86.703162)"><path style="stroke:none" d="M 38.921875 -45.046875 L 38.921875 -42.03125 L 15.125 0 L 3 0 L 23.75 -36.03125 L 4.375 -36.03125 L 4.375 -45.046875 Z M 38.921875 -45.046875 "/></g></g><g style="fill:#ffffff;fill-opacity:1;"><g transform="translate(1.819847, 83.75996)"><path style="stroke:none" d="M 19.8125 -37.171875 C 18.363281 -37.171875 16.972656 -36.453125 15.640625 -35.015625 C 14.316406 -33.578125 13.34375 -32.148438 12.71875 -30.734375 L 11.796875 -28.609375 L 3.21875 -32.75 C 3.332031 -33.113281 3.515625 -33.585938 3.765625 -34.171875 C 4.023438 -34.753906 4.625 -35.800781 5.5625 -37.3125 C 6.507812 -38.820312 7.554688 -40.148438 8.703125 -41.296875 C 9.847656 -42.441406 11.410156 -43.488281 13.390625 -44.4375 C 15.378906 -45.382812 17.519531 -45.859375 19.8125 -45.859375 C 22.757812 -45.859375 25.332031 -45.484375 27.53125 -44.734375 C 29.738281 -43.992188 31.441406 -43.066406 32.640625 -41.953125 C 33.847656 -40.847656 34.820312 -39.539062 35.5625 -38.03125 C 36.3125 -36.519531 36.785156 -35.144531 36.984375 -33.90625 C 37.179688 -32.664062 37.28125 -31.375 37.28125 -30.03125 C 37.28125 -28.0625 36.734375 -25.992188 35.640625 -23.828125 C 34.554688 -21.660156 33.238281 -19.726562 31.6875 -18.03125 C 30.144531 -16.34375 28.585938 -14.796875 27.015625 -13.390625 C 25.453125 -11.992188 24.125 -10.914062 23.03125 -10.15625 L 21.40625 -9.015625 L 38.109375 -9.015625 L 38.109375 0 L 3 0 L 3 -2.5625 C 3.625 -3.070312 4.460938 -3.769531 5.515625 -4.65625 C 6.566406 -5.550781 8.421875 -7.253906 11.078125 -9.765625 C 13.734375 -12.285156 16.082031 -14.644531 18.125 -16.84375 C 20.164062 -19.039062 22.019531 -21.394531 23.6875 -23.90625 C 25.363281 -26.414062 26.203125 -28.457031 26.203125 -30.03125 C 26.203125 -30.644531 26.140625 -31.257812 26.015625 -31.875 C 25.890625 -32.5 25.644531 -33.253906 25.28125 -34.140625 C 24.914062 -35.035156 24.257812 -35.765625 23.3125 -36.328125 C 22.363281 -36.890625 21.195312 -37.171875 19.8125 -37.171875 Z M 19.8125 -37.171875 "/></g></g><g style="fill:#ffffff;fill-opacity:1;"><g transform="translate(40.195021, 83.75996)"><path style="stroke:none" d="M 30.40625 -18.5 L 35.65625 -18.5 L 35.65625 -9.5 L 30.40625 -9.5 L 30.40625 0 L 20.796875 0 L 20.796875 -9.5 L -1.359375 -9.5 L -1.359375 -12.5625 L 20.25 -45.046875 L 30.40625 -45.046875 Z M 20.796875 -31.34375 L 20.6875 -31.34375 L 12.671875 -18.5 L 20.796875 -18.5 Z M 20.796875 -31.34375 "/></g></g><g style="fill:#ffffff;fill-opacity:1;"><g transform="translate(73.821064, 83.75996)"><path style="stroke:none" d="M 31.5 -14.296875 L 25.65625 -8.40625 L 17.3125 -16.765625 L 8.953125 -8.40625 L 3.0625 -14.359375 L 11.359375 -22.65625 L 3.0625 -31.015625 L 8.953125 -36.84375 L 17.25 -28.546875 L 25.609375 -36.84375 L 31.5 -30.953125 L 23.140625 -22.609375 Z M 31.5 -14.296875 "/></g></g><g style="fill:#ffffff;fill-opacity:1;"><g transform="translate(105.645715, 83.75996)"><path style="stroke:none" d="M 38.921875 -45.046875 L 38.921875 -42.03125 L 15.125 0 L 3 0 L 23.75 -36.03125 L 4.375 -36.03125 L 4.375 -45.046875 Z M 38.921875 -45.046875 "/></g></g><g style="fill:#ffde59;fill-opacity:0.5216;"><g transform="translate(143.419434, 86.703162)"><path style="stroke:none" d=""/></g></g><g style="fill:#ffde59;fill-opacity:0.5216;"><g transform="translate(155.592501, 86.703162)"><path style="stroke:none" d="M 0.4375 -36.03125 L 0.4375 -45.046875 L 32.09375 -45.046875 L 32.09375 -36.03125 L 21.40625 -36.03125 L 21.40625 0 L 11.140625 0 L 11.140625 -36.03125 Z M 0.4375 -36.03125 "/></g></g><g style="fill:#ffde59;fill-opacity:0.5216;"><g transform="translate(185.397404, 86.703162)"><path style="stroke:none" d="M 31.609375 -12.671875 L 11.296875 -12.671875 C 11.296875 -10.703125 11.929688 -9.242188 13.203125 -8.296875 C 14.484375 -7.347656 15.867188 -6.875 17.359375 -6.875 C 18.921875 -6.875 20.15625 -7.082031 21.0625 -7.5 C 21.976562 -7.925781 23.019531 -8.753906 24.1875 -9.984375 L 31.171875 -6.5 C 28.265625 -1.625 23.425781 0.8125 16.65625 0.8125 C 12.425781 0.8125 8.800781 -0.628906 5.78125 -3.515625 C 2.757812 -6.410156 1.25 -9.894531 1.25 -13.96875 C 1.25 -18.050781 2.757812 -21.546875 5.78125 -24.453125 C 8.800781 -27.367188 12.425781 -28.828125 16.65625 -28.828125 C 21.09375 -28.828125 24.703125 -27.539062 27.484375 -24.96875 C 30.273438 -22.40625 31.671875 -18.738281 31.671875 -13.96875 C 31.671875 -13.320312 31.648438 -12.890625 31.609375 -12.671875 Z M 11.578125 -18.015625 L 22.21875 -18.015625 C 22 -19.472656 21.425781 -20.59375 20.5 -21.375 C 19.570312 -22.15625 18.378906 -22.546875 16.921875 -22.546875 C 15.316406 -22.546875 14.039062 -22.125 13.09375 -21.28125 C 12.15625 -20.445312 11.648438 -19.359375 11.578125 -18.015625 Z M 11.578125 -18.015625 "/></g></g><g style="fill:#ffde59;fill-opacity:0.5216;"><g transform="translate(215.584419, 86.703162)"><path style="stroke:none" d="M 18.1875 -20.90625 C 16.363281 -20.90625 14.796875 -20.234375 13.484375 -18.890625 C 12.171875 -17.546875 11.515625 -15.925781 11.515625 -14.03125 C 11.515625 -12.101562 12.171875 -10.460938 13.484375 -9.109375 C 14.796875 -7.765625 16.363281 -7.09375 18.1875 -7.09375 C 19.050781 -7.09375 19.875 -7.203125 20.65625 -7.421875 C 21.445312 -7.640625 22.023438 -7.859375 22.390625 -8.078125 L 22.875 -8.40625 L 26.15625 -1.6875 C 25.894531 -1.507812 25.535156 -1.28125 25.078125 -1 C 24.628906 -0.726562 23.59375 -0.359375 21.96875 0.109375 C 20.351562 0.578125 18.617188 0.8125 16.765625 0.8125 C 12.648438 0.8125 9.035156 -0.628906 5.921875 -3.515625 C 2.804688 -6.410156 1.25 -9.878906 1.25 -13.921875 C 1.25 -17.992188 2.804688 -21.492188 5.921875 -24.421875 C 9.035156 -27.359375 12.648438 -28.828125 16.765625 -28.828125 C 18.617188 -28.828125 20.328125 -28.609375 21.890625 -28.171875 C 23.453125 -27.734375 24.5625 -27.296875 25.21875 -26.859375 L 26.15625 -26.203125 L 22.875 -19.59375 C 21.675781 -20.46875 20.113281 -20.90625 18.1875 -20.90625 Z M 18.1875 -20.90625 "/></g></g><g style="fill:#ffde59;fill-opacity:0.5216;"><g transform="translate(239.65761, 86.703162)"><path style="stroke:none" d="M 3.28125 0 L 3.28125 -46.953125 L 12.9375 -46.953125 L 12.9375 -25.0625 L 13.046875 -25.0625 C 15.554688 -27.570312 18.234375 -28.828125 21.078125 -28.828125 C 22.453125 -28.828125 23.820312 -28.644531 25.1875 -28.28125 C 26.5625 -27.914062 27.875 -27.347656 29.125 -26.578125 C 30.382812 -25.816406 31.40625 -24.734375 32.1875 -23.328125 C 32.96875 -21.929688 33.359375 -20.304688 33.359375 -18.453125 L 33.359375 0 L 23.6875 0 L 23.6875 -15.828125 C 23.6875 -17.285156 23.222656 -18.5625 22.296875 -19.65625 C 21.367188 -20.75 20.160156 -21.296875 18.671875 -21.296875 C 17.210938 -21.296875 15.890625 -20.726562 14.703125 -19.59375 C 13.523438 -18.46875 12.9375 -17.210938 12.9375 -15.828125 L 12.9375 0 Z M 3.28125 0 "/></g></g><g style="fill:#ffde59;fill-opacity:0.5216;"><g transform="translate(273.010722, 86.703162)"><path style="stroke:none" d=""/></g></g><g style="fill:#ffde59;fill-opacity:0.5216;"><g transform="translate(285.183789, 86.703162)"><path style="stroke:none" d="M 26.15625 -45.046875 L 44.328125 0 L 33.296875 0 L 29.96875 -9.015625 L 12.828125 -9.015625 L 9.5 0 L -1.53125 0 L 16.65625 -45.046875 Z M 26.484375 -18.015625 L 21.453125 -31.125 L 21.34375 -31.125 L 16.328125 -18.015625 Z M 26.484375 -18.015625 "/></g></g><g style="fill:#ffde59;fill-opacity:0.5216;"><g transform="translate(325.251181, 86.703162)"><path style="stroke:none" d="M 15.453125 -28.828125 C 17.054688 -28.828125 18.640625 -28.644531 20.203125 -28.28125 C 21.765625 -27.914062 22.925781 -27.550781 23.6875 -27.1875 L 24.84375 -26.640625 L 21.671875 -20.3125 C 19.484375 -21.476562 17.410156 -22.0625 15.453125 -22.0625 C 14.359375 -22.0625 13.582031 -21.941406 13.125 -21.703125 C 12.675781 -21.460938 12.453125 -21.015625 12.453125 -20.359375 C 12.453125 -20.210938 12.46875 -20.066406 12.5 -19.921875 C 12.539062 -19.773438 12.613281 -19.640625 12.71875 -19.515625 C 12.832031 -19.390625 12.929688 -19.28125 13.015625 -19.1875 C 13.109375 -19.09375 13.265625 -18.988281 13.484375 -18.875 C 13.703125 -18.769531 13.875 -18.691406 14 -18.640625 C 14.125 -18.585938 14.332031 -18.503906 14.625 -18.390625 C 14.914062 -18.285156 15.132812 -18.207031 15.28125 -18.15625 C 15.425781 -18.101562 15.671875 -18.019531 16.015625 -17.90625 C 16.367188 -17.800781 16.632812 -17.726562 16.8125 -17.6875 C 17.9375 -17.363281 18.914062 -17 19.75 -16.59375 C 20.59375 -16.195312 21.476562 -15.648438 22.40625 -14.953125 C 23.332031 -14.265625 24.050781 -13.390625 24.5625 -12.328125 C 25.070312 -11.273438 25.328125 -10.078125 25.328125 -8.734375 C 25.328125 -2.367188 20.90625 0.8125 12.0625 0.8125 C 10.0625 0.8125 8.160156 0.503906 6.359375 -0.109375 C 4.554688 -0.722656 3.253906 -1.34375 2.453125 -1.96875 L 1.25 -2.953125 L 5.1875 -9.546875 C 5.476562 -9.296875 5.859375 -9 6.328125 -8.65625 C 6.804688 -8.3125 7.660156 -7.835938 8.890625 -7.234375 C 10.128906 -6.628906 11.207031 -6.328125 12.125 -6.328125 C 14.125 -6.328125 15.125 -7.003906 15.125 -8.359375 C 15.125 -8.972656 14.867188 -9.453125 14.359375 -9.796875 C 13.847656 -10.140625 12.984375 -10.53125 11.765625 -10.96875 C 10.546875 -11.40625 9.59375 -11.804688 8.90625 -12.171875 C 7.15625 -13.085938 5.769531 -14.117188 4.75 -15.265625 C 3.726562 -16.410156 3.21875 -17.925781 3.21875 -19.8125 C 3.21875 -22.65625 4.316406 -24.867188 6.515625 -26.453125 C 8.722656 -28.035156 11.703125 -28.828125 15.453125 -28.828125 Z M 15.453125 -28.828125 "/></g></g><g style="fill:#ffde59;fill-opacity:0.5216;"><g transform="translate(349.378965, 86.703162)"><path style="stroke:none" d="M 15.453125 -28.828125 C 17.054688 -28.828125 18.640625 -28.644531 20.203125 -28.28125 C 21.765625 -27.914062 22.925781 -27.550781 23.6875 -27.1875 L 24.84375 -26.640625 L 21.671875 -20.3125 C 19.484375 -21.476562 17.410156 -22.0625 15.453125 -22.0625 C 14.359375 -22.0625 13.582031 -21.941406 13.125 -21.703125 C 12.675781 -21.460938 12.453125 -21.015625 12.453125 -20.359375 C 12.453125 -20.210938 12.46875 -20.066406 12.5 -19.921875 C 12.539062 -19.773438 12.613281 -19.640625 12.71875 -19.515625 C 12.832031 -19.390625 12.929688 -19.28125 13.015625 -19.1875 C 13.109375 -19.09375 13.265625 -18.988281 13.484375 -18.875 C 13.703125 -18.769531 13.875 -18.691406 14 -18.640625 C 14.125 -18.585938 14.332031 -18.503906 14.625 -18.390625 C 14.914062 -18.285156 15.132812 -18.207031 15.28125 -18.15625 C 15.425781 -18.101562 15.671875 -18.019531 16.015625 -17.90625 C 16.367188 -17.800781 16.632812 -17.726562 16.8125 -17.6875 C 17.9375 -17.363281 18.914062 -17 19.75 -16.59375 C 20.59375 -16.195312 21.476562 -15.648438 22.40625 -14.953125 C 23.332031 -14.265625 24.050781 -13.390625 24.5625 -12.328125 C 25.070312 -11.273438 25.328125 -10.078125 25.328125 -8.734375 C 25.328125 -2.367188 20.90625 0.8125 12.0625 0.8125 C 10.0625 0.8125 8.160156 0.503906 6.359375 -0.109375 C 4.554688 -0.722656 3.253906 -1.34375 2.453125 -1.96875 L 1.25 -2.953125 L 5.1875 -9.546875 C 5.476562 -9.296875 5.859375 -9 6.328125 -8.65625 C 6.804688 -8.3125 7.660156 -7.835938 8.890625 -7.234375 C 10.128906 -6.628906 11.207031 -6.328125 12.125 -6.328125 C 14.125 -6.328125 15.125 -7.003906 15.125 -8.359375 C 15.125 -8.972656 14.867188 -9.453125 14.359375 -9.796875 C 13.847656 -10.140625 12.984375 -10.53125 11.765625 -10.96875 C 10.546875 -11.40625 9.59375 -11.804688 8.90625 -12.171875 C 7.15625 -13.085938 5.769531 -14.117188 4.75 -15.265625 C 3.726562 -16.410156 3.21875 -17.925781 3.21875 -19.8125 C 3.21875 -22.65625 4.316406 -24.867188 6.515625 -26.453125 C 8.722656 -28.035156 11.703125 -28.828125 15.453125 -28.828125 Z M 15.453125 -28.828125 "/></g></g><g style="fill:#ffde59;fill-opacity:0.5216;"><g transform="translate(373.506726, 86.703162)"><path style="stroke:none" d="M 4.203125 -43.609375 C 5.328125 -44.742188 6.671875 -45.3125 8.234375 -45.3125 C 9.804688 -45.3125 11.15625 -44.742188 12.28125 -43.609375 C 13.40625 -42.484375 13.96875 -41.140625 13.96875 -39.578125 C 13.96875 -38.015625 13.40625 -36.664062 12.28125 -35.53125 C 11.15625 -34.40625 9.804688 -33.84375 8.234375 -33.84375 C 6.671875 -33.84375 5.328125 -34.40625 4.203125 -35.53125 C 3.078125 -36.664062 2.515625 -38.015625 2.515625 -39.578125 C 2.515625 -41.140625 3.078125 -42.484375 4.203125 -43.609375 Z M 3.28125 -28 L 3.28125 0 L 12.9375 0 L 12.9375 -28 Z M 3.28125 -28 "/></g></g><g style="fill:#ffde59;fill-opacity:0.5216;"><g transform="translate(387.262835, 86.703162)"><path style="stroke:none" d="M 15.453125 -28.828125 C 17.054688 -28.828125 18.640625 -28.644531 20.203125 -28.28125 C 21.765625 -27.914062 22.925781 -27.550781 23.6875 -27.1875 L 24.84375 -26.640625 L 21.671875 -20.3125 C 19.484375 -21.476562 17.410156 -22.0625 15.453125 -22.0625 C 14.359375 -22.0625 13.582031 -21.941406 13.125 -21.703125 C 12.675781 -21.460938 12.453125 -21.015625 12.453125 -20.359375 C 12.453125 -20.210938 12.46875 -20.066406 12.5 -19.921875 C 12.539062 -19.773438 12.613281 -19.640625 12.71875 -19.515625 C 12.832031 -19.390625 12.929688 -19.28125 13.015625 -19.1875 C 13.109375 -19.09375 13.265625 -18.988281 13.484375 -18.875 C 13.703125 -18.769531 13.875 -18.691406 14 -18.640625 C 14.125 -18.585938 14.332031 -18.503906 14.625 -18.390625 C 14.914062 -18.285156 15.132812 -18.207031 15.28125 -18.15625 C 15.425781 -18.101562 15.671875 -18.019531 16.015625 -17.90625 C 16.367188 -17.800781 16.632812 -17.726562 16.8125 -17.6875 C 17.9375 -17.363281 18.914062 -17 19.75 -16.59375 C 20.59375 -16.195312 21.476562 -15.648438 22.40625 -14.953125 C 23.332031 -14.265625 24.050781 -13.390625 24.5625 -12.328125 C 25.070312 -11.273438 25.328125 -10.078125 25.328125 -8.734375 C 25.328125 -2.367188 20.90625 0.8125 12.0625 0.8125 C 10.0625 0.8125 8.160156 0.503906 6.359375 -0.109375 C 4.554688 -0.722656 3.253906 -1.34375 2.453125 -1.96875 L 1.25 -2.953125 L 5.1875 -9.546875 C 5.476562 -9.296875 5.859375 -9 6.328125 -8.65625 C 6.804688 -8.3125 7.660156 -7.835938 8.890625 -7.234375 C 10.128906 -6.628906 11.207031 -6.328125 12.125 -6.328125 C 14.125 -6.328125 15.125 -7.003906 15.125 -8.359375 C 15.125 -8.972656 14.867188 -9.453125 14.359375 -9.796875 C 13.847656 -10.140625 12.984375 -10.53125 11.765625 -10.96875 C 10.546875 -11.40625 9.59375 -11.804688 8.90625 -12.171875 C 7.15625 -13.085938 5.769531 -14.117188 4.75 -15.265625 C 3.726562 -16.410156 3.21875 -17.925781 3.21875 -19.8125 C 3.21875 -22.65625 4.316406 -24.867188 6.515625 -26.453125 C 8.722656 -28.035156 11.703125 -28.828125 15.453125 -28.828125 Z M 15.453125 -28.828125 "/></g></g><g style="fill:#ffde59;fill-opacity:0.5216;"><g transform="translate(411.390619, 86.703162)"><path style="stroke:none" d="M 4.90625 -28 L 4.90625 -38.4375 L 14.578125 -38.4375 L 14.578125 -28 L 20.46875 -28 L 20.46875 -20.640625 L 14.578125 -20.640625 L 14.578125 -11.734375 C 14.578125 -9.148438 15.304688 -7.859375 16.765625 -7.859375 C 17.128906 -7.859375 17.507812 -7.929688 17.90625 -8.078125 C 18.300781 -8.222656 18.609375 -8.367188 18.828125 -8.515625 L 19.15625 -8.734375 L 21.5625 -0.921875 C 19.488281 0.234375 17.125 0.8125 14.46875 0.8125 C 12.644531 0.8125 11.078125 0.492188 9.765625 -0.140625 C 8.460938 -0.773438 7.472656 -1.628906 6.796875 -2.703125 C 6.117188 -3.773438 5.632812 -4.898438 5.34375 -6.078125 C 5.050781 -7.265625 4.90625 -8.53125 4.90625 -9.875 L 4.90625 -20.640625 L 0.875 -20.640625 L 0.875 -28 Z M 4.90625 -28 "/></g></g><g style="fill:#ffde59;fill-opacity:0.5216;"><g transform="translate(430.223391, 86.703162)"><path style="stroke:none" d="M 5.171875 -3.46875 C 2.554688 -6.320312 1.25 -9.820312 1.25 -13.96875 C 1.25 -18.125 2.554688 -21.640625 5.171875 -24.515625 C 7.796875 -27.390625 11.128906 -28.828125 15.171875 -28.828125 C 18.890625 -28.828125 21.945312 -27.660156 24.34375 -25.328125 L 24.34375 -28 L 34.015625 -28 L 34.015625 0 L 24.453125 0 L 24.453125 -3.171875 L 24.34375 -3.171875 C 21.945312 -0.515625 18.890625 0.8125 15.171875 0.8125 C 11.128906 0.8125 7.796875 -0.613281 5.171875 -3.46875 Z M 13.390625 -18.71875 C 12.140625 -17.488281 11.515625 -15.90625 11.515625 -13.96875 C 11.515625 -12.039062 12.113281 -10.46875 13.3125 -9.25 C 14.519531 -8.03125 16.109375 -7.421875 18.078125 -7.421875 C 19.960938 -7.421875 21.515625 -8.039062 22.734375 -9.28125 C 23.953125 -10.519531 24.5625 -12.082031 24.5625 -13.96875 C 24.5625 -15.90625 23.929688 -17.488281 22.671875 -18.71875 C 21.421875 -19.957031 19.890625 -20.578125 18.078125 -20.578125 C 16.210938 -20.578125 14.648438 -19.957031 13.390625 -18.71875 Z M 13.390625 -18.71875 "/></g></g><g style="fill:#ffde59;fill-opacity:0.5216;"><g transform="translate(464.777421, 86.703162)"><path style="stroke:none" d="M 3.28125 0 L 3.28125 -28 L 12.9375 -28 L 12.9375 -25.0625 L 13.046875 -25.0625 C 15.554688 -27.570312 18.234375 -28.828125 21.078125 -28.828125 C 22.453125 -28.828125 23.820312 -28.644531 25.1875 -28.28125 C 26.5625 -27.914062 27.875 -27.347656 29.125 -26.578125 C 30.382812 -25.816406 31.40625 -24.734375 32.1875 -23.328125 C 32.96875 -21.929688 33.359375 -20.304688 33.359375 -18.453125 L 33.359375 0 L 23.6875 0 L 23.6875 -15.828125 C 23.6875 -17.285156 23.222656 -18.5625 22.296875 -19.65625 C 21.367188 -20.75 20.160156 -21.296875 18.671875 -21.296875 C 17.210938 -21.296875 15.890625 -20.726562 14.703125 -19.59375 C 13.523438 -18.46875 12.9375 -17.210938 12.9375 -15.828125 L 12.9375 0 Z M 3.28125 0 "/></g></g><g style="fill:#ffde59;fill-opacity:0.5216;"><g transform="translate(498.130538, 86.703162)"><path style="stroke:none" d="M 18.1875 -20.90625 C 16.363281 -20.90625 14.796875 -20.234375 13.484375 -18.890625 C 12.171875 -17.546875 11.515625 -15.925781 11.515625 -14.03125 C 11.515625 -12.101562 12.171875 -10.460938 13.484375 -9.109375 C 14.796875 -7.765625 16.363281 -7.09375 18.1875 -7.09375 C 19.050781 -7.09375 19.875 -7.203125 20.65625 -7.421875 C 21.445312 -7.640625 22.023438 -7.859375 22.390625 -8.078125 L 22.875 -8.40625 L 26.15625 -1.6875 C 25.894531 -1.507812 25.535156 -1.28125 25.078125 -1 C 24.628906 -0.726562 23.59375 -0.359375 21.96875 0.109375 C 20.351562 0.578125 18.617188 0.8125 16.765625 0.8125 C 12.648438 0.8125 9.035156 -0.628906 5.921875 -3.515625 C 2.804688 -6.410156 1.25 -9.878906 1.25 -13.921875 C 1.25 -17.992188 2.804688 -21.492188 5.921875 -24.421875 C 9.035156 -27.359375 12.648438 -28.828125 16.765625 -28.828125 C 18.617188 -28.828125 20.328125 -28.609375 21.890625 -28.171875 C 23.453125 -27.734375 24.5625 -27.296875 25.21875 -26.859375 L 26.15625 -26.203125 L 22.875 -19.59375 C 21.675781 -20.46875 20.113281 -20.90625 18.1875 -20.90625 Z M 18.1875 -20.90625 "/></g></g><g style="fill:#ffde59;fill-opacity:0.5216;"><g transform="translate(522.203729, 86.703162)"><path style="stroke:none" d="M 31.609375 -12.671875 L 11.296875 -12.671875 C 11.296875 -10.703125 11.929688 -9.242188 13.203125 -8.296875 C 14.484375 -7.347656 15.867188 -6.875 17.359375 -6.875 C 18.921875 -6.875 20.15625 -7.082031 21.0625 -7.5 C 21.976562 -7.925781 23.019531 -8.753906 24.1875 -9.984375 L 31.171875 -6.5 C 28.265625 -1.625 23.425781 0.8125 16.65625 0.8125 C 12.425781 0.8125 8.800781 -0.628906 5.78125 -3.515625 C 2.757812 -6.410156 1.25 -9.894531 1.25 -13.96875 C 1.25 -18.050781 2.757812 -21.546875 5.78125 -24.453125 C 8.800781 -27.367188 12.425781 -28.828125 16.65625 -28.828125 C 21.09375 -28.828125 24.703125 -27.539062 27.484375 -24.96875 C 30.273438 -22.40625 31.671875 -18.738281 31.671875 -13.96875 C 31.671875 -13.320312 31.648438 -12.890625 31.609375 -12.671875 Z M 11.578125 -18.015625 L 22.21875 -18.015625 C 22 -19.472656 21.425781 -20.59375 20.5 -21.375 C 19.570312 -22.15625 18.378906 -22.546875 16.921875 -22.546875 C 15.316406 -22.546875 14.039062 -22.125 13.09375 -21.28125 C 12.15625 -20.445312 11.648438 -19.359375 11.578125 -18.015625 Z M 11.578125 -18.015625 "/></g></g><g style="fill:#ffffff;fill-opacity:1;"><g transform="translate(140.476235, 83.75996)"><path style="stroke:none" d=""/></g></g><g style="fill:#ffffff;fill-opacity:1;"><g transform="translate(152.649303, 83.75996)"><path style="stroke:none" d="M 0.4375 -36.03125 L 0.4375 -45.046875 L 32.09375 -45.046875 L 32.09375 -36.03125 L 21.40625 -36.03125 L 21.40625 0 L 11.140625 0 L 11.140625 -36.03125 Z M 0.4375 -36.03125 "/></g></g><g style="fill:#ffffff;fill-opacity:1;"><g transform="translate(182.454206, 83.75996)"><path style="stroke:none" d="M 31.609375 -12.671875 L 11.296875 -12.671875 C 11.296875 -10.703125 11.929688 -9.242188 13.203125 -8.296875 C 14.484375 -7.347656 15.867188 -6.875 17.359375 -6.875 C 18.921875 -6.875 20.15625 -7.082031 21.0625 -7.5 C 21.976562 -7.925781 23.019531 -8.753906 24.1875 -9.984375 L 31.171875 -6.5 C 28.265625 -1.625 23.425781 0.8125 16.65625 0.8125 C 12.425781 0.8125 8.800781 -0.628906 5.78125 -3.515625 C 2.757812 -6.410156 1.25 -9.894531 1.25 -13.96875 C 1.25 -18.050781 2.757812 -21.546875 5.78125 -24.453125 C 8.800781 -27.367188 12.425781 -28.828125 16.65625 -28.828125 C 21.09375 -28.828125 24.703125 -27.539062 27.484375 -24.96875 C 30.273438 -22.40625 31.671875 -18.738281 31.671875 -13.96875 C 31.671875 -13.320312 31.648438 -12.890625 31.609375 -12.671875 Z M 11.578125 -18.015625 L 22.21875 -18.015625 C 22 -19.472656 21.425781 -20.59375 20.5 -21.375 C 19.570312 -22.15625 18.378906 -22.546875 16.921875 -22.546875 C 15.316406 -22.546875 14.039062 -22.125 13.09375 -21.28125 C 12.15625 -20.445312 11.648438 -19.359375 11.578125 -18.015625 Z M 11.578125 -18.015625 "/></g></g><g style="fill:#ffffff;fill-opacity:1;"><g transform="translate(212.641221, 83.75996)"><path style="stroke:none" d="M 18.1875 -20.90625 C 16.363281 -20.90625 14.796875 -20.234375 13.484375 -18.890625 C 12.171875 -17.546875 11.515625 -15.925781 11.515625 -14.03125 C 11.515625 -12.101562 12.171875 -10.460938 13.484375 -9.109375 C 14.796875 -7.765625 16.363281 -7.09375 18.1875 -7.09375 C 19.050781 -7.09375 19.875 -7.203125 20.65625 -7.421875 C 21.445312 -7.640625 22.023438 -7.859375 22.390625 -8.078125 L 22.875 -8.40625 L 26.15625 -1.6875 C 25.894531 -1.507812 25.535156 -1.28125 25.078125 -1 C 24.628906 -0.726562 23.59375 -0.359375 21.96875 0.109375 C 20.351562 0.578125 18.617188 0.8125 16.765625 0.8125 C 12.648438 0.8125 9.035156 -0.628906 5.921875 -3.515625 C 2.804688 -6.410156 1.25 -9.878906 1.25 -13.921875 C 1.25 -17.992188 2.804688 -21.492188 5.921875 -24.421875 C 9.035156 -27.359375 12.648438 -28.828125 16.765625 -28.828125 C 18.617188 -28.828125 20.328125 -28.609375 21.890625 -28.171875 C 23.453125 -27.734375 24.5625 -27.296875 25.21875 -26.859375 L 26.15625 -26.203125 L 22.875 -19.59375 C 21.675781 -20.46875 20.113281 -20.90625 18.1875 -20.90625 Z M 18.1875 -20.90625 "/></g></g><g style="fill:#ffffff;fill-opacity:1;"><g transform="translate(236.714412, 83.75996)"><path style="stroke:none" d="M 3.28125 0 L 3.28125 -46.953125 L 12.9375 -46.953125 L 12.9375 -25.0625 L 13.046875 -25.0625 C 15.554688 -27.570312 18.234375 -28.828125 21.078125 -28.828125 C 22.453125 -28.828125 23.820312 -28.644531 25.1875 -28.28125 C 26.5625 -27.914062 27.875 -27.347656 29.125 -26.578125 C 30.382812 -25.816406 31.40625 -24.734375 32.1875 -23.328125 C 32.96875 -21.929688 33.359375 -20.304688 33.359375 -18.453125 L 33.359375 0 L 23.6875 0 L 23.6875 -15.828125 C 23.6875 -17.285156 23.222656 -18.5625 22.296875 -19.65625 C 21.367188 -20.75 20.160156 -21.296875 18.671875 -21.296875 C 17.210938 -21.296875 15.890625 -20.726562 14.703125 -19.59375 C 13.523438 -18.46875 12.9375 -17.210938 12.9375 -15.828125 L 12.9375 0 Z M 3.28125 0 "/></g></g><g style="fill:#ffffff;fill-opacity:1;"><g transform="translate(270.067523, 83.75996)"><path style="stroke:none" d=""/></g></g><g style="fill:#ffffff;fill-opacity:1;"><g transform="translate(282.24059, 83.75996)"><path style="stroke:none" d="M 26.15625 -45.046875 L 44.328125 0 L 33.296875 0 L 29.96875 -9.015625 L 12.828125 -9.015625 L 9.5 0 L -1.53125 0 L 16.65625 -45.046875 Z M 26.484375 -18.015625 L 21.453125 -31.125 L 21.34375 -31.125 L 16.328125 -18.015625 Z M 26.484375 -18.015625 "/></g></g><g style="fill:#ffffff;fill-opacity:1;"><g transform="translate(322.307982, 83.75996)"><path style="stroke:none" d="M 15.453125 -28.828125 C 17.054688 -28.828125 18.640625 -28.644531 20.203125 -28.28125 C 21.765625 -27.914062 22.925781 -27.550781 23.6875 -27.1875 L 24.84375 -26.640625 L 21.671875 -20.3125 C 19.484375 -21.476562 17.410156 -22.0625 15.453125 -22.0625 C 14.359375 -22.0625 13.582031 -21.941406 13.125 -21.703125 C 12.675781 -21.460938 12.453125 -21.015625 12.453125 -20.359375 C 12.453125 -20.210938 12.46875 -20.066406 12.5 -19.921875 C 12.539062 -19.773438 12.613281 -19.640625 12.71875 -19.515625 C 12.832031 -19.390625 12.929688 -19.28125 13.015625 -19.1875 C 13.109375 -19.09375 13.265625 -18.988281 13.484375 -18.875 C 13.703125 -18.769531 13.875 -18.691406 14 -18.640625 C 14.125 -18.585938 14.332031 -18.503906 14.625 -18.390625 C 14.914062 -18.285156 15.132812 -18.207031 15.28125 -18.15625 C 15.425781 -18.101562 15.671875 -18.019531 16.015625 -17.90625 C 16.367188 -17.800781 16.632812 -17.726562 16.8125 -17.6875 C 17.9375 -17.363281 18.914062 -17 19.75 -16.59375 C 20.59375 -16.195312 21.476562 -15.648438 22.40625 -14.953125 C 23.332031 -14.265625 24.050781 -13.390625 24.5625 -12.328125 C 25.070312 -11.273438 25.328125 -10.078125 25.328125 -8.734375 C 25.328125 -2.367188 20.90625 0.8125 12.0625 0.8125 C 10.0625 0.8125 8.160156 0.503906 6.359375 -0.109375 C 4.554688 -0.722656 3.253906 -1.34375 2.453125 -1.96875 L 1.25 -2.953125 L 5.1875 -9.546875 C 5.476562 -9.296875 5.859375 -9 6.328125 -8.65625 C 6.804688 -8.3125 7.660156 -7.835938 8.890625 -7.234375 C 10.128906 -6.628906 11.207031 -6.328125 12.125 -6.328125 C 14.125 -6.328125 15.125 -7.003906 15.125 -8.359375 C 15.125 -8.972656 14.867188 -9.453125 14.359375 -9.796875 C 13.847656 -10.140625 12.984375 -10.53125 11.765625 -10.96875 C 10.546875 -11.40625 9.59375 -11.804688 8.90625 -12.171875 C 7.15625 -13.085938 5.769531 -14.117188 4.75 -15.265625 C 3.726562 -16.410156 3.21875 -17.925781 3.21875 -19.8125 C 3.21875 -22.65625 4.316406 -24.867188 6.515625 -26.453125 C 8.722656 -28.035156 11.703125 -28.828125 15.453125 -28.828125 Z M 15.453125 -28.828125 "/></g></g><g style="fill:#ffffff;fill-opacity:1;"><g transform="translate(346.435767, 83.75996)"><path style="stroke:none" d="M 15.453125 -28.828125 C 17.054688 -28.828125 18.640625 -28.644531 20.203125 -28.28125 C 21.765625 -27.914062 22.925781 -27.550781 23.6875 -27.1875 L 24.84375 -26.640625 L 21.671875 -20.3125 C 19.484375 -21.476562 17.410156 -22.0625 15.453125 -22.0625 C 14.359375 -22.0625 13.582031 -21.941406 13.125 -21.703125 C 12.675781 -21.460938 12.453125 -21.015625 12.453125 -20.359375 C 12.453125 -20.210938 12.46875 -20.066406 12.5 -19.921875 C 12.539062 -19.773438 12.613281 -19.640625 12.71875 -19.515625 C 12.832031 -19.390625 12.929688 -19.28125 13.015625 -19.1875 C 13.109375 -19.09375 13.265625 -18.988281 13.484375 -18.875 C 13.703125 -18.769531 13.875 -18.691406 14 -18.640625 C 14.125 -18.585938 14.332031 -18.503906 14.625 -18.390625 C 14.914062 -18.285156 15.132812 -18.207031 15.28125 -18.15625 C 15.425781 -18.101562 15.671875 -18.019531 16.015625 -17.90625 C 16.367188 -17.800781 16.632812 -17.726562 16.8125 -17.6875 C 17.9375 -17.363281 18.914062 -17 19.75 -16.59375 C 20.59375 -16.195312 21.476562 -15.648438 22.40625 -14.953125 C 23.332031 -14.265625 24.050781 -13.390625 24.5625 -12.328125 C 25.070312 -11.273438 25.328125 -10.078125 25.328125 -8.734375 C 25.328125 -2.367188 20.90625 0.8125 12.0625 0.8125 C 10.0625 0.8125 8.160156 0.503906 6.359375 -0.109375 C 4.554688 -0.722656 3.253906 -1.34375 2.453125 -1.96875 L 1.25 -2.953125 L 5.1875 -9.546875 C 5.476562 -9.296875 5.859375 -9 6.328125 -8.65625 C 6.804688 -8.3125 7.660156 -7.835938 8.890625 -7.234375 C 10.128906 -6.628906 11.207031 -6.328125 12.125 -6.328125 C 14.125 -6.328125 15.125 -7.003906 15.125 -8.359375 C 15.125 -8.972656 14.867188 -9.453125 14.359375 -9.796875 C 13.847656 -10.140625 12.984375 -10.53125 11.765625 -10.96875 C 10.546875 -11.40625 9.59375 -11.804688 8.90625 -12.171875 C 7.15625 -13.085938 5.769531 -14.117188 4.75 -15.265625 C 3.726562 -16.410156 3.21875 -17.925781 3.21875 -19.8125 C 3.21875 -22.65625 4.316406 -24.867188 6.515625 -26.453125 C 8.722656 -28.035156 11.703125 -28.828125 15.453125 -28.828125 Z M 15.453125 -28.828125 "/></g></g><g style="fill:#ffffff;fill-opacity:1;"><g transform="translate(370.563527, 83.75996)"><path style="stroke:none" d="M 4.203125 -43.609375 C 5.328125 -44.742188 6.671875 -45.3125 8.234375 -45.3125 C 9.804688 -45.3125 11.15625 -44.742188 12.28125 -43.609375 C 13.40625 -42.484375 13.96875 -41.140625 13.96875 -39.578125 C 13.96875 -38.015625 13.40625 -36.664062 12.28125 -35.53125 C 11.15625 -34.40625 9.804688 -33.84375 8.234375 -33.84375 C 6.671875 -33.84375 5.328125 -34.40625 4.203125 -35.53125 C 3.078125 -36.664062 2.515625 -38.015625 2.515625 -39.578125 C 2.515625 -41.140625 3.078125 -42.484375 4.203125 -43.609375 Z M 3.28125 -28 L 3.28125 0 L 12.9375 0 L 12.9375 -28 Z M 3.28125 -28 "/></g></g><g style="fill:#ffffff;fill-opacity:1;"><g transform="translate(384.319636, 83.75996)"><path style="stroke:none" d="M 15.453125 -28.828125 C 17.054688 -28.828125 18.640625 -28.644531 20.203125 -28.28125 C 21.765625 -27.914062 22.925781 -27.550781 23.6875 -27.1875 L 24.84375 -26.640625 L 21.671875 -20.3125 C 19.484375 -21.476562 17.410156 -22.0625 15.453125 -22.0625 C 14.359375 -22.0625 13.582031 -21.941406 13.125 -21.703125 C 12.675781 -21.460938 12.453125 -21.015625 12.453125 -20.359375 C 12.453125 -20.210938 12.46875 -20.066406 12.5 -19.921875 C 12.539062 -19.773438 12.613281 -19.640625 12.71875 -19.515625 C 12.832031 -19.390625 12.929688 -19.28125 13.015625 -19.1875 C 13.109375 -19.09375 13.265625 -18.988281 13.484375 -18.875 C 13.703125 -18.769531 13.875 -18.691406 14 -18.640625 C 14.125 -18.585938 14.332031 -18.503906 14.625 -18.390625 C 14.914062 -18.285156 15.132812 -18.207031 15.28125 -18.15625 C 15.425781 -18.101562 15.671875 -18.019531 16.015625 -17.90625 C 16.367188 -17.800781 16.632812 -17.726562 16.8125 -17.6875 C 17.9375 -17.363281 18.914062 -17 19.75 -16.59375 C 20.59375 -16.195312 21.476562 -15.648438 22.40625 -14.953125 C 23.332031 -14.265625 24.050781 -13.390625 24.5625 -12.328125 C 25.070312 -11.273438 25.328125 -10.078125 25.328125 -8.734375 C 25.328125 -2.367188 20.90625 0.8125 12.0625 0.8125 C 10.0625 0.8125 8.160156 0.503906 6.359375 -0.109375 C 4.554688 -0.722656 3.253906 -1.34375 2.453125 -1.96875 L 1.25 -2.953125 L 5.1875 -9.546875 C 5.476562 -9.296875 5.859375 -9 6.328125 -8.65625 C 6.804688 -8.3125 7.660156 -7.835938 8.890625 -7.234375 C 10.128906 -6.628906 11.207031 -6.328125 12.125 -6.328125 C 14.125 -6.328125 15.125 -7.003906 15.125 -8.359375 C 15.125 -8.972656 14.867188 -9.453125 14.359375 -9.796875 C 13.847656 -10.140625 12.984375 -10.53125 11.765625 -10.96875 C 10.546875 -11.40625 9.59375 -11.804688 8.90625 -12.171875 C 7.15625 -13.085938 5.769531 -14.117188 4.75 -15.265625 C 3.726562 -16.410156 3.21875 -17.925781 3.21875 -19.8125 C 3.21875 -22.65625 4.316406 -24.867188 6.515625 -26.453125 C 8.722656 -28.035156 11.703125 -28.828125 15.453125 -28.828125 Z M 15.453125 -28.828125 "/></g></g><g style="fill:#ffffff;fill-opacity:1;"><g transform="translate(408.447421, 83.75996)"><path style="stroke:none" d="M 4.90625 -28 L 4.90625 -38.4375 L 14.578125 -38.4375 L 14.578125 -28 L 20.46875 -28 L 20.46875 -20.640625 L 14.578125 -20.640625 L 14.578125 -11.734375 C 14.578125 -9.148438 15.304688 -7.859375 16.765625 -7.859375 C 17.128906 -7.859375 17.507812 -7.929688 17.90625 -8.078125 C 18.300781 -8.222656 18.609375 -8.367188 18.828125 -8.515625 L 19.15625 -8.734375 L 21.5625 -0.921875 C 19.488281 0.234375 17.125 0.8125 14.46875 0.8125 C 12.644531 0.8125 11.078125 0.492188 9.765625 -0.140625 C 8.460938 -0.773438 7.472656 -1.628906 6.796875 -2.703125 C 6.117188 -3.773438 5.632812 -4.898438 5.34375 -6.078125 C 5.050781 -7.265625 4.90625 -8.53125 4.90625 -9.875 L 4.90625 -20.640625 L 0.875 -20.640625 L 0.875 -28 Z M 4.90625 -28 "/></g></g><g style="fill:#ffffff;fill-opacity:1;"><g transform="translate(427.280193, 83.75996)"><path style="stroke:none" d="M 5.171875 -3.46875 C 2.554688 -6.320312 1.25 -9.820312 1.25 -13.96875 C 1.25 -18.125 2.554688 -21.640625 5.171875 -24.515625 C 7.796875 -27.390625 11.128906 -28.828125 15.171875 -28.828125 C 18.890625 -28.828125 21.945312 -27.660156 24.34375 -25.328125 L 24.34375 -28 L 34.015625 -28 L 34.015625 0 L 24.453125 0 L 24.453125 -3.171875 L 24.34375 -3.171875 C 21.945312 -0.515625 18.890625 0.8125 15.171875 0.8125 C 11.128906 0.8125 7.796875 -0.613281 5.171875 -3.46875 Z M 13.390625 -18.71875 C 12.140625 -17.488281 11.515625 -15.90625 11.515625 -13.96875 C 11.515625 -12.039062 12.113281 -10.46875 13.3125 -9.25 C 14.519531 -8.03125 16.109375 -7.421875 18.078125 -7.421875 C 19.960938 -7.421875 21.515625 -8.039062 22.734375 -9.28125 C 23.953125 -10.519531 24.5625 -12.082031 24.5625 -13.96875 C 24.5625 -15.90625 23.929688 -17.488281 22.671875 -18.71875 C 21.421875 -19.957031 19.890625 -20.578125 18.078125 -20.578125 C 16.210938 -20.578125 14.648438 -19.957031 13.390625 -18.71875 Z M 13.390625 -18.71875 "/></g></g><g style="fill:#ffffff;fill-opacity:1;"><g transform="translate(461.834222, 83.75996)"><path style="stroke:none" d="M 3.28125 0 L 3.28125 -28 L 12.9375 -28 L 12.9375 -25.0625 L 13.046875 -25.0625 C 15.554688 -27.570312 18.234375 -28.828125 21.078125 -28.828125 C 22.453125 -28.828125 23.820312 -28.644531 25.1875 -28.28125 C 26.5625 -27.914062 27.875 -27.347656 29.125 -26.578125 C 30.382812 -25.816406 31.40625 -24.734375 32.1875 -23.328125 C 32.96875 -21.929688 33.359375 -20.304688 33.359375 -18.453125 L 33.359375 0 L 23.6875 0 L 23.6875 -15.828125 C 23.6875 -17.285156 23.222656 -18.5625 22.296875 -19.65625 C 21.367188 -20.75 20.160156 -21.296875 18.671875 -21.296875 C 17.210938 -21.296875 15.890625 -20.726562 14.703125 -19.59375 C 13.523438 -18.46875 12.9375 -17.210938 12.9375 -15.828125 L 12.9375 0 Z M 3.28125 0 "/></g></g><g style="fill:#ffffff;fill-opacity:1;"><g transform="translate(495.187339, 83.75996)"><path style="stroke:none" d="M 18.1875 -20.90625 C 16.363281 -20.90625 14.796875 -20.234375 13.484375 -18.890625 C 12.171875 -17.546875 11.515625 -15.925781 11.515625 -14.03125 C 11.515625 -12.101562 12.171875 -10.460938 13.484375 -9.109375 C 14.796875 -7.765625 16.363281 -7.09375 18.1875 -7.09375 C 19.050781 -7.09375 19.875 -7.203125 20.65625 -7.421875 C 21.445312 -7.640625 22.023438 -7.859375 22.390625 -8.078125 L 22.875 -8.40625 L 26.15625 -1.6875 C 25.894531 -1.507812 25.535156 -1.28125 25.078125 -1 C 24.628906 -0.726562 23.59375 -0.359375 21.96875 0.109375 C 20.351562 0.578125 18.617188 0.8125 16.765625 0.8125 C 12.648438 0.8125 9.035156 -0.628906 5.921875 -3.515625 C 2.804688 -6.410156 1.25 -9.878906 1.25 -13.921875 C 1.25 -17.992188 2.804688 -21.492188 5.921875 -24.421875 C 9.035156 -27.359375 12.648438 -28.828125 16.765625 -28.828125 C 18.617188 -28.828125 20.328125 -28.609375 21.890625 -28.171875 C 23.453125 -27.734375 24.5625 -27.296875 25.21875 -26.859375 L 26.15625 -26.203125 L 22.875 -19.59375 C 21.675781 -20.46875 20.113281 -20.90625 18.1875 -20.90625 Z M 18.1875 -20.90625 "/></g></g><g style="fill:#ffffff;fill-opacity:1;"><g transform="translate(519.26053, 83.75996)"><path style="stroke:none" d="M 31.609375 -12.671875 L 11.296875 -12.671875 C 11.296875 -10.703125 11.929688 -9.242188 13.203125 -8.296875 C 14.484375 -7.347656 15.867188 -6.875 17.359375 -6.875 C 18.921875 -6.875 20.15625 -7.082031 21.0625 -7.5 C 21.976562 -7.925781 23.019531 -8.753906 24.1875 -9.984375 L 31.171875 -6.5 C 28.265625 -1.625 23.425781 0.8125 16.65625 0.8125 C 12.425781 0.8125 8.800781 -0.628906 5.78125 -3.515625 C 2.757812 -6.410156 1.25 -9.894531 1.25 -13.96875 C 1.25 -18.050781 2.757812 -21.546875 5.78125 -24.453125 C 8.800781 -27.367188 12.425781 -28.828125 16.65625 -28.828125 C 21.09375 -28.828125 24.703125 -27.539062 27.484375 -24.96875 C 30.273438 -22.40625 31.671875 -18.738281 31.671875 -13.96875 C 31.671875 -13.320312 31.648438 -12.890625 31.609375 -12.671875 Z M 11.578125 -18.015625 L 22.21875 -18.015625 C 22 -19.472656 21.425781 -20.59375 20.5 -21.375 C 19.570312 -22.15625 18.378906 -22.546875 16.921875 -22.546875 C 15.316406 -22.546875 14.039062 -22.125 13.09375 -21.28125 C 12.15625 -20.445312 11.648438 -19.359375 11.578125 -18.015625 Z M 11.578125 -18.015625 "/></g></g></g></svg>