<svg xmlns="http://www.w3.org/2000/svg" xmlns:xlink="http://www.w3.org/1999/xlink" width="750" zoomAndPan="magnify" viewBox="0 0 562.5 135.000003" height="180" preserveAspectRatio="xMidYMid meet" version="1.2"><defs/><g id="80f65bff5c"><g style="fill:#ffde59;fill-opacity:0.5216;"><g transform="translate(18.646735, 87.571724)"><path style="stroke:none" d="M 31.703125 -10.796875 C 33.523438 -10.796875 35.296875 -11.070312 37.015625 -11.625 C 38.734375 -12.175781 39.992188 -12.707031 40.796875 -13.21875 L 42 -14.046875 L 47.09375 -3.875 C 46.914062 -3.75 46.675781 -3.578125 46.375 -3.359375 C 46.082031 -3.148438 45.394531 -2.757812 44.3125 -2.1875 C 43.238281 -1.613281 42.085938 -1.113281 40.859375 -0.6875 C 39.628906 -0.269531 38.019531 0.101562 36.03125 0.4375 C 34.039062 0.78125 31.984375 0.953125 29.859375 0.953125 C 24.992188 0.953125 20.378906 -0.242188 16.015625 -2.640625 C 11.648438 -5.035156 8.132812 -8.328125 5.46875 -12.515625 C 2.800781 -16.710938 1.46875 -21.25 1.46875 -26.125 C 1.46875 -29.800781 2.25 -33.332031 3.8125 -36.71875 C 5.375 -40.113281 7.457031 -43.019531 10.0625 -45.4375 C 12.675781 -47.851562 15.71875 -49.78125 19.1875 -51.21875 C 22.664062 -52.65625 26.222656 -53.375 29.859375 -53.375 C 33.253906 -53.375 36.378906 -52.972656 39.234375 -52.171875 C 42.097656 -51.367188 44.125 -50.5625 45.3125 -49.75 L 47.09375 -48.546875 L 42 -38.375 C 41.707031 -38.632812 41.265625 -38.941406 40.671875 -39.296875 C 40.078125 -39.660156 38.890625 -40.140625 37.109375 -40.734375 C 35.328125 -41.328125 33.523438 -41.625 31.703125 -41.625 C 28.828125 -41.625 26.242188 -41.15625 23.953125 -40.21875 C 21.671875 -39.289062 19.859375 -38.0625 18.515625 -36.53125 C 17.179688 -35.007812 16.164062 -33.367188 15.46875 -31.609375 C 14.769531 -29.859375 14.421875 -28.070312 14.421875 -26.25 C 14.421875 -22.257812 15.914062 -18.6875 18.90625 -15.53125 C 21.894531 -12.375 26.160156 -10.796875 31.703125 -10.796875 Z M 31.703125 -10.796875 "/></g></g><g style="fill:#ffde59;fill-opacity:0.5216;"><g transform="translate(63.318958, 87.571724)"><path style="stroke:none" d="M 3.8125 0 L 3.8125 -54.65625 L 15.0625 -54.65625 L 15.0625 0 Z M 3.8125 0 "/></g></g><g style="fill:#ffffff;fill-opacity:1;"><g transform="translate(15.220582, 84.145572)"><path style="stroke:none" d="M 31.703125 -10.796875 C 33.523438 -10.796875 35.296875 -11.070312 37.015625 -11.625 C 38.734375 -12.175781 39.992188 -12.707031 40.796875 -13.21875 L 42 -14.046875 L 47.09375 -3.875 C 46.914062 -3.75 46.675781 -3.578125 46.375 -3.359375 C 46.082031 -3.148438 45.394531 -2.757812 44.3125 -2.1875 C 43.238281 -1.613281 42.085938 -1.113281 40.859375 -0.6875 C 39.628906 -0.269531 38.019531 0.101562 36.03125 0.4375 C 34.039062 0.78125 31.984375 0.953125 29.859375 0.953125 C 24.992188 0.953125 20.378906 -0.242188 16.015625 -2.640625 C 11.648438 -5.035156 8.132812 -8.328125 5.46875 -12.515625 C 2.800781 -16.710938 1.46875 -21.25 1.46875 -26.125 C 1.46875 -29.800781 2.25 -33.332031 3.8125 -36.71875 C 5.375 -40.113281 7.457031 -43.019531 10.0625 -45.4375 C 12.675781 -47.851562 15.71875 -49.78125 19.1875 -51.21875 C 22.664062 -52.65625 26.222656 -53.375 29.859375 -53.375 C 33.253906 -53.375 36.378906 -52.972656 39.234375 -52.171875 C 42.097656 -51.367188 44.125 -50.5625 45.3125 -49.75 L 47.09375 -48.546875 L 42 -38.375 C 41.707031 -38.632812 41.265625 -38.941406 40.671875 -39.296875 C 40.078125 -39.660156 38.890625 -40.140625 37.109375 -40.734375 C 35.328125 -41.328125 33.523438 -41.625 31.703125 -41.625 C 28.828125 -41.625 26.242188 -41.15625 23.953125 -40.21875 C 21.671875 -39.289062 19.859375 -38.0625 18.515625 -36.53125 C 17.179688 -35.007812 16.164062 -33.367188 15.46875 -31.609375 C 14.769531 -29.859375 14.421875 -28.070312 14.421875 -26.25 C 14.421875 -22.257812 15.914062 -18.6875 18.90625 -15.53125 C 21.894531 -12.375 26.160156 -10.796875 31.703125 -10.796875 Z M 31.703125 -10.796875 "/></g></g><g style="fill:#ffffff;fill-opacity:1;"><g transform="translate(59.892804, 84.145572)"><path style="stroke:none" d="M 3.8125 0 L 3.8125 -54.65625 L 15.0625 -54.65625 L 15.0625 0 Z M 3.8125 0 "/></g></g><g style="fill:#ffde59;fill-opacity:0.5216;"><g transform="translate(79.02165, 87.571724)"><path style="stroke:none" d="M 6.03125 -4.03125 C 2.988281 -7.363281 1.46875 -11.441406 1.46875 -16.265625 C 1.46875 -21.097656 2.988281 -25.1875 6.03125 -28.53125 C 9.082031 -31.875 12.960938 -33.546875 17.671875 -33.546875 C 21.984375 -33.546875 25.539062 -32.191406 28.34375 -29.484375 L 28.34375 -32.59375 L 39.59375 -32.59375 L 39.59375 0 L 28.46875 0 L 28.46875 -3.6875 L 28.34375 -3.6875 C 25.539062 -0.59375 21.984375 0.953125 17.671875 0.953125 C 12.960938 0.953125 9.082031 -0.707031 6.03125 -4.03125 Z M 15.59375 -21.796875 C 14.132812 -20.359375 13.40625 -18.515625 13.40625 -16.265625 C 13.40625 -14.023438 14.101562 -12.191406 15.5 -10.765625 C 16.90625 -9.347656 18.75 -8.640625 21.03125 -8.640625 C 23.238281 -8.640625 25.050781 -9.359375 26.46875 -10.796875 C 27.882812 -12.242188 28.59375 -14.066406 28.59375 -16.265625 C 28.59375 -18.515625 27.863281 -20.359375 26.40625 -21.796875 C 24.945312 -23.234375 23.15625 -23.953125 21.03125 -23.953125 C 18.875 -23.953125 17.0625 -23.234375 15.59375 -21.796875 Z M 15.59375 -21.796875 "/></g></g><g style="fill:#ffde59;fill-opacity:0.5216;"><g transform="translate(119.245715, 87.571724)"><path style="stroke:none" d="M 3.8125 0 L 3.8125 -32.59375 L 15.0625 -32.59375 L 15.0625 -27.890625 L 15.1875 -27.890625 C 15.269531 -28.066406 15.40625 -28.28125 15.59375 -28.53125 C 15.789062 -28.78125 16.207031 -29.222656 16.84375 -29.859375 C 17.476562 -30.492188 18.15625 -31.066406 18.875 -31.578125 C 19.59375 -32.085938 20.523438 -32.539062 21.671875 -32.9375 C 22.816406 -33.34375 23.984375 -33.546875 25.171875 -33.546875 C 26.390625 -33.546875 27.59375 -33.375 28.78125 -33.03125 C 29.96875 -32.695312 30.835938 -32.363281 31.390625 -32.03125 L 32.28125 -31.515625 L 27.578125 -21.984375 C 26.179688 -23.171875 24.234375 -23.765625 21.734375 -23.765625 C 20.378906 -23.765625 19.210938 -23.46875 18.234375 -22.875 C 17.265625 -22.28125 16.578125 -21.5625 16.171875 -20.71875 C 15.765625 -19.875 15.476562 -19.15625 15.3125 -18.5625 C 15.144531 -17.96875 15.0625 -17.5 15.0625 -17.15625 L 15.0625 0 Z M 3.8125 0 "/></g></g><g style="fill:#ffde59;fill-opacity:0.5216;"><g transform="translate(147.713931, 87.571724)"><path style="stroke:none" d="M 4.890625 -50.765625 C 6.203125 -52.085938 7.769531 -52.75 9.59375 -52.75 C 11.414062 -52.75 12.984375 -52.085938 14.296875 -50.765625 C 15.609375 -49.453125 16.265625 -47.882812 16.265625 -46.0625 C 16.265625 -44.25 15.609375 -42.6875 14.296875 -41.375 C 12.984375 -40.0625 11.414062 -39.40625 9.59375 -39.40625 C 7.769531 -39.40625 6.203125 -40.0625 4.890625 -41.375 C 3.578125 -42.6875 2.921875 -44.25 2.921875 -46.0625 C 2.921875 -47.882812 3.578125 -49.453125 4.890625 -50.765625 Z M 3.8125 -32.59375 L 3.8125 0 L 15.0625 0 L 15.0625 -32.59375 Z M 3.8125 -32.59375 "/></g></g><g style="fill:#ffde59;fill-opacity:0.5216;"><g transform="translate(163.727303, 87.571724)"><path style="stroke:none" d="M 5.71875 -32.59375 L 5.71875 -44.734375 L 16.96875 -44.734375 L 16.96875 -32.59375 L 23.828125 -32.59375 L 23.828125 -24.015625 L 16.96875 -24.015625 L 16.96875 -13.65625 C 16.96875 -10.65625 17.816406 -9.15625 19.515625 -9.15625 C 19.929688 -9.15625 20.375 -9.238281 20.84375 -9.40625 C 21.3125 -9.570312 21.671875 -9.738281 21.921875 -9.90625 L 22.3125 -10.171875 L 25.09375 -1.078125 C 22.6875 0.273438 19.9375 0.953125 16.84375 0.953125 C 14.71875 0.953125 12.894531 0.582031 11.375 -0.15625 C 9.851562 -0.894531 8.695312 -1.890625 7.90625 -3.140625 C 7.125 -4.390625 6.5625 -5.703125 6.21875 -7.078125 C 5.882812 -8.460938 5.71875 -9.9375 5.71875 -11.5 L 5.71875 -24.015625 L 1.015625 -24.015625 L 1.015625 -32.59375 Z M 5.71875 -32.59375 "/></g></g><g style="fill:#ffde59;fill-opacity:0.5216;"><g transform="translate(185.650377, 87.571724)"><path style="stroke:none" d="M 28.53125 -32.59375 L 41.5 -32.59375 L 15.890625 16.515625 L 2.921875 16.515625 L 14.171875 -5.078125 L -1.265625 -32.59375 L 11.6875 -32.59375 L 20.78125 -15.890625 Z M 28.53125 -32.59375 "/></g></g><g style="fill:#ffde59;fill-opacity:0.5216;"><g transform="translate(222.697196, 87.571724)"><path style="stroke:none" d=""/></g></g><g style="fill:#ffde59;fill-opacity:0.5216;"><g transform="translate(236.867762, 87.571724)"><path style="stroke:none" d="M 1.46875 -26.25 C 1.46875 -33.832031 4.050781 -40.25 9.21875 -45.5 C 14.382812 -50.75 20.609375 -53.375 27.890625 -53.375 C 35.222656 -53.375 41.453125 -50.757812 46.578125 -45.53125 C 51.703125 -40.300781 54.265625 -33.875 54.265625 -26.25 C 54.265625 -18.582031 51.742188 -12.128906 46.703125 -6.890625 C 41.660156 -1.660156 35.390625 0.953125 27.890625 0.953125 C 20.222656 0.953125 13.898438 -1.640625 8.921875 -6.828125 C 3.953125 -12.015625 1.46875 -18.488281 1.46875 -26.25 Z M 14.359375 -26.25 C 14.359375 -23.488281 14.78125 -20.972656 15.625 -18.703125 C 16.476562 -16.441406 17.960938 -14.523438 20.078125 -12.953125 C 22.203125 -11.390625 24.804688 -10.609375 27.890625 -10.609375 C 32.335938 -10.609375 35.695312 -12.132812 37.96875 -15.1875 C 40.238281 -18.238281 41.375 -21.925781 41.375 -26.25 C 41.375 -30.519531 40.21875 -34.191406 37.90625 -37.265625 C 35.59375 -40.335938 32.253906 -41.875 27.890625 -41.875 C 23.578125 -41.875 20.242188 -40.335938 17.890625 -37.265625 C 15.535156 -34.191406 14.359375 -30.519531 14.359375 -26.25 Z M 14.359375 -26.25 "/></g></g><g style="fill:#ffde59;fill-opacity:0.5216;"><g transform="translate(289.419581, 87.571724)"><path style="stroke:none" d="M 12.078125 -32.59375 L 20.015625 -14.875 L 27.953125 -32.59375 L 41.3125 -32.59375 L 23.828125 0 L 16.203125 0 L -1.265625 -32.59375 Z M 12.078125 -32.59375 "/></g></g><g style="fill:#ffde59;fill-opacity:0.5216;"><g transform="translate(326.275759, 87.571724)"><path style="stroke:none" d="M 36.796875 -14.75 L 13.15625 -14.75 C 13.15625 -12.457031 13.894531 -10.757812 15.375 -9.65625 C 16.863281 -8.550781 18.472656 -8 20.203125 -8 C 22.023438 -8 23.46875 -8.242188 24.53125 -8.734375 C 25.59375 -9.222656 26.800781 -10.1875 28.15625 -11.625 L 36.28125 -7.5625 C 32.894531 -1.882812 27.257812 0.953125 19.375 0.953125 C 14.46875 0.953125 10.253906 -0.726562 6.734375 -4.09375 C 3.222656 -7.46875 1.46875 -11.523438 1.46875 -16.265625 C 1.46875 -21.015625 3.222656 -25.082031 6.734375 -28.46875 C 10.253906 -31.851562 14.46875 -33.546875 19.375 -33.546875 C 24.550781 -33.546875 28.757812 -32.050781 32 -29.0625 C 35.238281 -26.082031 36.859375 -21.816406 36.859375 -16.265625 C 36.859375 -15.503906 36.835938 -15 36.796875 -14.75 Z M 13.46875 -20.96875 L 25.859375 -20.96875 C 25.609375 -22.664062 24.941406 -23.96875 23.859375 -24.875 C 22.773438 -25.789062 21.390625 -26.25 19.703125 -26.25 C 17.835938 -26.25 16.351562 -25.757812 15.25 -24.78125 C 14.144531 -23.8125 13.550781 -22.539062 13.46875 -20.96875 Z M 13.46875 -20.96875 "/></g></g><g style="fill:#ffde59;fill-opacity:0.5216;"><g transform="translate(361.416206, 87.571724)"><path style="stroke:none" d="M 3.8125 0 L 3.8125 -32.59375 L 15.0625 -32.59375 L 15.0625 -27.890625 L 15.1875 -27.890625 C 15.269531 -28.066406 15.40625 -28.28125 15.59375 -28.53125 C 15.789062 -28.78125 16.207031 -29.222656 16.84375 -29.859375 C 17.476562 -30.492188 18.15625 -31.066406 18.875 -31.578125 C 19.59375 -32.085938 20.523438 -32.539062 21.671875 -32.9375 C 22.816406 -33.34375 23.984375 -33.546875 25.171875 -33.546875 C 26.390625 -33.546875 27.59375 -33.375 28.78125 -33.03125 C 29.96875 -32.695312 30.835938 -32.363281 31.390625 -32.03125 L 32.28125 -31.515625 L 27.578125 -21.984375 C 26.179688 -23.171875 24.234375 -23.765625 21.734375 -23.765625 C 20.378906 -23.765625 19.210938 -23.46875 18.234375 -22.875 C 17.265625 -22.28125 16.578125 -21.5625 16.171875 -20.71875 C 15.765625 -19.875 15.476562 -19.15625 15.3125 -18.5625 C 15.144531 -17.96875 15.0625 -17.5 15.0625 -17.15625 L 15.0625 0 Z M 3.8125 0 "/></g></g><g style="fill:#ffde59;fill-opacity:0.5216;"><g transform="translate(389.884414, 87.571724)"><path style="stroke:none" d=""/></g></g><g style="fill:#ffde59;fill-opacity:0.5216;"><g transform="translate(404.054981, 87.571724)"><path style="stroke:none" d="M 31.703125 -10.796875 C 33.523438 -10.796875 35.296875 -11.070312 37.015625 -11.625 C 38.734375 -12.175781 39.992188 -12.707031 40.796875 -13.21875 L 42 -14.046875 L 47.09375 -3.875 C 46.914062 -3.75 46.675781 -3.578125 46.375 -3.359375 C 46.082031 -3.148438 45.394531 -2.757812 44.3125 -2.1875 C 43.238281 -1.613281 42.085938 -1.113281 40.859375 -0.6875 C 39.628906 -0.269531 38.019531 0.101562 36.03125 0.4375 C 34.039062 0.78125 31.984375 0.953125 29.859375 0.953125 C 24.992188 0.953125 20.378906 -0.242188 16.015625 -2.640625 C 11.648438 -5.035156 8.132812 -8.328125 5.46875 -12.515625 C 2.800781 -16.710938 1.46875 -21.25 1.46875 -26.125 C 1.46875 -29.800781 2.25 -33.332031 3.8125 -36.71875 C 5.375 -40.113281 7.457031 -43.019531 10.0625 -45.4375 C 12.675781 -47.851562 15.71875 -49.78125 19.1875 -51.21875 C 22.664062 -52.65625 26.222656 -53.375 29.859375 -53.375 C 33.253906 -53.375 36.378906 -52.972656 39.234375 -52.171875 C 42.097656 -51.367188 44.125 -50.5625 45.3125 -49.75 L 47.09375 -48.546875 L 42 -38.375 C 41.707031 -38.632812 41.265625 -38.941406 40.671875 -39.296875 C 40.078125 -39.660156 38.890625 -40.140625 37.109375 -40.734375 C 35.328125 -41.328125 33.523438 -41.625 31.703125 -41.625 C 28.828125 -41.625 26.242188 -41.15625 23.953125 -40.21875 C 21.671875 -39.289062 19.859375 -38.0625 18.515625 -36.53125 C 17.179688 -35.007812 16.164062 -33.367188 15.46875 -31.609375 C 14.769531 -29.859375 14.421875 -28.070312 14.421875 -26.25 C 14.421875 -22.257812 15.914062 -18.6875 18.90625 -15.53125 C 21.894531 -12.375 26.160156 -10.796875 31.703125 -10.796875 Z M 31.703125 -10.796875 "/></g></g><g style="fill:#ffde59;fill-opacity:0.5216;"><g transform="translate(448.727217, 87.571724)"><path style="stroke:none" d="M 6.890625 -3.875 C 3.273438 -7.09375 1.46875 -11.222656 1.46875 -16.265625 C 1.46875 -21.304688 3.347656 -25.445312 7.109375 -28.6875 C 10.878906 -31.925781 15.539062 -33.546875 21.09375 -33.546875 C 26.5625 -33.546875 31.171875 -31.914062 34.921875 -28.65625 C 38.671875 -25.394531 40.546875 -21.265625 40.546875 -16.265625 C 40.546875 -11.265625 38.710938 -7.144531 35.046875 -3.90625 C 31.378906 -0.664062 26.726562 0.953125 21.09375 0.953125 C 15.25 0.953125 10.515625 -0.65625 6.890625 -3.875 Z M 15.59375 -21.796875 C 14.132812 -20.359375 13.40625 -18.515625 13.40625 -16.265625 C 13.40625 -14.023438 14.101562 -12.191406 15.5 -10.765625 C 16.90625 -9.347656 18.75 -8.640625 21.03125 -8.640625 C 23.238281 -8.640625 25.050781 -9.359375 26.46875 -10.796875 C 27.882812 -12.242188 28.59375 -14.066406 28.59375 -16.265625 C 28.59375 -18.515625 27.863281 -20.359375 26.40625 -21.796875 C 24.945312 -23.234375 23.15625 -23.953125 21.03125 -23.953125 C 18.875 -23.953125 17.0625 -23.234375 15.59375 -21.796875 Z M 15.59375 -21.796875 "/></g></g><g style="fill:#ffde59;fill-opacity:0.5216;"><g transform="translate(487.553276, 87.571724)"><path style="stroke:none" d="M 17.984375 -33.546875 C 19.847656 -33.546875 21.691406 -33.332031 23.515625 -32.90625 C 25.335938 -32.488281 26.691406 -32.066406 27.578125 -31.640625 L 28.90625 -31.015625 L 25.234375 -23.640625 C 22.691406 -24.992188 20.273438 -25.671875 17.984375 -25.671875 C 16.710938 -25.671875 15.8125 -25.53125 15.28125 -25.25 C 14.75 -24.976562 14.484375 -24.460938 14.484375 -23.703125 C 14.484375 -23.535156 14.503906 -23.363281 14.546875 -23.1875 C 14.585938 -23.019531 14.671875 -22.863281 14.796875 -22.71875 C 14.929688 -22.570312 15.050781 -22.441406 15.15625 -22.328125 C 15.257812 -22.222656 15.4375 -22.109375 15.6875 -21.984375 C 15.945312 -21.859375 16.148438 -21.765625 16.296875 -21.703125 C 16.441406 -21.640625 16.679688 -21.539062 17.015625 -21.40625 C 17.359375 -21.28125 17.613281 -21.1875 17.78125 -21.125 C 17.957031 -21.0625 18.242188 -20.96875 18.640625 -20.84375 C 19.046875 -20.71875 19.359375 -20.632812 19.578125 -20.59375 C 20.890625 -20.207031 22.03125 -19.78125 23 -19.3125 C 23.976562 -18.851562 25.003906 -18.21875 26.078125 -17.40625 C 27.160156 -16.601562 28 -15.585938 28.59375 -14.359375 C 29.1875 -13.128906 29.484375 -11.734375 29.484375 -10.171875 C 29.484375 -2.753906 24.335938 0.953125 14.046875 0.953125 C 11.710938 0.953125 9.492188 0.59375 7.390625 -0.125 C 5.296875 -0.84375 3.785156 -1.5625 2.859375 -2.28125 L 1.46875 -3.4375 L 6.03125 -11.125 C 6.375 -10.820312 6.820312 -10.46875 7.375 -10.0625 C 7.925781 -9.664062 8.921875 -9.117188 10.359375 -8.421875 C 11.796875 -7.722656 13.046875 -7.375 14.109375 -7.375 C 16.441406 -7.375 17.609375 -8.15625 17.609375 -9.71875 C 17.609375 -10.4375 17.3125 -11 16.71875 -11.40625 C 16.125 -11.8125 15.113281 -12.265625 13.6875 -12.765625 C 12.269531 -13.273438 11.160156 -13.742188 10.359375 -14.171875 C 8.328125 -15.234375 6.71875 -16.429688 5.53125 -17.765625 C 4.34375 -19.097656 3.75 -20.863281 3.75 -23.0625 C 3.75 -26.375 5.03125 -28.945312 7.59375 -30.78125 C 10.15625 -32.625 13.617188 -33.546875 17.984375 -33.546875 Z M 17.984375 -33.546875 "/></g></g><g style="fill:#ffde59;fill-opacity:0.5216;"><g transform="translate(515.64023, 87.571724)"><path style="stroke:none" d="M 5.71875 -32.59375 L 5.71875 -44.734375 L 16.96875 -44.734375 L 16.96875 -32.59375 L 23.828125 -32.59375 L 23.828125 -24.015625 L 16.96875 -24.015625 L 16.96875 -13.65625 C 16.96875 -10.65625 17.816406 -9.15625 19.515625 -9.15625 C 19.929688 -9.15625 20.375 -9.238281 20.84375 -9.40625 C 21.3125 -9.570312 21.671875 -9.738281 21.921875 -9.90625 L 22.3125 -10.171875 L 25.09375 -1.078125 C 22.6875 0.273438 19.9375 0.953125 16.84375 0.953125 C 14.71875 0.953125 12.894531 0.582031 11.375 -0.15625 C 9.851562 -0.894531 8.695312 -1.890625 7.90625 -3.140625 C 7.125 -4.390625 6.5625 -5.703125 6.21875 -7.078125 C 5.882812 -8.460938 5.71875 -9.9375 5.71875 -11.5 L 5.71875 -24.015625 L 1.015625 -24.015625 L 1.015625 -32.59375 Z M 5.71875 -32.59375 "/></g></g><g style="fill:#ffffff;fill-opacity:1;"><g transform="translate(75.595496, 84.145572)"><path style="stroke:none" d="M 6.03125 -4.03125 C 2.988281 -7.363281 1.46875 -11.441406 1.46875 -16.265625 C 1.46875 -21.097656 2.988281 -25.1875 6.03125 -28.53125 C 9.082031 -31.875 12.960938 -33.546875 17.671875 -33.546875 C 21.984375 -33.546875 25.539062 -32.191406 28.34375 -29.484375 L 28.34375 -32.59375 L 39.59375 -32.59375 L 39.59375 0 L 28.46875 0 L 28.46875 -3.6875 L 28.34375 -3.6875 C 25.539062 -0.59375 21.984375 0.953125 17.671875 0.953125 C 12.960938 0.953125 9.082031 -0.707031 6.03125 -4.03125 Z M 15.59375 -21.796875 C 14.132812 -20.359375 13.40625 -18.515625 13.40625 -16.265625 C 13.40625 -14.023438 14.101562 -12.191406 15.5 -10.765625 C 16.90625 -9.347656 18.75 -8.640625 21.03125 -8.640625 C 23.238281 -8.640625 25.050781 -9.359375 26.46875 -10.796875 C 27.882812 -12.242188 28.59375 -14.066406 28.59375 -16.265625 C 28.59375 -18.515625 27.863281 -20.359375 26.40625 -21.796875 C 24.945312 -23.234375 23.15625 -23.953125 21.03125 -23.953125 C 18.875 -23.953125 17.0625 -23.234375 15.59375 -21.796875 Z M 15.59375 -21.796875 "/></g></g><g style="fill:#ffffff;fill-opacity:1;"><g transform="translate(115.819562, 84.145572)"><path style="stroke:none" d="M 3.8125 0 L 3.8125 -32.59375 L 15.0625 -32.59375 L 15.0625 -27.890625 L 15.1875 -27.890625 C 15.269531 -28.066406 15.40625 -28.28125 15.59375 -28.53125 C 15.789062 -28.78125 16.207031 -29.222656 16.84375 -29.859375 C 17.476562 -30.492188 18.15625 -31.066406 18.875 -31.578125 C 19.59375 -32.085938 20.523438 -32.539062 21.671875 -32.9375 C 22.816406 -33.34375 23.984375 -33.546875 25.171875 -33.546875 C 26.390625 -33.546875 27.59375 -33.375 28.78125 -33.03125 C 29.96875 -32.695312 30.835938 -32.363281 31.390625 -32.03125 L 32.28125 -31.515625 L 27.578125 -21.984375 C 26.179688 -23.171875 24.234375 -23.765625 21.734375 -23.765625 C 20.378906 -23.765625 19.210938 -23.46875 18.234375 -22.875 C 17.265625 -22.28125 16.578125 -21.5625 16.171875 -20.71875 C 15.765625 -19.875 15.476562 -19.15625 15.3125 -18.5625 C 15.144531 -17.96875 15.0625 -17.5 15.0625 -17.15625 L 15.0625 0 Z M 3.8125 0 "/></g></g><g style="fill:#ffffff;fill-opacity:1;"><g transform="translate(144.287777, 84.145572)"><path style="stroke:none" d="M 4.890625 -50.765625 C 6.203125 -52.085938 7.769531 -52.75 9.59375 -52.75 C 11.414062 -52.75 12.984375 -52.085938 14.296875 -50.765625 C 15.609375 -49.453125 16.265625 -47.882812 16.265625 -46.0625 C 16.265625 -44.25 15.609375 -42.6875 14.296875 -41.375 C 12.984375 -40.0625 11.414062 -39.40625 9.59375 -39.40625 C 7.769531 -39.40625 6.203125 -40.0625 4.890625 -41.375 C 3.578125 -42.6875 2.921875 -44.25 2.921875 -46.0625 C 2.921875 -47.882812 3.578125 -49.453125 4.890625 -50.765625 Z M 3.8125 -32.59375 L 3.8125 0 L 15.0625 0 L 15.0625 -32.59375 Z M 3.8125 -32.59375 "/></g></g><g style="fill:#ffffff;fill-opacity:1;"><g transform="translate(160.30115, 84.145572)"><path style="stroke:none" d="M 5.71875 -32.59375 L 5.71875 -44.734375 L 16.96875 -44.734375 L 16.96875 -32.59375 L 23.828125 -32.59375 L 23.828125 -24.015625 L 16.96875 -24.015625 L 16.96875 -13.65625 C 16.96875 -10.65625 17.816406 -9.15625 19.515625 -9.15625 C 19.929688 -9.15625 20.375 -9.238281 20.84375 -9.40625 C 21.3125 -9.570312 21.671875 -9.738281 21.921875 -9.90625 L 22.3125 -10.171875 L 25.09375 -1.078125 C 22.6875 0.273438 19.9375 0.953125 16.84375 0.953125 C 14.71875 0.953125 12.894531 0.582031 11.375 -0.15625 C 9.851562 -0.894531 8.695312 -1.890625 7.90625 -3.140625 C 7.125 -4.390625 6.5625 -5.703125 6.21875 -7.078125 C 5.882812 -8.460938 5.71875 -9.9375 5.71875 -11.5 L 5.71875 -24.015625 L 1.015625 -24.015625 L 1.015625 -32.59375 Z M 5.71875 -32.59375 "/></g></g><g style="fill:#ffffff;fill-opacity:1;"><g transform="translate(182.224223, 84.145572)"><path style="stroke:none" d="M 28.53125 -32.59375 L 41.5 -32.59375 L 15.890625 16.515625 L 2.921875 16.515625 L 14.171875 -5.078125 L -1.265625 -32.59375 L 11.6875 -32.59375 L 20.78125 -15.890625 Z M 28.53125 -32.59375 "/></g></g><g style="fill:#ffffff;fill-opacity:1;"><g transform="translate(219.271042, 84.145572)"><path style="stroke:none" d=""/></g></g><g style="fill:#ffffff;fill-opacity:1;"><g transform="translate(233.441609, 84.145572)"><path style="stroke:none" d="M 1.46875 -26.25 C 1.46875 -33.832031 4.050781 -40.25 9.21875 -45.5 C 14.382812 -50.75 20.609375 -53.375 27.890625 -53.375 C 35.222656 -53.375 41.453125 -50.757812 46.578125 -45.53125 C 51.703125 -40.300781 54.265625 -33.875 54.265625 -26.25 C 54.265625 -18.582031 51.742188 -12.128906 46.703125 -6.890625 C 41.660156 -1.660156 35.390625 0.953125 27.890625 0.953125 C 20.222656 0.953125 13.898438 -1.640625 8.921875 -6.828125 C 3.953125 -12.015625 1.46875 -18.488281 1.46875 -26.25 Z M 14.359375 -26.25 C 14.359375 -23.488281 14.78125 -20.972656 15.625 -18.703125 C 16.476562 -16.441406 17.960938 -14.523438 20.078125 -12.953125 C 22.203125 -11.390625 24.804688 -10.609375 27.890625 -10.609375 C 32.335938 -10.609375 35.695312 -12.132812 37.96875 -15.1875 C 40.238281 -18.238281 41.375 -21.925781 41.375 -26.25 C 41.375 -30.519531 40.21875 -34.191406 37.90625 -37.265625 C 35.59375 -40.335938 32.253906 -41.875 27.890625 -41.875 C 23.578125 -41.875 20.242188 -40.335938 17.890625 -37.265625 C 15.535156 -34.191406 14.359375 -30.519531 14.359375 -26.25 Z M 14.359375 -26.25 "/></g></g><g style="fill:#ffffff;fill-opacity:1;"><g transform="translate(285.993428, 84.145572)"><path style="stroke:none" d="M 12.078125 -32.59375 L 20.015625 -14.875 L 27.953125 -32.59375 L 41.3125 -32.59375 L 23.828125 0 L 16.203125 0 L -1.265625 -32.59375 Z M 12.078125 -32.59375 "/></g></g><g style="fill:#ffffff;fill-opacity:1;"><g transform="translate(322.849605, 84.145572)"><path style="stroke:none" d="M 36.796875 -14.75 L 13.15625 -14.75 C 13.15625 -12.457031 13.894531 -10.757812 15.375 -9.65625 C 16.863281 -8.550781 18.472656 -8 20.203125 -8 C 22.023438 -8 23.46875 -8.242188 24.53125 -8.734375 C 25.59375 -9.222656 26.800781 -10.1875 28.15625 -11.625 L 36.28125 -7.5625 C 32.894531 -1.882812 27.257812 0.953125 19.375 0.953125 C 14.46875 0.953125 10.253906 -0.726562 6.734375 -4.09375 C 3.222656 -7.46875 1.46875 -11.523438 1.46875 -16.265625 C 1.46875 -21.015625 3.222656 -25.082031 6.734375 -28.46875 C 10.253906 -31.851562 14.46875 -33.546875 19.375 -33.546875 C 24.550781 -33.546875 28.757812 -32.050781 32 -29.0625 C 35.238281 -26.082031 36.859375 -21.816406 36.859375 -16.265625 C 36.859375 -15.503906 36.835938 -15 36.796875 -14.75 Z M 13.46875 -20.96875 L 25.859375 -20.96875 C 25.609375 -22.664062 24.941406 -23.96875 23.859375 -24.875 C 22.773438 -25.789062 21.390625 -26.25 19.703125 -26.25 C 17.835938 -26.25 16.351562 -25.757812 15.25 -24.78125 C 14.144531 -23.8125 13.550781 -22.539062 13.46875 -20.96875 Z M 13.46875 -20.96875 "/></g></g><g style="fill:#ffffff;fill-opacity:1;"><g transform="translate(357.990052, 84.145572)"><path style="stroke:none" d="M 3.8125 0 L 3.8125 -32.59375 L 15.0625 -32.59375 L 15.0625 -27.890625 L 15.1875 -27.890625 C 15.269531 -28.066406 15.40625 -28.28125 15.59375 -28.53125 C 15.789062 -28.78125 16.207031 -29.222656 16.84375 -29.859375 C 17.476562 -30.492188 18.15625 -31.066406 18.875 -31.578125 C 19.59375 -32.085938 20.523438 -32.539062 21.671875 -32.9375 C 22.816406 -33.34375 23.984375 -33.546875 25.171875 -33.546875 C 26.390625 -33.546875 27.59375 -33.375 28.78125 -33.03125 C 29.96875 -32.695312 30.835938 -32.363281 31.390625 -32.03125 L 32.28125 -31.515625 L 27.578125 -21.984375 C 26.179688 -23.171875 24.234375 -23.765625 21.734375 -23.765625 C 20.378906 -23.765625 19.210938 -23.46875 18.234375 -22.875 C 17.265625 -22.28125 16.578125 -21.5625 16.171875 -20.71875 C 15.765625 -19.875 15.476562 -19.15625 15.3125 -18.5625 C 15.144531 -17.96875 15.0625 -17.5 15.0625 -17.15625 L 15.0625 0 Z M 3.8125 0 "/></g></g><g style="fill:#ffffff;fill-opacity:1;"><g transform="translate(386.458261, 84.145572)"><path style="stroke:none" d=""/></g></g><g style="fill:#ffffff;fill-opacity:1;"><g transform="translate(400.628827, 84.145572)"><path style="stroke:none" d="M 31.703125 -10.796875 C 33.523438 -10.796875 35.296875 -11.070312 37.015625 -11.625 C 38.734375 -12.175781 39.992188 -12.707031 40.796875 -13.21875 L 42 -14.046875 L 47.09375 -3.875 C 46.914062 -3.75 46.675781 -3.578125 46.375 -3.359375 C 46.082031 -3.148438 45.394531 -2.757812 44.3125 -2.1875 C 43.238281 -1.613281 42.085938 -1.113281 40.859375 -0.6875 C 39.628906 -0.269531 38.019531 0.101562 36.03125 0.4375 C 34.039062 0.78125 31.984375 0.953125 29.859375 0.953125 C 24.992188 0.953125 20.378906 -0.242188 16.015625 -2.640625 C 11.648438 -5.035156 8.132812 -8.328125 5.46875 -12.515625 C 2.800781 -16.710938 1.46875 -21.25 1.46875 -26.125 C 1.46875 -29.800781 2.25 -33.332031 3.8125 -36.71875 C 5.375 -40.113281 7.457031 -43.019531 10.0625 -45.4375 C 12.675781 -47.851562 15.71875 -49.78125 19.1875 -51.21875 C 22.664062 -52.65625 26.222656 -53.375 29.859375 -53.375 C 33.253906 -53.375 36.378906 -52.972656 39.234375 -52.171875 C 42.097656 -51.367188 44.125 -50.5625 45.3125 -49.75 L 47.09375 -48.546875 L 42 -38.375 C 41.707031 -38.632812 41.265625 -38.941406 40.671875 -39.296875 C 40.078125 -39.660156 38.890625 -40.140625 37.109375 -40.734375 C 35.328125 -41.328125 33.523438 -41.625 31.703125 -41.625 C 28.828125 -41.625 26.242188 -41.15625 23.953125 -40.21875 C 21.671875 -39.289062 19.859375 -38.0625 18.515625 -36.53125 C 17.179688 -35.007812 16.164062 -33.367188 15.46875 -31.609375 C 14.769531 -29.859375 14.421875 -28.070312 14.421875 -26.25 C 14.421875 -22.257812 15.914062 -18.6875 18.90625 -15.53125 C 21.894531 -12.375 26.160156 -10.796875 31.703125 -10.796875 Z M 31.703125 -10.796875 "/></g></g><g style="fill:#ffffff;fill-opacity:1;"><g transform="translate(445.301064, 84.145572)"><path style="stroke:none" d="M 6.890625 -3.875 C 3.273438 -7.09375 1.46875 -11.222656 1.46875 -16.265625 C 1.46875 -21.304688 3.347656 -25.445312 7.109375 -28.6875 C 10.878906 -31.925781 15.539062 -33.546875 21.09375 -33.546875 C 26.5625 -33.546875 31.171875 -31.914062 34.921875 -28.65625 C 38.671875 -25.394531 40.546875 -21.265625 40.546875 -16.265625 C 40.546875 -11.265625 38.710938 -7.144531 35.046875 -3.90625 C 31.378906 -0.664062 26.726562 0.953125 21.09375 0.953125 C 15.25 0.953125 10.515625 -0.65625 6.890625 -3.875 Z M 15.59375 -21.796875 C 14.132812 -20.359375 13.40625 -18.515625 13.40625 -16.265625 C 13.40625 -14.023438 14.101562 -12.191406 15.5 -10.765625 C 16.90625 -9.347656 18.75 -8.640625 21.03125 -8.640625 C 23.238281 -8.640625 25.050781 -9.359375 26.46875 -10.796875 C 27.882812 -12.242188 28.59375 -14.066406 28.59375 -16.265625 C 28.59375 -18.515625 27.863281 -20.359375 26.40625 -21.796875 C 24.945312 -23.234375 23.15625 -23.953125 21.03125 -23.953125 C 18.875 -23.953125 17.0625 -23.234375 15.59375 -21.796875 Z M 15.59375 -21.796875 "/></g></g><g style="fill:#ffffff;fill-opacity:1;"><g transform="translate(484.127123, 84.145572)"><path style="stroke:none" d="M 17.984375 -33.546875 C 19.847656 -33.546875 21.691406 -33.332031 23.515625 -32.90625 C 25.335938 -32.488281 26.691406 -32.066406 27.578125 -31.640625 L 28.90625 -31.015625 L 25.234375 -23.640625 C 22.691406 -24.992188 20.273438 -25.671875 17.984375 -25.671875 C 16.710938 -25.671875 15.8125 -25.53125 15.28125 -25.25 C 14.75 -24.976562 14.484375 -24.460938 14.484375 -23.703125 C 14.484375 -23.535156 14.503906 -23.363281 14.546875 -23.1875 C 14.585938 -23.019531 14.671875 -22.863281 14.796875 -22.71875 C 14.929688 -22.570312 15.050781 -22.441406 15.15625 -22.328125 C 15.257812 -22.222656 15.4375 -22.109375 15.6875 -21.984375 C 15.945312 -21.859375 16.148438 -21.765625 16.296875 -21.703125 C 16.441406 -21.640625 16.679688 -21.539062 17.015625 -21.40625 C 17.359375 -21.28125 17.613281 -21.1875 17.78125 -21.125 C 17.957031 -21.0625 18.242188 -20.96875 18.640625 -20.84375 C 19.046875 -20.71875 19.359375 -20.632812 19.578125 -20.59375 C 20.890625 -20.207031 22.03125 -19.78125 23 -19.3125 C 23.976562 -18.851562 25.003906 -18.21875 26.078125 -17.40625 C 27.160156 -16.601562 28 -15.585938 28.59375 -14.359375 C 29.1875 -13.128906 29.484375 -11.734375 29.484375 -10.171875 C 29.484375 -2.753906 24.335938 0.953125 14.046875 0.953125 C 11.710938 0.953125 9.492188 0.59375 7.390625 -0.125 C 5.296875 -0.84375 3.785156 -1.5625 2.859375 -2.28125 L 1.46875 -3.4375 L 6.03125 -11.125 C 6.375 -10.820312 6.820312 -10.46875 7.375 -10.0625 C 7.925781 -9.664062 8.921875 -9.117188 10.359375 -8.421875 C 11.796875 -7.722656 13.046875 -7.375 14.109375 -7.375 C 16.441406 -7.375 17.609375 -8.15625 17.609375 -9.71875 C 17.609375 -10.4375 17.3125 -11 16.71875 -11.40625 C 16.125 -11.8125 15.113281 -12.265625 13.6875 -12.765625 C 12.269531 -13.273438 11.160156 -13.742188 10.359375 -14.171875 C 8.328125 -15.234375 6.71875 -16.429688 5.53125 -17.765625 C 4.34375 -19.097656 3.75 -20.863281 3.75 -23.0625 C 3.75 -26.375 5.03125 -28.945312 7.59375 -30.78125 C 10.15625 -32.625 13.617188 -33.546875 17.984375 -33.546875 Z M 17.984375 -33.546875 "/></g></g><g style="fill:#ffffff;fill-opacity:1;"><g transform="translate(512.214076, 84.145572)"><path style="stroke:none" d="M 5.71875 -32.59375 L 5.71875 -44.734375 L 16.96875 -44.734375 L 16.96875 -32.59375 L 23.828125 -32.59375 L 23.828125 -24.015625 L 16.96875 -24.015625 L 16.96875 -13.65625 C 16.96875 -10.65625 17.816406 -9.15625 19.515625 -9.15625 C 19.929688 -9.15625 20.375 -9.238281 20.84375 -9.40625 C 21.3125 -9.570312 21.671875 -9.738281 21.921875 -9.90625 L 22.3125 -10.171875 L 25.09375 -1.078125 C 22.6875 0.273438 19.9375 0.953125 16.84375 0.953125 C 14.71875 0.953125 12.894531 0.582031 11.375 -0.15625 C 9.851562 -0.894531 8.695312 -1.890625 7.90625 -3.140625 C 7.125 -4.390625 6.5625 -5.703125 6.21875 -7.078125 C 5.882812 -8.460938 5.71875 -9.9375 5.71875 -11.5 L 5.71875 -24.015625 L 1.015625 -24.015625 L 1.015625 -32.59375 Z M 5.71875 -32.59375 "/></g></g></g></svg>